<svg id="Layer_1" data-name="Layer 1" xmlns="http://www.w3.org/2000/svg" viewBox="0 0 957.78 233.04"><defs><style>.cls-1{fill:#b6ccd6;}.cls-2,.cls-3{fill:#fff;}.cls-3{stroke:#fff;stroke-miterlimit:10;stroke-width:2.65px;}.cls-4{fill:#05056a;}.cls-5{fill:#979395;}</style></defs><circle class="cls-1" cx="122.8" cy="109.97" r="92.23"/><path class="cls-2" d="M143.91,353.42a110,110,0,1,1,110-110A110.1,110.1,0,0,1,143.91,353.42Zm0-212.86A102.9,102.9,0,1,0,246.8,243.45,103,103,0,0,0,143.91,140.56Z" transform="translate(-21.11 -133.48)"/><path class="cls-2" d="M278.32,167.78a79.61,79.61,0,0,1,18.73-2.15c11.8,0,19.83,2.7,25.17,8.11,4.08,4.08,6.3,9.75,6.3,17,0,10.8-7.18,19.5-17.4,23.11v.39c9.64,2.26,21.19,10.41,21.19,26.67,0,8.45-2.93,15.11-7.54,20-6.49,6.93-17,9.56-29.87,9.56a144,144,0,0,1-16.58-.92Zm7.08,43.87h12.43c13.8,0,23.38-8.7,23.38-20.41,0-13.41-9.19-19.61-24.54-19.61a46.87,46.87,0,0,0-11.27,1Zm0,52.09a56.52,56.52,0,0,0,10.94.78c15.55,0,28.58-6.51,28.58-23.4,0-16.43-13.29-23.62-28.68-23.69H285.4Z" transform="translate(-21.11 -133.48)"/><path class="cls-2" d="M392.44,218.38H355.27v45.36h41.8v6.08H348.19V166.33h46.57v6.08H355.27v39.9h37.17Z" transform="translate(-21.11 -133.48)"/><path class="cls-2" d="M423.51,233.8l-11.44,36H404.9l33.52-103.49h6.86l33.51,103.49h-7.32l-11.6-36Zm34.34-6-10.79-33c-2.33-7.42-3.71-13.26-5.17-19.86h-.45c-1.39,6.75-3,12.82-5.1,19.69l-10.8,33.13Z" transform="translate(-21.11 -133.48)"/><path class="cls-2" d="M505.16,269.82,474,166.33h7.4l16.34,54.12c4.3,14.07,8.38,28.17,11,40.38h.46c2.65-12.36,7.07-26.49,11.68-40.44l17.64-54.06h7.41L511.8,269.82Z" transform="translate(-21.11 -133.48)"/><path class="cls-2" d="M600.35,218.38H563.18v45.36H605v6.08H556.1V166.33h46.57v6.08H563.18v39.9h37.17Z" transform="translate(-21.11 -133.48)"/><path class="cls-2" d="M619.82,167.78a87.49,87.49,0,0,1,19.86-2.15c12.33,0,20.16,2.78,25.65,8.26,4.46,4.44,7.08,11.35,7.08,18.7,0,14.11-7.8,22.74-19.3,27v.31c8.23,2.48,13.17,10.31,15.63,22.86,3.26,16,5.19,23.32,7.06,27h-7.33c-1.62-3.06-3.7-12.27-6.32-25.46-3-15-9-21.58-22.22-22h-13v47.45h-7.09Zm7.09,48.89h13.25c15,0,25-9,25-22.85,0-15.27-9.87-22.27-25.73-22.27a55,55,0,0,0-12.54,1.18Z" transform="translate(-21.11 -133.48)"/><path class="cls-2" d="M718.71,166.33h7.09v97.49h41.51v6h-48.6Z" transform="translate(-21.11 -133.48)"/><path class="cls-2" d="M791.73,233.8l-11.43,36h-7.18l33.53-103.49h6.86L847,269.82h-7.32l-11.59-36Zm34.35-6-10.8-33c-2.32-7.42-3.7-13.26-5.17-19.86h-.45c-1.39,6.75-3,12.82-5.1,19.69l-10.8,33.13Z" transform="translate(-21.11 -133.48)"/><path class="cls-2" d="M860.9,166.33H868v51.95h.47c2.92-4.13,5.79-7.81,8.34-11.17l32.48-40.78h8.58l-35.59,43.85,38.44,59.64h-8.34l-35-54.44L868,226.77v43H860.9Z" transform="translate(-21.11 -133.48)"/><path class="cls-2" d="M974.25,218.38H937.09v45.36h41.8v6.08H930V166.33h46.57v6.08H937.09v39.9h37.16Z" transform="translate(-21.11 -133.48)"/><path class="cls-2" d="M489.16,306.69c-.14-3.63-.28-7.95-.26-12.34h-.12c-1,3.83-2.22,8.09-3.34,11.62l-3.67,11.68h-5.26l-3.23-11.57c-1-3.53-2-7.78-2.7-11.73h-.09c-.15,4.07-.32,8.69-.5,12.42l-.56,11.37h-6.26l1.91-29.95h9l2.92,10c1,3.43,1.87,7.2,2.54,10.71h.14c.82-3.47,1.84-7.42,2.85-10.76l3.18-10h8.86l1.61,29.95h-6.58Z" transform="translate(-21.11 -133.48)"/><path class="cls-2" d="M508.21,288.19v29.95h-6.77V288.19Z" transform="translate(-21.11 -133.48)"/><path class="cls-2" d="M514.11,288.6a60.13,60.13,0,0,1,9.13-.64c5.68,0,9.39,1.05,12.26,3.21,3.11,2.32,5.06,6,5.06,11.27,0,5.74-2.07,9.71-4.95,12.13-3.15,2.63-8,3.88-13.81,3.88a57.05,57.05,0,0,1-7.69-.44ZM520.87,313a15.19,15.19,0,0,0,2.36.12c6.13,0,10.16-3.34,10.16-10.5,0-6.22-3.62-9.49-9.45-9.49a14.88,14.88,0,0,0-3.07.26Z" transform="translate(-21.11 -133.48)"/><path class="cls-2" d="M545,288.6a60.22,60.22,0,0,1,9.13-.64c5.68,0,9.4,1.05,12.26,3.21,3.12,2.32,5.07,6,5.07,11.27,0,5.74-2.08,9.71-5,12.13-3.15,2.63-8,3.88-13.82,3.88A57.17,57.17,0,0,1,545,318ZM551.79,313a15.4,15.4,0,0,0,2.37.12c6.13,0,10.16-3.34,10.16-10.5,0-6.22-3.63-9.49-9.45-9.49a15,15,0,0,0-3.08.26Z" transform="translate(-21.11 -133.48)"/><path class="cls-2" d="M576,288.19h6.77v24.27h11.91v5.68H576Z" transform="translate(-21.11 -133.48)"/><path class="cls-2" d="M616.45,305.47h-11v7.12h12.31v5.55H598.66V288.19h18.45v5.55H605.44V300h11Z" transform="translate(-21.11 -133.48)"/><path class="cls-2" d="M631.59,311.15a16.74,16.74,0,0,0,7.5,1.88c3.11,0,4.76-1.29,4.76-3.26s-1.43-2.92-5-4.19c-5-1.77-8.26-4.49-8.26-8.87,0-5.1,4.28-9,11.33-9a17.71,17.71,0,0,1,7.64,1.5l-1.49,5.43a14.51,14.51,0,0,0-6.25-1.42c-2.95,0-4.36,1.36-4.36,2.9,0,1.9,1.66,2.74,5.54,4.21,5.31,2,7.76,4.73,7.76,9,0,5-3.83,9.3-12.07,9.3a19.31,19.31,0,0,1-8.46-1.87Z" transform="translate(-21.11 -133.48)"/><path class="cls-2" d="M677.33,317.31a19.5,19.5,0,0,1-7.66,1.3c-10.37,0-15.71-6.48-15.71-15,0-10.21,7.32-15.86,16.36-15.86a17.28,17.28,0,0,1,7.37,1.32l-1.38,5.36a14.2,14.2,0,0,0-5.69-1.13c-5.34,0-9.53,3.26-9.53,9.91,0,6,3.54,9.78,9.57,9.78a16.3,16.3,0,0,0,5.66-1Z" transform="translate(-21.11 -133.48)"/><path class="cls-2" d="M688.57,288.19v11.52h11.17V288.19h6.77v29.95h-6.77V305.61H688.57v12.53H681.8V288.19Z" transform="translate(-21.11 -133.48)"/><path class="cls-2" d="M739.8,302.86c0,9.83-5.93,15.77-14.68,15.77S711,311.91,711,303.37c0-8.95,5.76-15.67,14.58-15.67C734.78,287.7,739.8,294.58,739.8,302.86Zm-21.63.38c0,5.87,2.76,10,7.28,10s7.2-4.32,7.2-10.15c0-5.39-2.56-10-7.22-10S718.17,297.42,718.17,303.24Z" transform="translate(-21.11 -133.48)"/><path class="cls-2" d="M771.66,302.86c0,9.83-5.93,15.77-14.68,15.77s-14.11-6.72-14.11-15.26c0-8.95,5.76-15.67,14.58-15.67C766.64,287.7,771.66,294.58,771.66,302.86Zm-21.63.38c0,5.87,2.76,10,7.28,10s7.19-4.32,7.19-10.15c0-5.39-2.55-10-7.21-10S750,297.42,750,303.24Z" transform="translate(-21.11 -133.48)"/><path class="cls-2" d="M776.13,288.19h6.77v24.27h11.92v5.68H776.13Z" transform="translate(-21.11 -133.48)"/><line class="cls-3" x1="347.87" y1="169.57" x2="421.93" y2="169.57"/><line class="cls-3" x1="792.07" y1="169.57" x2="866.13" y2="169.57"/><g id="fjTEPI.tif"><path class="cls-2" d="M194,278.74a17.3,17.3,0,0,1,2.21-1.67c.34.87.52,1.78.81,2.82A4.61,4.61,0,0,1,194,278.74Z" transform="translate(-21.11 -133.48)"/><path class="cls-4" d="M206.76,242.19l8.86,10-8.29.54c-.81-.13-1.6.2-2.42.11-.3,0-.39.18-.47.46a5,5,0,0,0-.08,1.85,25.35,25.35,0,0,1-.52,9,20.78,20.78,0,0,0-.6,2.54c-.33,3.21-.7,6.42-1.16,9.61s-.84,6.1-1.39,9.12c-1,5.59-2.12,11.16-2.8,16.81-.38,3.18-.75,6.35-1.09,9.53-.16,1.48-.34,3-.5,4.44s-.28,2.84-.42,4.26c0,.38-.06.76.35,1,.71,1.17,1.6,2.21,2.26,3.42a16.85,16.85,0,0,1,2.3,7.6,12.21,12.21,0,0,1-.39,4,25.11,25.11,0,0,0-.36,2.86,6.66,6.66,0,0,1-.62,1.94,1.43,1.43,0,0,1-1.95.74.72.72,0,0,0-.75.13,8.54,8.54,0,0,1-7.82,1.2c-1-.29-1-.28-1.27.74a15.12,15.12,0,0,1-2,4.88,2.07,2.07,0,0,0-.31,1.76,4.26,4.26,0,0,1-.26,2.37,2,2,0,0,1-3.31.9,5.27,5.27,0,0,1-.5-.55,14.92,14.92,0,0,1-2.9,1.17,5.86,5.86,0,0,1-5-.82c-.37-.27-.69-.61-1.05-.93-.27.12-.17.37-.2.56a7.05,7.05,0,0,1-3.73,5c-.64.36-.64.35-.52,1.06a8.56,8.56,0,0,1,.19,3.42,2.21,2.21,0,0,1-3.66,1.49,4.76,4.76,0,0,1-1.79-2.44l-.63-1.76a17.94,17.94,0,0,0-1.94,0,3.18,3.18,0,0,1-3.42-2.06c-.14-.3-.3-.6-.45-.89a4.24,4.24,0,0,0-2,1.66,9.29,9.29,0,0,1-3.94,3.2c-.83.44-.84.43-.69,1.36a4.69,4.69,0,0,1,0,1.67,1.58,1.58,0,0,1-1.12,1.37,1.7,1.7,0,0,1-1.81-.7,9.08,9.08,0,0,1-1.17-2.11c-.11-.26-.2-.48-.57-.53a6.94,6.94,0,0,1-5.39-4.15,15.45,15.45,0,0,1-1.68-6.91,19.75,19.75,0,0,1,1-6.61c.09-.3.19-.55-.07-.86-1.56-1.81-3.14-3.61-4.77-5.37a3.3,3.3,0,0,0-.3-.22.38.38,0,0,0-.15-.32c-2.5-2.69-4.95-5.43-7.52-8.05-2.79-2.85-5.59-5.69-8.5-8.43-2.62-2.47-5.29-4.9-8-7.26q-5.73-4.95-11.91-9.31a125.76,125.76,0,0,0-21.1-12,1.05,1.05,0,0,0-1.26.16,11.44,11.44,0,0,1-2.35,1.47,10.83,10.83,0,0,1-6.7,1.18,8.93,8.93,0,0,1-3.48-1.28,1.2,1.2,0,0,0-1.2-.11,9.06,9.06,0,0,1-2,.68,7.72,7.72,0,0,1-.83.06,1.75,1.75,0,0,1-1.72-.92,1.91,1.91,0,0,1,.2-1.95,5.8,5.8,0,0,1,1.16-1.21c.32-.29.3-.5.08-.85a16.35,16.35,0,0,1-2.2-4.71,4.53,4.53,0,0,1-.14-1.67c.11-.94-.51-1.57-.86-2.32-.14-.29-.37-.1-.56,0a6.06,6.06,0,0,1-2.63.48,4.71,4.71,0,0,1-2.55-1.05c-.69-.53-1.36-1.09-2-1.65a.54.54,0,0,0-.74-.08c-.53.32-1.09.61-1.65.88a5.11,5.11,0,0,1-3.72.35,2.51,2.51,0,0,1-1.67-3.91,6.93,6.93,0,0,1,2-2.07c.74-.55.73-.55.24-1.37a8.28,8.28,0,0,1-1.23-4.24,6.18,6.18,0,0,1,.83-3.06c-.18-.26-.37-.14-.53-.13a7.22,7.22,0,0,1-4.12-1,11.79,11.79,0,0,1-4.61-4.78,1,1,0,0,0-1.15-.63,2.43,2.43,0,0,1-2.45-3.68,4.18,4.18,0,0,1,1.19-1.54,1,1,0,0,0,.44-1,14.21,14.21,0,0,1,1.07-6c.32-.83.31-.84-.47-1.17a16.29,16.29,0,0,1-4.52-2.76,11.23,11.23,0,0,1-3.15-4.43c-.13-.35-.25-.56-.68-.64a1.56,1.56,0,0,1-1.28-1.93,6.25,6.25,0,0,1,1-2.58,3.52,3.52,0,0,0,.51-1A11.39,11.39,0,0,1,29,226a22.37,22.37,0,0,1,7.24-2,16.24,16.24,0,0,1,6.65.46,1.33,1.33,0,0,0,1.23-.17c.53-.36,1.21-.52,1.54-1.15.09,0,.18,0,.22-.11l.12-.11c.44,0,.71-.38,1-.63a47.48,47.48,0,0,0,4.82-4.8c3.19-3.64,6.11-7.48,9-11.38.46-.63.46-.63.06-1.29a2.21,2.21,0,0,0,1.5-.81c3.06-4.35,6.18-8.68,9.24-13,2.82-4,5.64-8.06,8.64-12,.14-.17.3-.32.29-.56l.06,0c.1,0,.1-.12.11-.2A10.79,10.79,0,0,0,82.59,176c.2-.25,0-.47-.08-.68l-2.25-5.73c-.84-2.14-1.67-4.29-2.58-6.61L89,166.42l-1-2a6.82,6.82,0,0,1-.77-3,4,4,0,0,1,2.06-3.54,6.22,6.22,0,0,1,2.35-.85,7,7,0,0,0,2.57-1,30.05,30.05,0,0,0,8.18-7.55c1-1.31,1.89-2.7,2.82-4.06a6.36,6.36,0,0,1,3.91-3,3.08,3.08,0,0,1,3.2,1l4.65,5.34c1.89,2.18,3.78,4.38,5.68,6.56a10.24,10.24,0,0,0,1.83,1.58c.27.19.47.27.71,0a1.79,1.79,0,0,1,1.21-.62,52.71,52.71,0,0,1,6.26-.9c1.56-.12,3.11-.19,4.67-.17a.61.61,0,0,0,.66-.38c.16-.34.33-.68.5-1l5.68-11.26c.09-.19.28-.35.22-.6h.19L151,155c.09.2.2.39.3.59.3.57.36,1.4.9,1.68a4.7,4.7,0,0,0,1.93.15c.93,0,1.87,0,2.81,0a18.11,18.11,0,0,1,8.54,2,2.09,2.09,0,0,1,1.16,1.26c.06.21-.09.57.28.6s.74.13,1.06-.18.88-.8,1.3-1.21a69.5,69.5,0,0,0,7.74-9,1.92,1.92,0,0,1,1.41-1c.4,0,.43-.2.44-.52a4.45,4.45,0,0,1,.66-2.3c1-1.42,2.28-1.86,4.39-1.43a13.26,13.26,0,0,1,3.92,1.93,56.68,56.68,0,0,0,13.22,6,15.26,15.26,0,0,1,2.91,1,2.8,2.8,0,0,1,.81,4.76c-.83.85-1.86,1.46-2.76,2.22a49.39,49.39,0,0,1-4.05,3.3,9.35,9.35,0,0,1-4.52,1.78,7.85,7.85,0,0,1,.39,2.83,3.16,3.16,0,0,1-.08.83,3,3,0,0,0,.2,2.54,14.32,14.32,0,0,1,.4,10.21,23.05,23.05,0,0,1-1,2.77,2,2,0,0,0-.05,1.78q1,2.67,1.92,5.35a25.78,25.78,0,0,0,3.3,6.95c.22.29.34.68.78.72,1.45.16,2.88.46,4.33.52,1.79.39,3.61.53,5.42.78l8.63,1.17c.16.27-.06.37-.18.48-1.16,1.12-2.36,2.21-3.49,3.36-1.6,1.6-3.34,3.07-4.84,4.77l-4.21,4a.7.7,0,0,0-.16.84c.37,1.12.71,2.26,1.06,3.38a30.77,30.77,0,0,1,1,11.57,52.53,52.53,0,0,1-1,7.37C205.55,240.11,205.54,241.3,206.76,242.19Zm-6,5a1,1,0,0,0-.2-.17c-.11-.05-.26-.07-.32.05s.12.17.2.24.11.05.16.08a11.78,11.78,0,0,1,2.66,3.56.59.59,0,0,0,.66.37l4.38-.19c.67,0,1.34-.08,2-.12,0-.08,0-.13,0-.13ZM145.51,146.29c0-.23-.1-.38-.37-.56,0,.58.06,1,.06,1.48,0,2.21,0,4.41,0,6.62a2.05,2.05,0,0,0,.08.92c.07.47.49.33.74.35a7.47,7.47,0,0,1,2.51.62l1.48.66C148.48,152.92,147,149.61,145.51,146.29Zm66.72,103.94c-.46-.51-1-.94-1.49-1.42q-3.41-3.27-6.77-6.57l-5.27-5.17c-.26-.26-.49-.59-.94-.51.57-.49,1.13-1,1.71-1.45s.59-.48,1.1.07a8.91,8.91,0,0,0,1.24,1.33c.17-2.13.35-4.13.42-6.14a68.56,68.56,0,0,0-.14-7.45c-.09-1.18-.2-2.35-.37-3.51-.05-.29-.08-.38-.45-.37s-.81-.4-1.17-.69c0,0,.06-.22.09-.33l13.26-12.53a1.49,1.49,0,0,0-.4,0l-3.94,1.42c-4.93,1.77-9.86,3.56-14.81,5.3-.76.26-1.26.59-1.17,1.46-.15.73-.28,1.46-.46,2.18a23.64,23.64,0,0,1-2.64,6.36,1.8,1.8,0,0,1-1.72,1.07.2.2,0,0,0-.23.11c-.06.17.07.28.17.39l2.15,2.34a32.94,32.94,0,0,1,5.75,8.68,7.2,7.2,0,0,0,1.06,2.13,1.35,1.35,0,0,0,.17.9c.68,1.86,1.23,3.77,1.73,5.69a2.17,2.17,0,0,1-.2,1.8l12.89,5.09a1.26,1.26,0,0,0,.85.3A.61.61,0,0,0,212.23,250.23Zm-113-69.66s.07,0,.08,0a55.84,55.84,0,0,1,3.9-6.25c.21-.3,0-.45-.16-.61-.81-.63-1.62-1.26-2.41-1.91-.32-.27-.54-.23-.78.07-.09.12-.24.2-.25.38-.48.19-.72.65-1.1,1-1.25,1-2,1-3.31.2l-.23-.15a18.6,18.6,0,0,1-4.29-4.11,2.66,2.66,0,0,0-1.52-1.1c-1.08-.28-2.13-.68-3.2-1l-4-1.27a4.81,4.81,0,0,0,.46.51l4.83,4.24,7.22,6.33c1.48,1.3,3,2.62,4.43,3.93a6.55,6.55,0,0,1-2.42-.69l-4.25-3.8-9.94-8.88c-.73-.66-1.46-1.3-2.24-2-.09.37.12.55.22.76q1.31,2.75,2.63,5.47l5.37,11.18a.42.42,0,0,1-.23.38l-1.85.64c-.24.08-.34,0-.41-.23s-.16-.34-.24-.52c-1.84,2.19-7.26,16.29-7.08,18.43l4-.73c1.4-.26,1.41-.26,1.8,1.09a2.64,2.64,0,0,1,0,.28,4.53,4.53,0,0,0-.74,0l-6,1.05-11.12,1.9a.54.54,0,0,0-.4.27l.33.09L81,209.05l6.35,1.53c0,.1.14.26,0,.29a9.58,9.58,0,0,1-2,.43c-.17-.06-.34-.14-.52-.19L67,206.63l-3.09-.76-.06.14,15.31,11.45c0,.16.2.3,0,.49-.4.4-.77.81-1.13,1.24s-.5.3-.84,0a8.25,8.25,0,0,0-1.5-1.24,48.52,48.52,0,0,0-.07,9.23c5.15-5.69,11.26-10.24,17.41-14.88-1.53-.36-2.32-1.13-2.42-2.3a10.46,10.46,0,0,1,0-1.77A60.79,60.79,0,0,1,92.07,200a89.21,89.21,0,0,1,5-14.66c.67-1.54,1.39-3.06,2.09-4.58A.31.31,0,0,0,99.22,180.57Zm96.31,22.15c-.12-.09-.11-.19-.07-.32a2.24,2.24,0,0,0-.44-1.92,47,47,0,0,0-4.87-6.12,10.85,10.85,0,0,0-1.41-1.32c.17.79.33,1.36.42,1.93.22,1.26.37,2.52.61,3.77a15,15,0,0,0,1.85,4.47,13,13,0,0,1,1.81,7.3,1.55,1.55,0,0,0,.08.9c.21-.11.42-.1.53-.28l.53-.16q8.55-3,17.09-6a23.92,23.92,0,0,0,3-1.1,1.82,1.82,0,0,0-1-.16c-1.27-.06-2.54-.12-3.81-.2-2.61-.15-5.21-.31-7.82-.49-.71-.05-1.42-.07-2.13-.12C198.45,202.8,197,202.78,195.53,202.72ZM156,290.49a6,6,0,0,1,2,.84c.59.27.6.33.34.92-.57,1.29-1.15,2.56-1.73,3.84a2.51,2.51,0,0,0-.31,1c8-1.7,15.12-4.75,20.94-10.48-1,.14-2,.4-3,.63a102.06,102.06,0,0,1-11.4,2c-2.29.26-4.58.45-6.88.53-.29,0-.64-.09-.88.2a1.33,1.33,0,0,0-.52-.17,59.09,59.09,0,0,1-6.45-.25,22.42,22.42,0,0,1,.19,3c.14,2.7.25,5.4.4,8.09.12,2.2.13,4.41.28,6.61a19.18,19.18,0,0,0,.2,2.25.81.81,0,0,0,.26-.38c1.87-5.17,3.76-10.33,5.6-15.51A15.18,15.18,0,0,0,156,290.49Zm19.31-47.55a13.35,13.35,0,0,1-1.93,6.07,5.49,5.49,0,0,1-2.17,2.48c-.35.18-.33.68-.21,1a.62.62,0,0,0,.8.31,4.52,4.52,0,0,0,.71-.23,6.28,6.28,0,0,0,3.18-3.39,26.18,26.18,0,0,0,2-9.88c.07-1.37-.11-2.73-.17-4.1a11.34,11.34,0,0,0-.26-1.93c-.08-.38-.23-.84-.73-.86s-.66.28-.85.62a4.11,4.11,0,0,0-.57,1.37,23.17,23.17,0,0,1-4.29,9.63c-1.09,1.55-2.3,3-3.52,4.47a2.11,2.11,0,0,0,.64,3.25,2.46,2.46,0,0,0,2.57-.49,15,15,0,0,0,1.63-1.93,17.25,17.25,0,0,0,3-6.55ZM130,219.18l.23,0c-.16.67-.33,1.33-.49,2a27.83,27.83,0,0,0-.65,9.14,7,7,0,0,0,.76,2.86,1.65,1.65,0,0,0,2.4.62,3.06,3.06,0,0,0,1-1c.12-.19.18-.44.47-.53.1.25.17.48.28.71a5.51,5.51,0,0,0,.85,1.54c.43.44.74.36,1-.19a1.91,1.91,0,0,0-.15-1.71,8.75,8.75,0,0,1-1-3.85,49.36,49.36,0,0,1-.1-5c.13-2.14.17-4.28.41-6.42a33.3,33.3,0,0,1,2-8.41,9.34,9.34,0,0,0,.44-1.71c.1-.66-.28-1-.88-.75a3.06,3.06,0,0,0-.8.47,16.09,16.09,0,0,0-2.38,2.36,31.21,31.21,0,0,0-6.46,11.45,22.43,22.43,0,0,0-.46,11.78,3.72,3.72,0,0,0,.57,1.36c.23.33.51.6.92.53s.51-.4.63-.74a3.94,3.94,0,0,0,.13-1.56,36.91,36.91,0,0,1-.25-6.13A20.22,20.22,0,0,1,130,219.18Zm-11.23,69.09c.49.28.69.79,1,1.22.73,1,.73,1-.27,1.8l-2.56,2.06a74.76,74.76,0,0,0,24.29,4.91c-.22-.46-.35-.77-.51-1.07-.76-1.46-1.53-2.92-2.29-4.39s-.79-1.55.72-2.49a4.49,4.49,0,0,0,.76,1.68q3.76,7.5,7.54,15a1.82,1.82,0,0,0,.56.78c-.08-1.1-.15-2-.2-3-.09-1.49-.17-3-.25-4.46-.1-1.83-.22-3.66-.32-5.48s-.18-3.35-.24-5c0-.36-.16-.47-.5-.51-1.64-.17-3.27-.36-4.9-.54a.89.89,0,0,0-.16-.09,58.57,58.57,0,0,1-9-1.57,21.76,21.76,0,0,1-8.14-3.61c-2.34-1.75-4.74-3.44-7.12-5.15a35.64,35.64,0,0,0-5.55-3.44,8.19,8.19,0,0,0-5.51-.9,14.28,14.28,0,0,0-3.61,1.5c-2.19,1.25-4.15,2.88-6.56,3.75,1.26,1.81,5.14,5.38,6.16,5.66v-3.66c0-.21-.07-.55.15-.59.51-.09,1-.57,1.55-.09,0,.4,0,.81-.06,1.21-.07,2.55,0,5.1-.1,7.66-.15,3.24-.07,6.48-.09,9.72,0,.19-.08.41.13.58a1.59,1.59,0,0,0,.17-.27l6.57-14.54c.94-2.1,1.9-4.19,2.85-6.28.2.1.2.29.2.47,0,.61,0,1.22,0,1.83-.29.61-.6,1.22-.89,1.84q-4.25,9.19-8.5,18.41c-.1.22-.27.42-.15.7.28,0,.41-.27.59-.43l3.16-2.9,5.15-4.75,5.21-4.82C118.3,288.78,118.64,288.64,118.74,288.27Zm-21.5-68.12A39.45,39.45,0,0,1,93.7,223a18.08,18.08,0,0,1-3,1.71,2.14,2.14,0,0,1,.4-.49c2-2,3.89-4,5.64-6.11a26.18,26.18,0,0,0,4.84-9,1.48,1.48,0,0,0,.17-1,3.11,3.11,0,0,0-.85.55l-6.21,4.67c-3.63,2.73-7.27,5.45-10.75,8.39a59.65,59.65,0,0,0-9.71,10.06,18.49,18.49,0,0,0-3.36,6.72,23.19,23.19,0,0,0-.57,6.65,34.05,34.05,0,0,0,1.25,7.53A70,70,0,0,0,78,268a23.06,23.06,0,0,0,6.12,7.35,11.8,11.8,0,0,0,8.72,2.25,19.59,19.59,0,0,0,8.87-3.5,12.4,12.4,0,0,0,5.11-7.36,24.25,24.25,0,0,0,.63-6.85c0-2-.21-3.92-.39-5.87-.14-1.48-.22-3-.41-4.45-.48-3.74-.68-7.49-.84-11.25a86.82,86.82,0,0,1,.08-9.81c.17-2.33.4-4.64.77-6.94a34.83,34.83,0,0,1,5.65-14.31,16.08,16.08,0,0,1,3.78-4.11c1.88-1.36,3.85-1.37,5.4,0a9.82,9.82,0,0,1,3.21,5.56,21.41,21.41,0,0,0,.87,3.53A4.68,4.68,0,0,0,128,215a1.51,1.51,0,0,0,.46-.63,34.4,34.4,0,0,1,5.7-7.5,5.91,5.91,0,0,1,2.07-1.41,1.53,1.53,0,0,1,2.21,1.45A5,5,0,0,1,138,209a35.1,35.1,0,0,0-1.81,7.14c-.13.84-.25.95.75,1.25a14.5,14.5,0,0,1,5.67,3,14.27,14.27,0,0,0,2.67,1.88,26.28,26.28,0,0,0,5.67,2.62,5.85,5.85,0,0,0,5.09-.74,2.56,2.56,0,0,0,1.29-2.33,12.41,12.41,0,0,0-.5-2.65,5.63,5.63,0,0,1,0-3.67c.14-.33,0-.49-.21-.71a19.81,19.81,0,0,1-2.87-3.19c-1.06-1.46-2.05-3-3.19-4.38a12.88,12.88,0,0,0-6.23-4.41c-.4-.13-.8-.23-1.2-.35.55-.1,1.09,0,1.61-.11,1.52-.18,2-.86,1.92-2.12-.06-.89,0-.91-1-.9a10.1,10.1,0,0,1-3.58-.53,3.9,3.9,0,0,1-1.57-.91,11.05,11.05,0,0,0,2.3.21,23.37,23.37,0,0,0,4.82-1.09,17.83,17.83,0,0,1,4.26-1,21.32,21.32,0,0,1,9.94,1.7,8.8,8.8,0,0,1,3.07,2.08c1.51,1.62,3,3.29,4.55,4.84a33.2,33.2,0,0,1,3.64,4.13,14.92,14.92,0,0,1,.85,1.23,4.92,4.92,0,0,1,.7,1.4,39.5,39.5,0,0,0-6.08-6.46c-1.07-.86-1-.91-1.79.29a9.81,9.81,0,0,1-1.45,1.94,1.27,1.27,0,0,1-1.19.37,2.82,2.82,0,0,0-.64-.09.68.68,0,0,0-.75.75,1.46,1.46,0,0,0,.15.63,1.92,1.92,0,0,1-.22,2,12.12,12.12,0,0,1-2.69,3.1,2.79,2.79,0,0,0-1,2.06c0,.15,0,.31,0,.46a11,11,0,0,0,1,6.55,11.58,11.58,0,0,0,2.89,3.63,16.65,16.65,0,0,0,2.92,2c2.85,1.55,5.88,2.74,8.53,4.61a2.32,2.32,0,0,0,.57-.81,1.91,1.91,0,0,1,1.94-1c.89.14,1.27.82,1.51,1.61a5.43,5.43,0,0,1,.18.91,29.64,29.64,0,0,1,.22,3,3.74,3.74,0,0,0,.89,2.15c.14-.78,0-1.43.13-2.08.21-1.42.59-2.8.94-4.19a13.83,13.83,0,0,0-.59-9,29.61,29.61,0,0,0-4.91-7.58c-.78-.92-1.61-1.79-2.44-2.72.3-.06.45.14.6.26a26.81,26.81,0,0,1,8.27,9,12.55,12.55,0,0,1,1.29,9.11c-.22,1-.47,1.93-.73,2.89a19.74,19.74,0,0,0-.79,4.87A15.64,15.64,0,0,0,183,246.9c1,2,2.09,4,2.92,6.17a27.15,27.15,0,0,1,2.11,9.79,19.43,19.43,0,0,1-3,10.34,26.11,26.11,0,0,0-2.12,4.06,6.77,6.77,0,0,0-.55,2.91,1.64,1.64,0,0,0,1.5,1.64,3.18,3.18,0,0,0,1,0,9.58,9.58,0,0,0,2.73-.93,31.3,31.3,0,0,0,8.51-6.34,23.35,23.35,0,0,0,4.83-7.38,24.18,24.18,0,0,0,1.7-10.58,11.09,11.09,0,0,0-4.51-8.73c-1.17-.88-2.37-1.72-3.56-2.58a21.46,21.46,0,0,1-5.47-5.69A30.94,30.94,0,0,1,185,228.15c.12,0,.15,0,.18.1a58.93,58.93,0,0,0,5.11,10.58,12.19,12.19,0,0,0,6.45,5.27c.19.07.37.22.66,0-.33-1.14-.63-2.31-1-3.46a33.49,33.49,0,0,0-5.92-11.58q-2-2.44-4.19-4.76a54.44,54.44,0,0,1-7.61-10.95c-1.76-3.16-3.49-6.33-5.53-9.33a22.21,22.21,0,0,0-7.55-7,31.52,31.52,0,0,0-14-3.72,47.84,47.84,0,0,0-7.57.11A34.46,34.46,0,0,0,138,194.5a11,11,0,0,0-3.49,1.54c-1.26.92-1.21,2-.24,2.89a6.62,6.62,0,0,0,3.63,1.79c.33,0,.68,0,1,0s1.06-.06,1.06.49-.63.56-1.08.69a6.54,6.54,0,0,1-2.68-.05,7.82,7.82,0,0,1-4.6-2.07,26.47,26.47,0,0,1-2.26-2.6,6.28,6.28,0,0,0-2.56-2,12.86,12.86,0,0,0-9.14-.29,22.13,22.13,0,0,0-9.64,6.7,32.45,32.45,0,0,0-6.56,13.19,56.14,56.14,0,0,0-1.72,14.32c0,1.18,0,2.36,0,3.55a1.32,1.32,0,0,1-.73,1.3.88.88,0,0,1-1.35-.64,11.52,11.52,0,0,1-.16-1.76,39.22,39.22,0,0,1,.63-6.3,1.5,1.5,0,0,0,0-1.12c-3.11,3-4.71,6.79-6.54,10.47a46.74,46.74,0,0,1,4.06-11l1.72-3.32a.7.7,0,0,0,.31-.59C97.43,219.78,97.34,220,97.24,220.15ZM149,313.08c-.64-1.21-1.2-2.24-1.75-3.29-1.3-2.52-2.61-5-3.9-7.56a1,1,0,0,0-.85-.58c-1.67-.22-3.35-.1-5-.26-2.33-.23-4.65-.47-6.94-.88a75,75,0,0,1-16-4.55,1.05,1.05,0,0,0-1.19.17c-2.79,2.24-5.61,4.46-8.42,6.68L102.17,305a.78.78,0,0,1-.15-.69c0-1.47,0-2.93,0-4.4,0-3.27,0-6.55,0-9.83a1.34,1.34,0,0,0-.64-1.22,45,45,0,0,1-9-8.4,1.12,1.12,0,0,0-1-.44,11.24,11.24,0,0,1-3.4-.54,18.27,18.27,0,0,1-8.52-6A36.27,36.27,0,0,1,75,266.2l-1.45-2.92a.45.45,0,0,0-.13.47,9.61,9.61,0,0,1-.79,4.1c-.24.59-.24.61.35.9a15.76,15.76,0,0,1,3.26,2,12.17,12.17,0,0,1,4.87,9.86,19.44,19.44,0,0,1-.76,5.15,1,1,0,0,0,.23,1.08c.8.8,1.52,1.65,2.3,2.46,3,3.14,6.26,6.08,9.58,8.91,4.85,4.12,9.88,8,14.94,11.86,3.75,2.85,7.51,5.67,11.23,8.56,5.22,4.05,10.36,8.19,15.16,12.73,1.31,1.24,2.67,2.43,3.87,3.79,1,1.1,2,2.12,3,3.21a1.18,1.18,0,0,0,1.78.12c.27-.21.52-.45.78-.67a9.34,9.34,0,0,1,6-2.31,21.77,21.77,0,0,1,3.13.39,2.43,2.43,0,0,0,.31-.89,10.42,10.42,0,0,1,8.32-8,21.52,21.52,0,0,1,6.79-.35c.44,0,.69-.06.82-.53a11.45,11.45,0,0,1,.61-1.56,7.79,7.79,0,0,1,1.77-2.61,5.26,5.26,0,0,1,4.54-1.23,1.18,1.18,0,0,0,1.15-.37,10.93,10.93,0,0,1,6.87-3.26,3.53,3.53,0,0,0,2.55-1.37,55.62,55.62,0,0,0,10.3-18.62,73.65,73.65,0,0,0,3.47-19.13c0-.68,0-1.36.12-2.05a13,13,0,0,0,0-1.77.57.57,0,0,0-.41-.57c-.21-.07-.32.16-.43.3a5.41,5.41,0,0,1-.78.92c-1,.73-1,1.62-.7,2.71.41,1.58.66,3.2,1,4.85a1.3,1.3,0,0,1-.68-.21c-1.44-.75-2.88-1.49-4.31-2.25a.83.83,0,0,0-1,0,32.35,32.35,0,0,1-6.92,3.68,7,7,0,0,0-2.95,2,39.5,39.5,0,0,1-4.54,4.7A41.83,41.83,0,0,1,165,298a52,52,0,0,1-9.64,2.58,1.39,1.39,0,0,0-1.21.86c-.93,2.17-1.9,4.33-2.86,6.49ZM120.33,192.43a9.36,9.36,0,0,1-1.44-2.52,6.9,6.9,0,0,1,.52-6.35c.49-.74.58-.85-.43-1.18a3.17,3.17,0,0,0-.74-.12,9.35,9.35,0,0,0-5.89,1.74c-.16.1-.29.3-.51.25a.53.53,0,0,1,.1-.49,7.08,7.08,0,0,1,6.43-3.79,16.46,16.46,0,0,1,6.46,1.3,11.57,11.57,0,0,1,4,2.56c1.06,1.06,2,2.2,3,3.34a12.56,12.56,0,0,0,9.83,4.6,30.67,30.67,0,0,0,6.12-.59c.35-.07.76-.05,1-.36a3.34,3.34,0,0,1-.26-3.7c.07-.17.16-.33.24-.51a15.65,15.65,0,0,1,1.46-2.38c.35-.52.48-.48-.12-1.08-.31-.3-.63-.6-.92-.93a81.79,81.79,0,0,1-6.56-8.61c-1.92-2.81-3.83-5.61-6-8.27-.86-1.08-1.78-2.12-2.68-3.18a13.34,13.34,0,0,1,2.1,1.46,54.86,54.86,0,0,1,6.56,6.64c1.85,2.2,3.56,4.5,5.31,6.77a14.87,14.87,0,0,0,2,2.31,2.52,2.52,0,0,0,2.58.68,2.67,2.67,0,0,0,1.71-2.06c.1-.38,0-.66-.43-.75a7.5,7.5,0,0,1-1.25-.37,8.57,8.57,0,0,1-4.56-4.4c.44.27.82.62,1.23.93a6.85,6.85,0,0,0,5,1.5,8.65,8.65,0,0,0,3.72-1.4,26.21,26.21,0,0,0,3.86-3.1,1.06,1.06,0,0,1,.64-.42c-.57.76-1.07,1.4-1.54,2.06a42.68,42.68,0,0,0-5.06,8.6,14.36,14.36,0,0,0-1.34,7.36,7,7,0,0,0,1.19,3.58,2,2,0,0,0,1.68.84,3.83,3.83,0,0,0,1.53-.37,27.15,27.15,0,0,0,3.88-2.24c2.92-2,5.66-4.19,8.6-6.14a18.71,18.71,0,0,1,4.87-2.55,6.63,6.63,0,0,1,2.87-.11,2.65,2.65,0,0,1,1.94,1.18,5.88,5.88,0,0,1,.44,5.79c-.15.34-.35.75-.76.72s-.46-.46-.58-.77a6.51,6.51,0,0,1-.23-.71c-.19-.66-.36-1.32-.57-2a5.4,5.4,0,0,0-.41-1c-.32-.56-.67-.58-1.12-.14a2.22,2.22,0,0,0-.54,1.17,12.67,12.67,0,0,0,.13,3.79,11.93,11.93,0,0,1,0,3.91,8,8,0,0,1-3.14,4.72,19.61,19.61,0,0,0-1.79,1.36.41.41,0,0,0-.06.64c.36.46.76.91,1.1,1.39s.61.43,1,.22a8.94,8.94,0,0,0,2.69-1.82c.23-.23.42-.54.8-.64a2.12,2.12,0,0,1-.21,1.39,8.85,8.85,0,0,1-1.13,1.83c-.44.56-.43.58.08,1a9.09,9.09,0,0,1,2,2.57,26.28,26.28,0,0,1,1.9,5.65,11.86,11.86,0,0,0,1.26,3.31,1.85,1.85,0,0,0,.77.8,15.22,15.22,0,0,0,1.56-12.55.87.87,0,0,1,.53.26,6.18,6.18,0,0,1,1.9,3.66,24.33,24.33,0,0,1,.32,3.9c.06,1.71,0,3.43,0,5.15a15.21,15.21,0,0,0,.74,4.68,1.72,1.72,0,0,0,.49.93,1.25,1.25,0,0,0,.19-.15l.15-.23a22,22,0,0,0,3-11.61,9.36,9.36,0,0,0-1.08-4.31c-.44-.86-.86-1.73-1.3-2.59a13.56,13.56,0,0,1-1.43-4.71,20,20,0,0,0-.71-3.75,3.32,3.32,0,0,0-.66-1.43c-1.47,1.72-2.77,3.55-4.82,4.57a26.48,26.48,0,0,0,4.34-7.71,16,16,0,0,0,.77-8.81,9.41,9.41,0,0,0-4.55-6.43,9.67,9.67,0,0,0-6-1.21,13.85,13.85,0,0,0-5.46,1.79,14.21,14.21,0,0,0-3.62,3.47,62.36,62.36,0,0,1-4.69,5.32,8.93,8.93,0,0,1-2.45,1.73c.52-.72,1.07-1.39,1.61-2.07a67.17,67.17,0,0,0,3.75-5.92,15.08,15.08,0,0,1,6.53-6,7.15,7.15,0,0,1,3.06-.71,34,34,0,0,1,3.62.29,4,4,0,0,0,1.76-.1,1.24,1.24,0,0,0,.83-1.83,2.58,2.58,0,0,0-1.24-1.22,8.7,8.7,0,0,0-9.57.78c-.65.53-1.21,1.15-1.92,1.86a11.33,11.33,0,0,1,1.93-3.48,5,5,0,0,1,5.36-2,33.44,33.44,0,0,0,3.72.86,2.66,2.66,0,0,0,2.8-1.41,5.39,5.39,0,0,0,.28-4.34,45,45,0,0,0-3.58-8.21s-.1,0-.16-.07a1.59,1.59,0,0,0-.57.61,70.36,70.36,0,0,1-9,10,1.94,1.94,0,0,1-1.49.59,9.41,9.41,0,0,0-4.67,1.11,22.55,22.55,0,0,0-4.5,3.32c-1,.91-2.05,1.82-3.16,2.63a5.77,5.77,0,0,1-7.26-.31,4.84,4.84,0,0,1-1.63-2,19.12,19.12,0,0,0,2.46,1.36,5.9,5.9,0,0,0,4.53.42,13.76,13.76,0,0,0,1.93-.94,26.65,26.65,0,0,0,4.68-3.85,23.66,23.66,0,0,1,4.25-3.2c.18-.11.41-.15.48-.4-.1-.26-.36-.31-.58-.42a16,16,0,0,0-5.76-1.47c-1.59-.13-3.18-.06-4.77-.05a8.28,8.28,0,0,1-4.39-1.09,9.65,9.65,0,0,0-5.27-1.29,8.38,8.38,0,0,1-2.39-.35,8.63,8.63,0,0,0-2.19-.46,59.32,59.32,0,0,0-9.61.42,21.54,21.54,0,0,0-3.37.67l3.4,2.22a1.64,1.64,0,0,1-.84.1,2.64,2.64,0,0,1-.56,0,12.06,12.06,0,0,1-7.41-4.19c-3.21-3.78-6.64-7.36-9.66-11.29a1.85,1.85,0,0,0-2.49-.57,4.46,4.46,0,0,0-1.84,1.55c-.69,1-1.37,2-2.06,3a32.29,32.29,0,0,1-10.46,10,5.25,5.25,0,0,1-2.25.84,4.79,4.79,0,0,0-1.78.52A2.39,2.39,0,0,0,89.07,162a13.49,13.49,0,0,0,1.57,3.68,16,16,0,0,0,4.69,5.51c1.07.81,1.64.82,2.63-.1a27.33,27.33,0,0,0,3.4-4c2.8-3.85,5.47-7.82,9.27-10.82a4,4,0,0,0,1.56-3.63,4.71,4.71,0,0,1,0-.84,13.24,13.24,0,0,1,.54-3.31c.22-.66.38-.69.86-.15a3.36,3.36,0,0,1,.74,3.14,16.34,16.34,0,0,1-1.44,3.74c-.43.86-.44.93.27,1.59a14.26,14.26,0,0,0,4.25,2.67.85.85,0,0,0,1.09-.25c.24-.29.47-.59.71-.87s.33-.41.63-.27a.73.73,0,0,1,.39.6.91.91,0,0,1-.32.83,6.46,6.46,0,0,1-1.22.87,13.85,13.85,0,0,0-2.11,1.37,2.36,2.36,0,0,0-1.07,2c0,.77.23.95,1,.73a12.72,12.72,0,0,0,1.65-.63,23.27,23.27,0,0,1,6-2,10.85,10.85,0,0,1,4.5.21,1.82,1.82,0,0,1-.56.09,19.31,19.31,0,0,0-5.68,1,52,52,0,0,0-8.16,3.68,28.67,28.67,0,0,0-10.41,9.58,64.27,64.27,0,0,0-6.18,12,73.62,73.62,0,0,0-5.14,19.05,7.81,7.81,0,0,0,0,2.32,5.51,5.51,0,0,0,.83-1.37c2.29-4,5-7.7,7.57-11.47a66.2,66.2,0,0,0,5.12-8.37,6.59,6.59,0,0,0,.6-3.9,7.76,7.76,0,0,1,1.58-6.15,28.93,28.93,0,0,1,9.25-7.6,13.8,13.8,0,0,1,5.26-1.55,6.91,6.91,0,0,1,6.78,3.07c.71,1,1.46,2,2.12,3.09a41.41,41.41,0,0,0,9.18,10.26,8.2,8.2,0,0,0,2.63,1.58c.16.06.4,0,.38.35-.46,0-.89.25-1.37.16a8.37,8.37,0,0,1-2.49-.77,24.08,24.08,0,0,1-10-9.67c-.65-1.18-1.26-2.38-2-3.52-1.16-1.89-2.85-3.1-5.61-2.35a23.66,23.66,0,0,0-5.25,2.18,29.53,29.53,0,0,0-7.14,5.22,7.16,7.16,0,0,0-2.1,6.06,8.9,8.9,0,0,1-.2,3.22,29.06,29.06,0,0,1-4.77,9.87,29.31,29.31,0,0,0-2.39,3.68,12.61,12.61,0,0,0-1.27,3.31,1.75,1.75,0,0,0,.67-.58,45.22,45.22,0,0,1,5.89-5.85A26.69,26.69,0,0,1,120.33,192.43Zm56.61,84.85c-.27-.13-.38,0-.51.08a40.4,40.4,0,0,1-5.38,2.39,24,24,0,0,1-11.29,1.36,25,25,0,0,1-9.59-3.5,45.74,45.74,0,0,1-13-11.79,73.54,73.54,0,0,0-5.21-6.35,41.46,41.46,0,0,0-8-6.67,1.26,1.26,0,0,1-.55-.49,11.14,11.14,0,0,1,2.28.25,20.1,20.1,0,0,1,9.73,4.7c.15.13.29.35.55.18a1.91,1.91,0,0,0-.05-.92,21.37,21.37,0,0,0-.88-2.85,10.58,10.58,0,0,0-7.3-6.67,22.17,22.17,0,0,0-7.7-.44c-.71.05-1.42.18-2.27.29.17-.25.23-.36.3-.45a9.67,9.67,0,0,1,14.27-.82,17.5,17.5,0,0,1,3.14,4.61c2.2,4.17,3.74,8.63,5.74,12.89a38.87,38.87,0,0,0,6.26,10,17.2,17.2,0,0,0,9,5.41,27.29,27.29,0,0,0,8.73.54,31.5,31.5,0,0,0,15.18-5.34,19.33,19.33,0,0,0,4.86-4.47,8.5,8.5,0,0,0,1.74-6.21,6.36,6.36,0,0,0-6.56-5.66,10.78,10.78,0,0,0-5.61,1.85,14.43,14.43,0,0,1-2,1.12,13.34,13.34,0,0,1-10.79-.3,25.76,25.76,0,0,1-7.7-5.36,58.74,58.74,0,0,1-5.56-6.54,68.3,68.3,0,0,0-6.72-7.89,19.8,19.8,0,0,0-6.09-4.1,11.48,11.48,0,0,0-3.51-.89,12,12,0,0,0-7.7,2.13,44.44,44.44,0,0,0-9.85,8.81,21.14,21.14,0,0,0-3.45,5.75,19.69,19.69,0,0,0-1.12,9.35A24.76,24.76,0,0,0,113.91,272a28.22,28.22,0,0,0,11.38,10.26,32.74,32.74,0,0,0,15.29,3.66,30.29,30.29,0,0,0,13.12-2.85c.12-.05.26-.2.43.09-1.55,2.1-3.84,3.23-6.21,4.49,1.27.14,2.38.32,3.49.36a51.6,51.6,0,0,0,9.13-.28,25.12,25.12,0,0,0,8.93-2.85A19.31,19.31,0,0,0,176.94,277.28ZM55.86,255.62a44.93,44.93,0,0,1-2.92,4.72,9.51,9.51,0,0,1-3,3,14.08,14.08,0,0,1-2.71,1A8.61,8.61,0,0,0,43.28,267a3.68,3.68,0,0,0-1,2.66A6.92,6.92,0,0,0,43.41,273c.36.58.36.59.89.17q2.16-1.71,4.3-3.45a2.24,2.24,0,0,1,1.55-.53,17.36,17.36,0,0,1,2.88.29,6.07,6.07,0,0,1,2.35.86A2,2,0,0,1,56,273a3.94,3.94,0,0,1-1,1.22c-.81.64-1.62,1.27-2.44,1.88-1.1.82-2.24,1.59-3.41,2.31-.43.26-.44.35-.07.68s.65.49.94.77a3.34,3.34,0,0,0,4.05.51,21,21,0,0,0,4.06-2.65,29.11,29.11,0,0,1,7.32-4.62,6.14,6.14,0,0,0,2.25-1.31,14.67,14.67,0,0,0,3.37-5,8.12,8.12,0,0,0,.56-3.29,10.19,10.19,0,0,0-2.19-5.67A31.37,31.37,0,0,0,61,250.57c-.47-.3-.75-.23-1.14.19-.2.21-.27.56-.62.61-.1-.18,0-.31.09-.44a18.35,18.35,0,0,0,1.21-3.22,9.16,9.16,0,0,0,.25-3.25,4.82,4.82,0,0,0-2.24-3.31,15.17,15.17,0,0,0-6.19-2.5,13.77,13.77,0,0,0-4.35-.29,20.48,20.48,0,0,0-12.36,6.2,12.09,12.09,0,0,0-3.52,6.57,5.42,5.42,0,0,0-.09,1.73c.64-.4,1.2-.77,1.78-1.12A19.66,19.66,0,0,1,40.43,249a9.59,9.59,0,0,1,2.62-.07,2.08,2.08,0,0,1,2,2.59,2.29,2.29,0,0,1-.45,1,1.12,1.12,0,0,0-.15,1.49,1.8,1.8,0,0,1,.17,1.53,2.49,2.49,0,0,1-1.92,1.72c-.75.21-1.51.39-2.27.56-2,.46-4.07.9-6.11,1.35-.75.17-.79.26-.38.91A9.46,9.46,0,0,0,38.21,264a4.83,4.83,0,0,0,4.74-.31,6.15,6.15,0,0,0,1.6-1.41,23.92,23.92,0,0,1,4.5-4.32,7.12,7.12,0,0,1,2.69-1.25A14.5,14.5,0,0,0,55.86,255.62ZM168.8,335.14a8.89,8.89,0,0,0,1.66,3.39,7,7,0,0,1,1.24,2.69,28.73,28.73,0,0,1,.58,6.21,7.22,7.22,0,0,0,.39,2.76,3.89,3.89,0,0,0,2.66,2.66,6.64,6.64,0,0,0,4.53-.64c.35-.15.35-.38.17-.67-.49-.76-1-1.53-1.44-2.29-1-1.56-2-3.1-2.91-4.69a2.43,2.43,0,0,1,.84-3.56.72.72,0,0,0,.42-.73,4.11,4.11,0,0,1,.24-1.66,1.7,1.7,0,0,1,2.58-.93,4.62,4.62,0,0,1,1.33,1.16,16.68,16.68,0,0,1,2.81,5.56c.3.93.55,1.87.87,3a9.29,9.29,0,0,0,1.17-2.62,18,18,0,0,0,.63-6.17,23.2,23.2,0,0,0-3.16-10.53,11.44,11.44,0,0,0-7.66-5.52,4.15,4.15,0,0,0-3.83.65,6.46,6.46,0,0,0-1.53,2.2,19.45,19.45,0,0,0-1.38,4.64,1.57,1.57,0,0,1-.1-.23,3.29,3.29,0,0,0-.28-1.16c-.27-.4-.81-.19-1.23-.24a18.32,18.32,0,0,0-7,.51,8.55,8.55,0,0,0-5.51,4.31,10.93,10.93,0,0,0-1.21,4.09c-.2,2.21-.39,4.42.6,6.53a27.48,27.48,0,0,1,1.95,7.18,27.84,27.84,0,0,0,1.21,5.18c.69,1.87,1.33,2.26,3.29,2.18.68,0,.71-.05.54-.7-.51-1.9-.92-3.81-1.24-5.75a5.83,5.83,0,0,1-.05-3.13,1.77,1.77,0,0,1,1.79-1.23,2.65,2.65,0,0,1,1.08.27,10.26,10.26,0,0,1,3,2.09,1.88,1.88,0,0,1,.53,1.07c.19,1.14.37,2.28.57,3.41a13,13,0,0,0,.51,2.54c.34-.18.62-.31.88-.48a5.16,5.16,0,0,0,2.41-5.36,13.29,13.29,0,0,0-1.54-4.57,8.47,8.47,0,0,1-1-3.95C168.15,340.17,168.58,337.76,168.8,335.14ZM70.54,256c.15-.41-.07-.72-.17-1a38,38,0,0,1-1.86-9.67A24.11,24.11,0,0,1,69,238.8a17.52,17.52,0,0,1,3-6.79,2.36,2.36,0,0,0,.46-1.93,10.42,10.42,0,0,1-.11-1.48,32.38,32.38,0,0,0-.09-3.27,15.29,15.29,0,0,1-.06-3.17c.17-2.17.06-4.35.34-6.51a1,1,0,0,0-.42-1l-1.34-1.16q-2.71-2.35-5.44-4.7c-.5-.42-.52-.4-.92.1-1.9,2.38-3.79,4.77-5.71,7.15-2.34,2.9-4.76,5.74-7.28,8.49l-2.3,2.52a.5.5,0,0,0,.27.31A25,25,0,0,1,53.69,231a13.93,13.93,0,0,1,3.84,6.62,2.12,2.12,0,0,0,1.15,1.46,7.54,7.54,0,0,1,3.63,4,9,9,0,0,1,0,5.05c-.22.92-.23.92.56,1.45a34.85,34.85,0,0,1,6.89,5.69C70,255.54,70.11,255.88,70.54,256Zm-6.09,38.05a6.77,6.77,0,0,0,4.68.62,11.88,11.88,0,0,0,8-5.71,17.49,17.49,0,0,0,2.06-6.06,10.91,10.91,0,0,0-.28-5.44c-1.41-4.13-4.58-6.34-8.43-7.89-.69,1.49-1.29,3-2.06,4.35A19.18,19.18,0,0,1,65.45,278a9.76,9.76,0,0,1-4.71,2.73,3.92,3.92,0,0,0-2.92,4.88,13.28,13.28,0,0,0,1.5,3.51c.1.17.15.42.49.42A22.25,22.25,0,0,1,61.63,287a6.42,6.42,0,0,1,6.49-2.16A3,3,0,0,1,70.38,289a6.83,6.83,0,0,1-2.3,3A21.62,21.62,0,0,1,64.45,294.07ZM27.11,229.62c.39-.19.78-.36,1.16-.57a9,9,0,0,1,5.26-.93,4.47,4.47,0,0,1,1.85.59,2,2,0,0,1,1.25,2,7,7,0,0,1-2.77,5.1c-1,.72-2.11,1.27-3.29.59a2.49,2.49,0,0,0-2.48,0c-1,.43-1.84,1.05-2.77,1.55-.69.37-.71.23-.39,1.13a2.71,2.71,0,0,0,.2.42,11.37,11.37,0,0,0,4.77,4.6c.73.39.77.39,1.09-.33a7.28,7.28,0,0,1,1.68-2.34,15.37,15.37,0,0,1,5.27-2.94,1.51,1.51,0,0,1,1.68.14,1.38,1.38,0,0,0,1.79.18,10.81,10.81,0,0,0,1.09-.51,10.18,10.18,0,0,1,4.7-1.39,33.36,33.36,0,0,1,7,.29,2.56,2.56,0,0,0,1.32,0,8.5,8.5,0,0,0-1.39-2.85,21.63,21.63,0,0,0-7.47-6.5A16.46,16.46,0,0,0,38,225.66a23.07,23.07,0,0,0-3.51.44A14,14,0,0,0,27.11,229.62Zm153.6-79.83a29.16,29.16,0,0,0,1.32,6.47,3.91,3.91,0,0,0,1,1.56c1.35,1.39,2.82,2.64,4.26,3.93a12,12,0,0,0,4.09,2.72,5.09,5.09,0,0,0,2.57.23,8.78,8.78,0,0,0,3.57-1.75c2-1.5,3.78-3.24,5.81-4.69a2,2,0,0,0,.45-.47,1,1,0,0,0-.26-1.46,6.41,6.41,0,0,0-1.63-.68,47.61,47.61,0,0,1-10.26-3.94q-3.19-1.65-6.26-3.53a6.81,6.81,0,0,0-2.25-.88,1.89,1.89,0,0,0-2.37,1.75A6.06,6.06,0,0,0,180.71,149.79ZM149.62,360.37a7.33,7.33,0,0,0,2.32-1.36,4.83,4.83,0,0,0,1.21-6.51,8.49,8.49,0,0,1-.56-1.18,15.49,15.49,0,0,1-.64-7.61,38.82,38.82,0,0,1,1-5.12c.1-.42,0-.62-.42-.74a12.9,12.9,0,0,0-2.93-.53,8,8,0,0,0-7.24,3.86,20.26,20.26,0,0,0-3,7.8,14.25,14.25,0,0,0,1.38,9.15,6.13,6.13,0,0,0,2.79,2.79c.18.09.37.26.61,0a16,16,0,0,1-1.18-3.82,6.93,6.93,0,0,1,.54-4.46,2.33,2.33,0,0,1,2.56-1.29,3.51,3.51,0,0,1,1.71.9,7,7,0,0,1,2,4.88C149.85,358.19,149.63,359.2,149.62,360.37Zm49.59-29.31a2.21,2.21,0,0,0,0-.37,18.32,18.32,0,0,0-3.56-7.32,11.12,11.12,0,0,0-4.28-3.53,14.31,14.31,0,0,0-9.67-.61,8.09,8.09,0,0,0-2.86,1.35c-.66.51-.66.56,0,1.06.84.65,1.68,1.29,2.49,2a13.06,13.06,0,0,1,4.44,6.43,6.43,6.43,0,0,0,.46,1.12c.12.25.31.55.62.49.9-.15,1.23.47,1.52,1.09,1.24,2.67,2.07,5.41,1.42,8.4-.1.43.07.59.5.68a7.56,7.56,0,0,0,5.48-1,.68.68,0,0,0,.34-1c-.17-.4-.26-.83-.39-1.24a14.37,14.37,0,0,0-.92-2.55c-.18-.33-.36-.64-.79-.72a2.53,2.53,0,0,1-2-2.18,8.87,8.87,0,0,1,.74-6,1.66,1.66,0,0,1,1.6-.94,4.22,4.22,0,0,1,3.11,1.66A12.84,12.84,0,0,1,199.21,331.06ZM42.83,253.32c.3-.36.57-.66.82-1,.39-.53.77-1.1.4-1.79s-1-.7-1.61-.73a10.35,10.35,0,0,0-3.49.54,25.83,25.83,0,0,0-8.57,5,3.25,3.25,0,0,0-1.05,1.4c-.53,1.43.06,2.26,1.43,2.3a3.75,3.75,0,0,0,1.11-.12c2.79-.79,5.63-1.34,8.45-2,.79-.17,1.58-.35,2.35-.59a1.37,1.37,0,0,0,.81-2.21C43.3,253.87,43.06,253.62,42.83,253.32Zm7.4,16.73a1.93,1.93,0,0,0-1.38.6,79.9,79.9,0,0,1-6.7,5.15,5.61,5.61,0,0,0-1.78,1.75,1.63,1.63,0,0,0,.87,2.62,4.21,4.21,0,0,0,3.44-.26,54.69,54.69,0,0,0,9.51-6.2,4.18,4.18,0,0,0,1-1,1.11,1.11,0,0,0-.3-1.63,2.41,2.41,0,0,0-.83-.42A16.85,16.85,0,0,0,50.23,270.05ZM32.37,228.9a6.26,6.26,0,0,0-.88.07,12.09,12.09,0,0,0-5.38,2.46,11.24,11.24,0,0,0-3.52,3.8,3.54,3.54,0,0,0-.55,1.85c0,.55.27.79.82.79a2.27,2.27,0,0,0,.63-.12,10.45,10.45,0,0,0,2.59-1.29,9,9,0,0,1,2.34-1.13,2.67,2.67,0,0,1,2.18.08,2.17,2.17,0,0,0,2.61-.23,6.15,6.15,0,0,0,2.48-4.24,1.22,1.22,0,0,0-.83-1.49A6.68,6.68,0,0,0,32.37,228.9Zm127.54-35.81.32.22c3.05,1.67,6.29,3,9.18,5a.67.67,0,0,0,.61.1,9.12,9.12,0,0,0,4.51-2.68,8.23,8.23,0,0,0,1.54-8,9.16,9.16,0,0,0-1.65-3.32c-.18-.23-.32-.36-.6-.18l-3.17,2a6.12,6.12,0,0,1,.78.57,5.35,5.35,0,0,1,1.69,3.91,5,5,0,0,1-3.32,4.56,4.77,4.77,0,0,1-5.36-.94,7.78,7.78,0,0,1-1.59-2.06c-.32-.54-.33-.53-.92-.25A17.8,17.8,0,0,0,159.91,193.09Zm24.52,158.2a24.64,24.64,0,0,0-.53-3.3,25.11,25.11,0,0,0-2.27-6.68,8.75,8.75,0,0,0-2-2.64c-.74-.62-1.49-.36-1.65.58a7.6,7.6,0,0,0-.06,1.58.71.71,0,0,1-.61.84,1.5,1.5,0,0,0-.93,2.18,7.71,7.71,0,0,0,.49.89c1.53,2.6,3.3,5.05,4.76,7.68a4.07,4.07,0,0,0,.56.75c.77.79,1.53.66,2-.34A3.65,3.65,0,0,0,184.43,351.29ZM120,187.49a7.79,7.79,0,0,0,2.28,5.25,2.37,2.37,0,0,0,1.71.77,8,8,0,0,1,5.14,1.87,1.1,1.1,0,0,0,1,.22,15,15,0,0,0,4.92-1.94c.81-.46.84-.7.21-1.4a2.46,2.46,0,0,0-.4-.39c-.57-.46-.74-.44-1.26.1-.13.13-.26.27-.4.39a5.26,5.26,0,0,1-6,.91,5.64,5.64,0,0,1-2.68-5.55,6.86,6.86,0,0,1,1.12-2.84c.42-.61.4-.62-.17-1.11a6.65,6.65,0,0,0-2.41-1.37.75.75,0,0,0-.83.16A6.21,6.21,0,0,0,120,187.49ZM167.18,361.7a5.2,5.2,0,0,0-.2-1.92c-.67-2.68-1-5.42-1.47-8.14a1.87,1.87,0,0,0-.57-1.24,11.23,11.23,0,0,0-2.19-1.57,2.11,2.11,0,0,0-1-.29c-.61,0-1,.23-1,.83a5.72,5.72,0,0,0,0,1.49,59.54,59.54,0,0,0,2.21,9.41,14.73,14.73,0,0,0,.68,1.93,3,3,0,0,0,1.85,1.72,1.1,1.1,0,0,0,1.45-.65A3,3,0,0,0,167.18,361.7ZM67,285.61a5.92,5.92,0,0,0-4.34,1.7,15.29,15.29,0,0,0-1.78,2.39A14.17,14.17,0,0,1,58.22,293a2,2,0,0,0-.41.51c-.47.77-.21,1.34.67,1.46a3.36,3.36,0,0,0,1.63-.26l3.59-1.35A14.34,14.34,0,0,0,67.85,291a5.36,5.36,0,0,0,1.69-2.42,2.07,2.07,0,0,0-1.25-2.74A3.26,3.26,0,0,0,67,285.61ZM115.45,235a6,6,0,0,0,3.53-1.28.93.93,0,0,0,.43-.68c.13-1.33.11-2.63-1-3.59a1,1,0,0,1-.29-.56,21.41,21.41,0,0,1-.69-3.46,2.2,2.2,0,0,0-.15-.72.87.87,0,0,0-1.32-.56,3,3,0,0,0-1.15.93,11.37,11.37,0,0,0-2,3.84,6.84,6.84,0,0,0-.23,3.48A3,3,0,0,0,115.45,235Zm83.84,102.5a19.46,19.46,0,0,0-.43-4,12.45,12.45,0,0,0-1.92-4.71,4.58,4.58,0,0,0-1.95-1.54,1.12,1.12,0,0,0-1.66.66,8,8,0,0,0-.35,1,7.75,7.75,0,0,0,0,4.4,1.39,1.39,0,0,0,1.21,1.14,1.53,1.53,0,0,1,.94.57,4.07,4.07,0,0,1,.77,1.26c.43,1,.65,2.14,1,3.2a5.31,5.31,0,0,0,.68,1.42c.36.5.81.47,1.11,0a2.91,2.91,0,0,0,.25-.6A8.91,8.91,0,0,0,199.29,337.5ZM140.84,225.08c0-.24,0-.4,0-.55-.12-2.52-1.83-3.48-4-3.12a1.45,1.45,0,0,0-1.23,1.14,10.37,10.37,0,0,0-.4,2.65,18.65,18.65,0,0,0,1.12,6,8.6,8.6,0,0,0,1.34,2.65,1.81,1.81,0,0,0,.61.56c.4.2.64.1.77-.34a2.36,2.36,0,0,0,0-1.39,4.09,4.09,0,0,1,.36-2.71c.17-.49.4-1,.56-1.48A8.79,8.79,0,0,0,140.84,225.08Zm-22.52-1.26a9.44,9.44,0,0,0,1.16,4.7c.36.73.84.75,1.36.14a2.36,2.36,0,0,0,.33-.45,7,7,0,0,1,1.83-2c.37-.28.73-.58,1.09-.88a2.57,2.57,0,0,0,.91-2.58,9.67,9.67,0,0,0-1.23-3.2,1.92,1.92,0,0,0-1.69-1,2.82,2.82,0,0,0-2.72,1.47A6.47,6.47,0,0,0,118.32,223.82Zm30.57,133.93h-.06a9.77,9.77,0,0,0,0-1.21,5.76,5.76,0,0,0-1.57-3.5c-1.07-1.09-2.79-1.23-3.28.85a8.58,8.58,0,0,0,.14,4.24,45.27,45.27,0,0,0,2.72,6.42,2,2,0,0,0,.69.87c.5.34.89.21,1.07-.36a2.83,2.83,0,0,0,.09-1,15.44,15.44,0,0,1-.16-2C148.65,360.59,148.77,359.17,148.89,357.75ZM110.31,221a11.49,11.49,0,0,0,1.06,4.57,1.6,1.6,0,0,0,.6.71c.63.43,1.16.26,1.32-.49a3,3,0,0,1,1.09-1.69c.28-.24.58-.46.87-.7a4.83,4.83,0,0,0,1.3-4.94,2,2,0,0,0-1.51-1.51,3.9,3.9,0,0,0-2.11.14A3.84,3.84,0,0,0,110.31,221Zm80.53-34.24a7.55,7.55,0,0,0,.91-1.82,18,18,0,0,0,1.53-5.84,12.38,12.38,0,0,0-1.54-6.82,1.23,1.23,0,0,1-.05-1.28,4.49,4.49,0,0,0,.1-3.54c-.08-.23-.14-.51-.46-.51s-.43.22-.54.45a1.94,1.94,0,0,0-.22.61c-.12.67-.22,1.34-.3,2a9.51,9.51,0,0,1-.54,2.54,2.55,2.55,0,0,1-2.44,1.7,6.46,6.46,0,0,1-1.61-.18,3.75,3.75,0,0,0,3.31,1.64,1.22,1.22,0,0,1,1.39.92c.09.24.18.47.26.7a16.52,16.52,0,0,1,.48,6.56A17.87,17.87,0,0,0,190.84,186.72Zm-18.35,49.5a4.27,4.27,0,0,0-2.55-4.23,1.49,1.49,0,0,0-2.23,1.06,6,6,0,0,0,0,2.31c.14.88.32,1.76.43,2.65a7.46,7.46,0,0,1-.43,2.92c-.15.51-.42,1.21.19,1.53s1.06-.19,1.48-.55a9.46,9.46,0,0,0,1.94-2.37A7.3,7.3,0,0,0,172.49,236.22ZM120,232.65a3.56,3.56,0,0,0,.79,2.37,1.46,1.46,0,0,0,2.38.36,7,7,0,0,0,1.25-1.5c.39-.56.82-1.1.47-1.86a1.74,1.74,0,0,1,0-.65,16.76,16.76,0,0,1,.21-3.24c.08-.49.18-1.1-.28-1.39s-.93.15-1.3.47a12.66,12.66,0,0,0-2.92,3.35A3.88,3.88,0,0,0,120,232.65Zm-11.55-9.29c-.1.36-.16.56-.2.78a32.54,32.54,0,0,0-.35,6.69,4.76,4.76,0,0,0,.37,1.81,1.29,1.29,0,0,0,1.25.82,2.74,2.74,0,0,0,2.48-2.05,8.84,8.84,0,0,0-.17-3.51,4.8,4.8,0,0,0-1.59-2.87A22.25,22.25,0,0,1,108.45,223.36ZM68.68,203.29l5.53-1a.54.54,0,0,0,.5-.47c0-.25.12-.48.18-.73a91.2,91.2,0,0,1,3.18-10c.05-.13.23-.27,0-.48ZM140,154.12c.8.23,1.49.4,2.16.62s1.11.15,1.65.28c.31.08.46-.08.44-.4,0-.13,0-.25,0-.38q0-4.71,0-9.42c0-.15.11-.37-.18-.47Zm9.31,87.76a3.92,3.92,0,0,0-1.21-2.78c-1-1.23-1.33-1.26-2.49-.22-.09.08-.17.18-.26.26-1,1-.56,3.94.56,4.81a2,2,0,0,0,3.25-.93A3.31,3.31,0,0,0,149.27,241.88Zm8.34,4.89a5.37,5.37,0,0,0-1.56-3.29c-.18-.19-.34-.09-.5,0a12.55,12.55,0,0,0-2.2,1.72,1.53,1.53,0,0,0-.4,1.52,4.12,4.12,0,0,0,1.86,2.57,1.5,1.5,0,0,0,2.34-.65A6.94,6.94,0,0,0,157.61,246.77Zm3.14,4c1.69,0,2.41-1.13,1.7-2.67a9.05,9.05,0,0,0-1.73-2.52c-.24-.23-.41-.29-.71-.05a8.94,8.94,0,0,0-1.78,1.75,1.82,1.82,0,0,0,.12,2.47A3,3,0,0,0,160.75,250.8ZM149,244.68c0,.93,0,1.59.62,1.94a1.72,1.72,0,0,0,1.85-.23,6.17,6.17,0,0,0,1.2-1,2,2,0,0,0,.38-2.4,7.17,7.17,0,0,0-1.05-1.53.54.54,0,0,0-.81-.11A3.89,3.89,0,0,0,149,244.68Zm-3.66-15.6a1.16,1.16,0,0,0,.68-.19,4.14,4.14,0,0,0,1.72-2.22,1.11,1.11,0,0,0-.35-1.33,7.88,7.88,0,0,0-2.3-1.37,1,1,0,0,0-1.53.9,6.55,6.55,0,0,0,.8,3.73A1,1,0,0,0,145.38,229.08Zm4.41-3.24c-.87,0-1.36.37-1.24,1.14a6.91,6.91,0,0,0,.94,2.7,1,1,0,0,0,1.67.3,7.81,7.81,0,0,0,2.25-2.69c.14-.3.25-.59,0-.87s-.56-.19-.87-.14l-.26.08a1.46,1.46,0,0,1-1.49-.18A1.56,1.56,0,0,0,149.79,225.84Zm17.45-33.73a2.54,2.54,0,0,0,2.44-2.12,1.34,1.34,0,0,0-.73-1.38c-.54-.3-1-.5-1.61,0a18.24,18.24,0,0,1-1.58,1.15c-.13.1-.33.17-.35.39A2,2,0,0,0,167.24,192.11ZM129.52,191a2.78,2.78,0,0,0,2.08-1.11.47.47,0,0,0-.07-.66c-.65-.71-1.32-1.41-1.93-2.15-.26-.32-.48-.29-.8-.16a2.15,2.15,0,0,0-1,2.7A1.85,1.85,0,0,0,129.52,191ZM153.7,228a2.69,2.69,0,0,0,1.16,2.37.57.57,0,0,0,.68.06,3.27,3.27,0,0,0,1.58-3,1,1,0,0,0-.56-.91,2.54,2.54,0,0,0-2.17.08A1.3,1.3,0,0,0,153.7,228Zm10.93,4.16a2.1,2.1,0,0,0,2-2,.51.51,0,0,0-.67-.54,1.81,1.81,0,0,1-1.42-.27,5.74,5.74,0,0,1-.88-.68c-.28-.22-.57-.54-1-.27s-.34.63-.31,1a4.68,4.68,0,0,0,.6,1.74A1.76,1.76,0,0,0,164.63,232.18Zm-3.19-3.81a1.39,1.39,0,0,0-.84-1.38,5.74,5.74,0,0,0-1.94-.63c-.71-.08-1,.16-.94.85a5.44,5.44,0,0,0,.56,1.85,1.74,1.74,0,0,0,1.95.93A1.68,1.68,0,0,0,161.44,228.37ZM143.6,239.93a5.65,5.65,0,0,0-1.14-4.28c-.25-.33-.48-.44-.84-.19-.2.15-.43.25-.63.41a1.67,1.67,0,0,0-.05,2.77,3.22,3.22,0,0,0,.62.42A9.49,9.49,0,0,0,143.6,239.93Zm51.79,37.93a18.43,18.43,0,0,0,1.65,2c-.29-1-.47-1.95-.81-2.82A2.75,2.75,0,0,0,195.39,277.86Zm-.26,1.23c0-.36-.22-.47-.38-.65s-.22,0-.3.07-.14.23,0,.31A.86.86,0,0,0,195.13,279.09Z" transform="translate(-21.11 -133.48)"/><path class="cls-5" d="M196.23,321.41c-.41-.22-.39-.6-.35-1,.14-1.42.27-2.84.42-4.26s.34-3,.5-4.44c.34-3.18.71-6.35,1.09-9.53.68-5.65,1.79-11.22,2.8-16.81.55-3,1-6.08,1.39-9.12s.83-6.4,1.16-9.61a20.78,20.78,0,0,1,.6-2.54,25.35,25.35,0,0,0,.52-9,5,5,0,0,1,.08-1.85c.08-.28.17-.49.47-.46.82.09,1.61-.24,2.42-.11.3,1.59.61,3.17.89,4.77.38,2.17.73,4.35,1.09,6.53a47.24,47.24,0,0,1,.59,10.42c-.15,2.66-.49,5.32-.82,8a15.47,15.47,0,0,0,.1,6.39,25.79,25.79,0,0,0,1.69,4.15,11.9,11.9,0,0,1,1.34,6.22c0,.15,0,.32-.19.47a10.71,10.71,0,0,1-1.36-.87,6.07,6.07,0,0,0-1.76-.84c-.53-.13-.75.05-.8.58a2.61,2.61,0,0,0,.27,1.17,44.18,44.18,0,0,0,2.54,5.11c1.64,3,3.31,5.92,4.8,9a31.38,31.38,0,0,1,2,4.93,2.41,2.41,0,0,1,.09,1.1,1.89,1.89,0,0,1-.95-.43,41.11,41.11,0,0,0-8.13-4,26.79,26.79,0,0,0-4.59-1.23,3.47,3.47,0,0,0-2.71,1,17.53,17.53,0,0,0-3.07,3.37C197.63,319.5,196.93,320.46,196.23,321.41Z" transform="translate(-21.11 -133.48)"/><path class="cls-5" d="M72.82,295.31a11.44,11.44,0,0,0,2.35-1.47,1.05,1.05,0,0,1,1.26-.16,125.76,125.76,0,0,1,21.1,12q6.18,4.35,11.91,9.31c2.73,2.36,5.4,4.79,8,7.26,2.91,2.74,5.71,5.58,8.5,8.43,2.57,2.62,5,5.36,7.52,8.05a.38.38,0,0,1,.15.32,12.4,12.4,0,0,1-2.19-.39,19.83,19.83,0,0,0-3.17-.18,2.82,2.82,0,0,1-1-.06c0-.28.2-.38.32-.55a2.09,2.09,0,0,0-.45-3.13,8.31,8.31,0,0,0-2.61-1.43,24.13,24.13,0,0,0-7-1.5,8.06,8.06,0,0,0-3.54.67,18.57,18.57,0,0,0-3.28,1.78c-.15.11-.28.25-.47.25-.24-.17-.17-.4-.17-.6,0-1,0-2,0-3a39.38,39.38,0,0,0-1.34-10.52,14.34,14.34,0,0,0-2-4.21,8,8,0,0,0-7.2-3.56,18.8,18.8,0,0,0-7.08,1.88,36.6,36.6,0,0,0-3.73,1.94.88.88,0,0,1-.53.17,6,6,0,0,1-.06-1.4,30.8,30.8,0,0,0-.9-7.95A12.92,12.92,0,0,0,83.78,301a14.42,14.42,0,0,0-3.89-2.56c-2.22-1-4.58-1.81-6.71-3.06A1.35,1.35,0,0,0,72.82,295.31Z" transform="translate(-21.11 -133.48)"/><path class="cls-5" d="M80.56,178.42c0,.24-.15.39-.29.56-3,3.91-5.82,7.94-8.64,12-3.06,4.35-6.18,8.68-9.24,13a2.21,2.21,0,0,1-1.5.81c.4.66.4.66-.06,1.29-2.86,3.9-5.78,7.74-9,11.38a47.48,47.48,0,0,1-4.82,4.8c-.3.25-.57.59-1,.63-.09-.35.17-.58.32-.84a18.89,18.89,0,0,0,2.45-6.81,17.35,17.35,0,0,0-1.5-9.55c-.12-.28-.36-.52-.26-.87a15.66,15.66,0,0,1,3.61-.27,46,46,0,0,0,5.87-.39,11.57,11.57,0,0,0,4.41-1.4,7.58,7.58,0,0,0,3.43-4.39,19.17,19.17,0,0,0,.49-7.5c-.06-.71-.15-1.42-.27-2.12a1,1,0,0,1,.55-1.14,14.8,14.8,0,0,0,3.12-2.52A2.92,2.92,0,0,0,69,184a1.79,1.79,0,0,0-.7-2.23,10.69,10.69,0,0,0-2.55-1.1c-.06-.17.1-.12.15-.12a48,48,0,0,0,5.23-.21,31.35,31.35,0,0,0,7.94-1.59A2.8,2.8,0,0,1,80.56,178.42Z" transform="translate(-21.11 -133.48)"/><path class="cls-5" d="M206.76,242.19c-1.22-.89-1.21-2.08-.93-3.41a52.53,52.53,0,0,0,1-7.37,30.77,30.77,0,0,0-1-11.57c-.35-1.12-.69-2.26-1.06-3.38a.7.7,0,0,1,.16-.84l4.21-4c.61,1.4,1.22,2.8,1.85,4.19,1,2.22,2,4.42,3.11,6.59a66.17,66.17,0,0,0,3.29,5.87,1.15,1.15,0,0,1,.26.73,6.48,6.48,0,0,0-3.21.17,8.45,8.45,0,0,0-4.26,3.34,19.92,19.92,0,0,0-3.27,8.08A4.62,4.62,0,0,0,206.76,242.19Z" transform="translate(-21.11 -133.48)"/><path class="cls-5" d="M203.62,201.09c-1.45-.06-2.88-.36-4.33-.52-.44,0-.56-.43-.78-.72a25.78,25.78,0,0,1-3.3-6.95q-.94-2.68-1.92-5.35a2,2,0,0,1,.05-1.78,23.05,23.05,0,0,0,1-2.77,3.69,3.69,0,0,0,.16,1.09,51.16,51.16,0,0,0,4.69,10.23c1,1.59,2.16,3.11,3.21,4.68A8.49,8.49,0,0,1,203.62,201.09Z" transform="translate(-21.11 -133.48)"/><path class="cls-5" d="M80.73,178.18c0,.08,0,.17-.11.2C80.56,178.26,80.62,178.21,80.73,178.18Z" transform="translate(-21.11 -133.48)"/><path class="cls-5" d="M45.91,223c0,.11-.13.11-.22.11S45.79,223,45.91,223Z" transform="translate(-21.11 -133.48)"/><path class="cls-5" d="M97.42,220.33l-1.72,3.32a46.74,46.74,0,0,0-4.06,11c1.83-3.68,3.43-7.49,6.54-10.47a1.5,1.5,0,0,1,0,1.12,39.22,39.22,0,0,0-.63,6.3,11.52,11.52,0,0,0,.16,1.76.88.88,0,0,0,1.35.64,1.32,1.32,0,0,0,.73-1.3c0-1.19,0-2.37,0-3.55a56.14,56.14,0,0,1,1.72-14.32,32.45,32.45,0,0,1,6.56-13.19,22.13,22.13,0,0,1,9.64-6.7,12.86,12.86,0,0,1,9.14.29,6.28,6.28,0,0,1,2.56,2,26.47,26.47,0,0,0,2.26,2.6,7.82,7.82,0,0,0,4.6,2.07,6.54,6.54,0,0,0,2.68.05c.45-.13,1.09-.16,1.08-.69s-.65-.44-1.06-.49-.69,0-1,0a6.62,6.62,0,0,1-3.63-1.79c-1-.89-1-2,.24-2.89A11,11,0,0,1,138,194.5a34.46,34.46,0,0,1,6.06-1.05,47.84,47.84,0,0,1,7.57-.11,31.52,31.52,0,0,1,14,3.72,22.21,22.21,0,0,1,7.55,7c2,3,3.77,6.17,5.53,9.33a54.44,54.44,0,0,0,7.61,10.95q2.16,2.31,4.19,4.76a33.49,33.49,0,0,1,5.92,11.58c.36,1.15.66,2.32,1,3.46-.29.21-.47.06-.66,0a12.19,12.19,0,0,1-6.45-5.27,58.93,58.93,0,0,1-5.11-10.58c0-.07-.06-.11-.18-.1a30.94,30.94,0,0,0,4.13,11.39,21.46,21.46,0,0,0,5.47,5.69c1.19.86,2.39,1.7,3.56,2.58a11.09,11.09,0,0,1,4.51,8.73,24.18,24.18,0,0,1-1.7,10.58,23.35,23.35,0,0,1-4.83,7.38,31.3,31.3,0,0,1-8.51,6.34,9.58,9.58,0,0,1-2.73.93,3.18,3.18,0,0,1-1,0,1.64,1.64,0,0,1-1.5-1.64,6.77,6.77,0,0,1,.55-2.91,26.11,26.11,0,0,1,2.12-4.06,19.43,19.43,0,0,0,3-10.34,27.15,27.15,0,0,0-2.11-9.79c-.83-2.13-1.9-4.13-2.92-6.17a15.64,15.64,0,0,1-1.72-7.38,19.74,19.74,0,0,1,.79-4.87c.26-1,.51-1.92.73-2.89a12.55,12.55,0,0,0-1.29-9.11,26.81,26.81,0,0,0-8.27-9c-.15-.12-.3-.32-.6-.26.83.93,1.66,1.8,2.44,2.72a29.61,29.61,0,0,1,4.91,7.58,13.83,13.83,0,0,1,.59,9c-.35,1.39-.73,2.77-.94,4.19-.1.65,0,1.3-.13,2.08a3.74,3.74,0,0,1-.89-2.15,29.64,29.64,0,0,0-.22-3,5.43,5.43,0,0,0-.18-.91c-.24-.79-.62-1.47-1.51-1.61a1.91,1.91,0,0,0-1.94,1,2.32,2.32,0,0,1-.57.81c-2.65-1.87-5.68-3.06-8.53-4.61a16.65,16.65,0,0,1-2.92-2A11.58,11.58,0,0,1,159.9,223a11,11,0,0,1-1-6.55c0-.15,0-.31,0-.46a2.79,2.79,0,0,1,1-2.06,12.12,12.12,0,0,0,2.69-3.1,1.92,1.92,0,0,0,.22-2,1.46,1.46,0,0,1-.15-.63.68.68,0,0,1,.75-.75,2.82,2.82,0,0,1,.64.09,1.27,1.27,0,0,0,1.19-.37,9.81,9.81,0,0,0,1.45-1.94c.76-1.2.72-1.15,1.79-.29a39.5,39.5,0,0,1,6.08,6.46,4.92,4.92,0,0,0-.7-1.4,14.92,14.92,0,0,0-.85-1.23,33.2,33.2,0,0,0-3.64-4.13c-1.59-1.55-3-3.22-4.55-4.84a8.8,8.8,0,0,0-3.07-2.08,21.32,21.32,0,0,0-9.94-1.7,17.83,17.83,0,0,0-4.26,1,23.37,23.37,0,0,1-4.82,1.09,11.05,11.05,0,0,1-2.3-.21,3.9,3.9,0,0,0,1.57.91,10.1,10.1,0,0,0,3.58.53c.95,0,.91,0,1,.9.07,1.26-.4,1.94-1.92,2.12-.52.07-1.06,0-1.61.11.4.12.8.22,1.2.35a12.88,12.88,0,0,1,6.23,4.41c1.14,1.41,2.13,2.92,3.19,4.38a19.81,19.81,0,0,0,2.87,3.19c.25.22.35.38.21.71a5.63,5.63,0,0,0,0,3.67,12.41,12.41,0,0,1,.5,2.65,2.56,2.56,0,0,1-1.29,2.33,5.85,5.85,0,0,1-5.09.74,26.28,26.28,0,0,1-5.67-2.62,14.27,14.27,0,0,1-2.67-1.88,14.5,14.5,0,0,0-5.67-3c-1-.3-.88-.41-.75-1.25A35.1,35.1,0,0,1,138,209a5,5,0,0,0,.41-2.09,1.53,1.53,0,0,0-2.21-1.45,5.91,5.91,0,0,0-2.07,1.41,34.4,34.4,0,0,0-5.7,7.5,1.51,1.51,0,0,1-.46.63,4.68,4.68,0,0,1-2.37-2.72,21.41,21.41,0,0,1-.87-3.53,9.82,9.82,0,0,0-3.21-5.56c-1.55-1.39-3.52-1.38-5.4,0a16.08,16.08,0,0,0-3.78,4.11,34.83,34.83,0,0,0-5.65,14.31c-.37,2.3-.6,4.61-.77,6.94a86.82,86.82,0,0,0-.08,9.81c.16,3.76.36,7.51.84,11.25.19,1.48.27,3,.41,4.45.18,2,.34,3.91.39,5.87a24.25,24.25,0,0,1-.63,6.85,12.4,12.4,0,0,1-5.11,7.36,19.59,19.59,0,0,1-8.87,3.5,11.8,11.8,0,0,1-8.72-2.25A23.06,23.06,0,0,1,78,268a70,70,0,0,1-6.44-15.3,34.05,34.05,0,0,1-1.25-7.53,23.19,23.19,0,0,1,.57-6.65,18.49,18.49,0,0,1,3.36-6.72A59.65,59.65,0,0,1,84,221.73c3.48-2.94,7.12-5.66,10.75-8.39l6.21-4.67a3.11,3.11,0,0,1,.85-.55,1.48,1.48,0,0,1-.17,1,26.18,26.18,0,0,1-4.84,9c-1.75,2.15-3.68,4.14-5.64,6.11a2.14,2.14,0,0,0-.4.49,18.08,18.08,0,0,0,3-1.71,39.45,39.45,0,0,0,3.54-2.89Zm75,6.51a1.43,1.43,0,0,0-1.36-1.38,1.46,1.46,0,0,0-1.37,1.38,1.37,1.37,0,0,0,2.73,0ZM165,222.33a1,1,0,0,0-1.15,1.13,1.15,1.15,0,0,0,1.12,1.3,1.36,1.36,0,0,0,1.3-1.22A1.23,1.23,0,0,0,165,222.33Zm-16.27-5a.92.92,0,0,0-1-1,1,1,0,0,0-1,1.06,1,1,0,1,0,2.05-.11Zm17.79-1.47a1.06,1.06,0,0,0,1,1,1.12,1.12,0,0,0,1-1,1,1,0,0,0-1-1A1,1,0,0,0,166.5,215.83Zm11.76,12.5a.9.9,0,0,0,.92-1,1,1,0,0,0-1-.92,1,1,0,0,0-1,1A.93.93,0,0,0,178.26,228.33ZM151.88,217.1a.91.91,0,0,0,.94-.93,1,1,0,0,0-.87-.93,1,1,0,0,0-1,1A.87.87,0,0,0,151.88,217.1Zm-4.17-3.37a.85.85,0,0,0,.94-.9.93.93,0,0,0-.9-.88.83.83,0,0,0-.91.83A.8.8,0,0,0,147.71,213.73ZM131,201.6a1,1,0,0,0-.93-.88.94.94,0,0,0-.88.92.91.91,0,0,0,1.81,0Zm.25,4a.87.87,0,0,0-.93.92.89.89,0,0,0,.95.81.83.83,0,0,0,.9-.92A.81.81,0,0,0,131.29,205.63ZM128,207.29a.83.83,0,0,0,.8-.84.81.81,0,0,0-.86-.87.84.84,0,0,0-.81.92A.87.87,0,0,0,128,207.29Zm15.64,7.6a.84.84,0,0,0-.81-.85.88.88,0,0,0-.86.91.82.82,0,0,0,.87.78A.79.79,0,0,0,143.64,214.89Zm.57-6.21a.77.77,0,0,0-.79-.84.94.94,0,0,0-.88.91,1,1,0,0,0,.9.8A.77.77,0,0,0,144.21,208.68Zm7.2,11.51a.78.78,0,0,0-.82.81.76.76,0,0,0,.75.78.78.78,0,0,0,.87-.76A.79.79,0,0,0,151.41,220.19Zm20.78-1.39a.83.83,0,0,0-.83-.82.76.76,0,0,0-.77.76.81.81,0,0,0,.76.89A.9.9,0,0,0,172.19,218.8Zm-7.95-2.36a.83.83,0,0,0-.83-.82.82.82,0,0,0,0,1.64A.81.81,0,0,0,164.24,216.44ZM176,222c.5,0,.8-.19.85-.65a.83.83,0,0,0-.71-.93.73.73,0,0,0-.83.69C175.2,221.63,175.44,221.93,176,222Zm-2.54,2.8c.5,0,.76-.26.74-.73a.77.77,0,0,0-.77-.76.72.72,0,0,0-.74.78C172.64,224.53,172.91,224.78,173.41,224.77Zm-5.58-4.86a.68.68,0,0,0-.8.69.77.77,0,0,0,.73.8.74.74,0,0,0,.79-.73A.68.68,0,0,0,167.83,219.91Zm-28.55-7.56a.74.74,0,0,0-1.47,0,.71.71,0,0,0,.7.71A.79.79,0,0,0,139.28,212.35ZM126,200.12a.68.68,0,0,0-.73-.67.63.63,0,0,0-.58.71.6.6,0,0,0,.72.64A.59.59,0,0,0,126,200.12Z" transform="translate(-21.11 -133.48)"/><path class="cls-5" d="M149,313.08l2.32-5.12c1-2.16,1.93-4.32,2.86-6.49a1.39,1.39,0,0,1,1.21-.86A52,52,0,0,0,165,298a41.83,41.83,0,0,0,13.24-7.74,39.5,39.5,0,0,0,4.54-4.7,7,7,0,0,1,2.95-2,32.35,32.35,0,0,0,6.92-3.68.83.83,0,0,1,1,0c1.43.76,2.87,1.5,4.31,2.25a1.3,1.3,0,0,0,.68.21c-.32-1.65-.57-3.27-1-4.85-.28-1.09-.31-2,.7-2.71a5.41,5.41,0,0,0,.78-.92c.11-.14.22-.37.43-.3a.57.57,0,0,1,.41.57,13,13,0,0,1,0,1.77c-.1.69-.08,1.37-.12,2.05a73.65,73.65,0,0,1-3.47,19.13,55.62,55.62,0,0,1-10.3,18.62,3.53,3.53,0,0,1-2.55,1.37,10.93,10.93,0,0,0-6.87,3.26,1.18,1.18,0,0,1-1.15.37,5.26,5.26,0,0,0-4.54,1.23,7.79,7.79,0,0,0-1.77,2.61,11.45,11.45,0,0,0-.61,1.56c-.13.47-.38.57-.82.53A21.52,21.52,0,0,0,161,327a10.42,10.42,0,0,0-8.32,8,2.43,2.43,0,0,1-.31.89,21.77,21.77,0,0,0-3.13-.39,9.34,9.34,0,0,0-6,2.31c-.26.22-.51.46-.78.67a1.18,1.18,0,0,1-1.78-.12c-1-1.09-2-2.11-3-3.21-1.2-1.36-2.56-2.55-3.87-3.79-4.8-4.54-9.94-8.68-15.16-12.73-3.72-2.89-7.48-5.71-11.23-8.56-5.06-3.86-10.09-7.74-14.94-11.86-3.32-2.83-6.54-5.77-9.58-8.91-.78-.81-1.5-1.66-2.3-2.46a1,1,0,0,1-.23-1.08,19.44,19.44,0,0,0,.76-5.15,12.17,12.17,0,0,0-4.87-9.86,15.76,15.76,0,0,0-3.26-2c-.59-.29-.59-.31-.35-.9a9.61,9.61,0,0,0,.79-4.1.45.45,0,0,1,.13-.47L75,266.2a36.27,36.27,0,0,0,4.58,7.26,18.27,18.27,0,0,0,8.52,6,11.24,11.24,0,0,0,3.4.54,1.12,1.12,0,0,1,1,.44,45,45,0,0,0,9,8.4,1.34,1.34,0,0,1,.64,1.22c0,3.28,0,6.56,0,9.83,0,1.47,0,2.93,0,4.4a.78.78,0,0,0,.15.69l2.76-2.17c2.81-2.22,5.63-4.44,8.42-6.68a1.05,1.05,0,0,1,1.19-.17,75,75,0,0,0,16,4.55c2.29.41,4.61.65,6.94.88,1.67.16,3.35,0,5,.26a1,1,0,0,1,.85.58c1.29,2.53,2.6,5,3.9,7.56C147.76,310.84,148.32,311.87,149,313.08Z" transform="translate(-21.11 -133.48)"/><path class="cls-5" d="M120.33,192.43a26.69,26.69,0,0,0-14.49,6.37,45.22,45.22,0,0,0-5.89,5.85,1.75,1.75,0,0,1-.67.58,12.61,12.61,0,0,1,1.27-3.31,29.31,29.31,0,0,1,2.39-3.68,29.06,29.06,0,0,0,4.77-9.87,8.9,8.9,0,0,0,.2-3.22,7.16,7.16,0,0,1,2.1-6.06,29.53,29.53,0,0,1,7.14-5.22,23.66,23.66,0,0,1,5.25-2.18c2.76-.75,4.45.46,5.61,2.35.7,1.14,1.31,2.34,2,3.52a24.08,24.08,0,0,0,10,9.67,8.37,8.37,0,0,0,2.49.77c.48.09.91-.18,1.37-.16,0-.34-.22-.29-.38-.35a8.2,8.2,0,0,1-2.63-1.58,41.41,41.41,0,0,1-9.18-10.26c-.66-1.06-1.41-2.06-2.12-3.09a6.91,6.91,0,0,0-6.78-3.07,13.8,13.8,0,0,0-5.26,1.55,28.93,28.93,0,0,0-9.25,7.6,7.76,7.76,0,0,0-1.58,6.15,6.59,6.59,0,0,1-.6,3.9,66.2,66.2,0,0,1-5.12,8.37c-2.6,3.77-5.28,7.49-7.57,11.47a5.51,5.51,0,0,1-.83,1.37,7.81,7.81,0,0,1,0-2.32,73.62,73.62,0,0,1,5.14-19.05,64.27,64.27,0,0,1,6.18-12,28.67,28.67,0,0,1,10.41-9.58,52,52,0,0,1,8.16-3.68,19.31,19.31,0,0,1,5.68-1,1.82,1.82,0,0,0,.56-.09,10.85,10.85,0,0,0-4.5-.21,23.27,23.27,0,0,0-6,2,12.72,12.72,0,0,1-1.65.63c-.77.22-1,0-1-.73a2.36,2.36,0,0,1,1.07-2,13.85,13.85,0,0,1,2.11-1.37,6.46,6.46,0,0,0,1.22-.87.91.91,0,0,0,.32-.83.73.73,0,0,0-.39-.6c-.3-.14-.47.08-.63.27s-.47.58-.71.87a.85.85,0,0,1-1.09.25,14.26,14.26,0,0,1-4.25-2.67c-.71-.66-.7-.73-.27-1.59a16.34,16.34,0,0,0,1.44-3.74,3.36,3.36,0,0,0-.74-3.14c-.48-.54-.64-.51-.86.15a13.24,13.24,0,0,0-.54,3.31,4.71,4.71,0,0,0,0,.84,4,4,0,0,1-1.56,3.63c-3.8,3-6.47,7-9.27,10.82a27.33,27.33,0,0,1-3.4,4c-1,.92-1.56.91-2.63.1a16,16,0,0,1-4.69-5.51A13.49,13.49,0,0,1,89.07,162a2.39,2.39,0,0,1,1.43-2.81,4.79,4.79,0,0,1,1.78-.52,5.25,5.25,0,0,0,2.25-.84,32.29,32.29,0,0,0,10.46-10c.69-1,1.37-2,2.06-3a4.46,4.46,0,0,1,1.84-1.55,1.85,1.85,0,0,1,2.49.57c3,3.93,6.45,7.51,9.66,11.29a12.06,12.06,0,0,0,7.41,4.19,2.64,2.64,0,0,0,.56,0,1.64,1.64,0,0,0,.84-.1l-3.4-2.22a21.54,21.54,0,0,1,3.37-.67,59.32,59.32,0,0,1,9.61-.42,8.63,8.63,0,0,1,2.19.46,8.38,8.38,0,0,0,2.39.35,9.65,9.65,0,0,1,5.27,1.29,8.28,8.28,0,0,0,4.39,1.09c1.59,0,3.18-.08,4.77.05a16,16,0,0,1,5.76,1.47c.22.11.48.16.58.42-.07.25-.3.29-.48.4a23.66,23.66,0,0,0-4.25,3.2,26.65,26.65,0,0,1-4.68,3.85,13.76,13.76,0,0,1-1.93.94,5.9,5.9,0,0,1-4.53-.42,19.12,19.12,0,0,1-2.46-1.36,4.84,4.84,0,0,0,1.63,2,5.77,5.77,0,0,0,7.26.31c1.11-.81,2.13-1.72,3.16-2.63a22.55,22.55,0,0,1,4.5-3.32,9.41,9.41,0,0,1,4.67-1.11,1.94,1.94,0,0,0,1.49-.59,70.36,70.36,0,0,0,9-10,1.59,1.59,0,0,1,.57-.61c.06,0,.14,0,.16.07a45,45,0,0,1,3.58,8.21,5.39,5.39,0,0,1-.28,4.34,2.66,2.66,0,0,1-2.8,1.41,33.44,33.44,0,0,1-3.72-.86,5,5,0,0,0-5.36,2,11.33,11.33,0,0,0-1.93,3.48c.71-.71,1.27-1.33,1.92-1.86a8.7,8.7,0,0,1,9.57-.78,2.58,2.58,0,0,1,1.24,1.22,1.24,1.24,0,0,1-.83,1.83,4,4,0,0,1-1.76.1,34,34,0,0,0-3.62-.29,7.15,7.15,0,0,0-3.06.71,15.08,15.08,0,0,0-6.53,6,67.17,67.17,0,0,1-3.75,5.92c-.54.68-1.09,1.35-1.61,2.07a8.93,8.93,0,0,0,2.45-1.73,62.36,62.36,0,0,0,4.69-5.32,14.21,14.21,0,0,1,3.62-3.47,13.85,13.85,0,0,1,5.46-1.79,9.67,9.67,0,0,1,6,1.21,9.41,9.41,0,0,1,4.55,6.43,16,16,0,0,1-.77,8.81,26.48,26.48,0,0,1-4.34,7.71c2.05-1,3.35-2.85,4.82-4.57a3.32,3.32,0,0,1,.66,1.43,20,20,0,0,1,.71,3.75,13.56,13.56,0,0,0,1.43,4.71c.44.86.86,1.73,1.3,2.59a9.36,9.36,0,0,1,1.08,4.31,22,22,0,0,1-3,11.61l-.15.23a1.25,1.25,0,0,1-.19.15,1.72,1.72,0,0,1-.49-.93,15.21,15.21,0,0,1-.74-4.68c0-1.72,0-3.44,0-5.15a24.33,24.33,0,0,0-.32-3.9,6.18,6.18,0,0,0-1.9-3.66.87.87,0,0,0-.53-.26,15.22,15.22,0,0,1-1.56,12.55,1.85,1.85,0,0,1-.77-.8,11.86,11.86,0,0,1-1.26-3.31,26.28,26.28,0,0,0-1.9-5.65,9.09,9.09,0,0,0-2-2.57c-.51-.44-.52-.46-.08-1a8.85,8.85,0,0,0,1.13-1.83,2.12,2.12,0,0,0,.21-1.39c-.38.1-.57.41-.8.64a8.94,8.94,0,0,1-2.69,1.82c-.43.21-.75.21-1-.22s-.74-.93-1.1-1.39a.41.41,0,0,1,.06-.64,19.61,19.61,0,0,1,1.79-1.36,8,8,0,0,0,3.14-4.72,11.93,11.93,0,0,0,0-3.91,12.67,12.67,0,0,1-.13-3.79,2.22,2.22,0,0,1,.54-1.17c.45-.44.8-.42,1.12.14a5.4,5.4,0,0,1,.41,1c.21.66.38,1.32.57,2a6.51,6.51,0,0,0,.23.71c.12.31.21.75.58.77s.61-.38.76-.72a5.88,5.88,0,0,0-.44-5.79,2.65,2.65,0,0,0-1.94-1.18,6.63,6.63,0,0,0-2.87.11,18.71,18.71,0,0,0-4.87,2.55c-2.94,2-5.68,4.16-8.6,6.14a27.15,27.15,0,0,1-3.88,2.24,3.83,3.83,0,0,1-1.53.37,2,2,0,0,1-1.68-.84,7,7,0,0,1-1.19-3.58,14.36,14.36,0,0,1,1.34-7.36,42.68,42.68,0,0,1,5.06-8.6c.47-.66,1-1.3,1.54-2.06a1.06,1.06,0,0,0-.64.42,26.21,26.21,0,0,1-3.86,3.1,8.65,8.65,0,0,1-3.72,1.4,6.85,6.85,0,0,1-5-1.5c-.41-.31-.79-.66-1.23-.93a8.57,8.57,0,0,0,4.56,4.4,7.5,7.5,0,0,0,1.25.37c.46.09.53.37.43.75a2.67,2.67,0,0,1-1.71,2.06,2.52,2.52,0,0,1-2.58-.68,14.87,14.87,0,0,1-2-2.31c-1.75-2.27-3.46-4.57-5.31-6.77a54.86,54.86,0,0,0-6.56-6.64,13.34,13.34,0,0,0-2.1-1.46c.9,1.06,1.82,2.1,2.68,3.18,2.13,2.66,4,5.46,6,8.27a81.79,81.79,0,0,0,6.56,8.61c.29.33.61.63.92.93.6.6.47.56.12,1.08a15.65,15.65,0,0,0-1.46,2.38c-.08.18-.17.34-.24.51a3.34,3.34,0,0,0,.26,3.7c-.27.31-.68.29-1,.36a30.67,30.67,0,0,1-6.12.59,12.56,12.56,0,0,1-9.83-4.6c-1-1.14-1.93-2.28-3-3.34a11.57,11.57,0,0,0-4-2.56,16.46,16.46,0,0,0-6.46-1.3,7.08,7.08,0,0,0-6.43,3.79.53.53,0,0,0-.1.49c.22.05.35-.15.51-.25a9.35,9.35,0,0,1,5.89-1.74,3.17,3.17,0,0,1,.74.12c1,.33.92.44.43,1.18a6.9,6.9,0,0,0-.52,6.35A9.36,9.36,0,0,0,120.33,192.43Zm38.89-30.38a6.06,6.06,0,0,0-2.73-.33,18.53,18.53,0,0,0-3.49,1,6.36,6.36,0,0,1-3.18.5,15.28,15.28,0,0,1-4.95-1.9,31.55,31.55,0,0,0-4.5-2.26,11.79,11.79,0,0,0-7.44-.28c.88.14,1.59.21,2.28.36a19.52,19.52,0,0,1,5.49,2.31,50.07,50.07,0,0,0,5.37,2.84,8.47,8.47,0,0,0,7.31,0A27.71,27.71,0,0,1,159.22,162.05Z" transform="translate(-21.11 -133.48)"/><path class="cls-5" d="M176.94,277.28a19.31,19.31,0,0,1-7.47,7.58,25.12,25.12,0,0,1-8.93,2.85,51.6,51.6,0,0,1-9.13.28c-1.11,0-2.22-.22-3.49-.36,2.37-1.26,4.66-2.39,6.21-4.49-.17-.29-.31-.14-.43-.09a30.29,30.29,0,0,1-13.12,2.85,32.74,32.74,0,0,1-15.29-3.66A28.22,28.22,0,0,1,113.91,272a24.76,24.76,0,0,1-3.67-10.68,19.69,19.69,0,0,1,1.12-9.35,21.14,21.14,0,0,1,3.45-5.75,44.44,44.44,0,0,1,9.85-8.81,12,12,0,0,1,7.7-2.13,11.48,11.48,0,0,1,3.51.89,19.8,19.8,0,0,1,6.09,4.1,68.3,68.3,0,0,1,6.72,7.89,58.74,58.74,0,0,0,5.56,6.54,25.76,25.76,0,0,0,7.7,5.36,13.34,13.34,0,0,0,10.79.3,14.43,14.43,0,0,0,2-1.12,10.78,10.78,0,0,1,5.61-1.85,6.36,6.36,0,0,1,6.56,5.66,8.5,8.5,0,0,1-1.74,6.21,19.33,19.33,0,0,1-4.86,4.47,31.5,31.5,0,0,1-15.18,5.34,27.29,27.29,0,0,1-8.73-.54,17.2,17.2,0,0,1-9-5.41,38.87,38.87,0,0,1-6.26-10c-2-4.26-3.54-8.72-5.74-12.89a17.5,17.5,0,0,0-3.14-4.61,9.67,9.67,0,0,0-14.27.82c-.07.09-.13.2-.3.45.85-.11,1.56-.24,2.27-.29a22.17,22.17,0,0,1,7.7.44,10.58,10.58,0,0,1,7.3,6.67,21.37,21.37,0,0,1,.88,2.85,1.91,1.91,0,0,1,.05.92c-.26.17-.4-.05-.55-.18a20.1,20.1,0,0,0-9.73-4.7,11.14,11.14,0,0,0-2.28-.25,1.26,1.26,0,0,0,.55.49,41.46,41.46,0,0,1,8,6.67,73.54,73.54,0,0,1,5.21,6.35,45.74,45.74,0,0,0,13,11.79,25,25,0,0,0,9.59,3.5,24,24,0,0,0,11.29-1.36,40.4,40.4,0,0,0,5.38-2.39C176.56,277.29,176.67,277.15,176.94,277.28Z" transform="translate(-21.11 -133.48)"/><path class="cls-5" d="M55.86,255.62a14.5,14.5,0,0,1-4.12,1.13A7.12,7.12,0,0,0,49.05,258a23.92,23.92,0,0,0-4.5,4.32,6.15,6.15,0,0,1-1.6,1.41,4.83,4.83,0,0,1-4.74.31,9.46,9.46,0,0,1-4.27-3.91c-.41-.65-.37-.74.38-.91,2-.45,4.08-.89,6.11-1.35.76-.17,1.52-.35,2.27-.56a2.49,2.49,0,0,0,1.92-1.72,1.8,1.8,0,0,0-.17-1.53,1.12,1.12,0,0,1,.15-1.49,2.29,2.29,0,0,0,.45-1,2.08,2.08,0,0,0-2-2.59,9.59,9.59,0,0,0-2.62.07,19.66,19.66,0,0,0-6.62,2.71c-.58.35-1.14.72-1.78,1.12a5.42,5.42,0,0,1,.09-1.73,12.09,12.09,0,0,1,3.52-6.57A20.48,20.48,0,0,1,48,238.36a13.77,13.77,0,0,1,4.35.29,15.17,15.17,0,0,1,6.19,2.5,4.82,4.82,0,0,1,2.24,3.31,9.16,9.16,0,0,1-.25,3.25,18.35,18.35,0,0,1-1.21,3.22c-.07.13-.19.26-.09.44.35-.05.42-.4.62-.61.39-.42.67-.49,1.14-.19a31.37,31.37,0,0,1,8.47,7.26,10.19,10.19,0,0,1,2.19,5.67,8.12,8.12,0,0,1-.56,3.29,14.67,14.67,0,0,1-3.37,5,6.14,6.14,0,0,1-2.25,1.31,29.11,29.11,0,0,0-7.32,4.62,21,21,0,0,1-4.06,2.65,3.34,3.34,0,0,1-4.05-.51c-.29-.28-.64-.5-.94-.77s-.36-.42.07-.68c1.17-.72,2.31-1.49,3.41-2.31.82-.61,1.63-1.24,2.44-1.88A3.94,3.94,0,0,0,56,273a2,2,0,0,0-.64-2.71,6.07,6.07,0,0,0-2.35-.86,17.36,17.36,0,0,0-2.88-.29,2.24,2.24,0,0,0-1.55.53q-2.15,1.74-4.3,3.45c-.53.42-.53.41-.89-.17a6.92,6.92,0,0,1-1.09-3.33,3.68,3.68,0,0,1,1-2.66,8.61,8.61,0,0,1,3.91-2.63,14.08,14.08,0,0,0,2.71-1,9.51,9.51,0,0,0,3-3A44.93,44.93,0,0,0,55.86,255.62Zm-8.27-3.49a4.12,4.12,0,0,0,.7-3.17c-.23-1.64-1.42-2.62-2.68-3.57a17.64,17.64,0,0,1,2.52-1.63,10.61,10.61,0,0,0-7.4,2.61C44.35,246.66,47.14,247.91,47.59,252.13Z" transform="translate(-21.11 -133.48)"/><path class="cls-5" d="M168.8,335.14c-.22,2.62-.65,5-.62,7.48a8.47,8.47,0,0,0,1,3.95,13.29,13.29,0,0,1,1.54,4.57,5.16,5.16,0,0,1-2.41,5.36c-.26.17-.54.3-.88.48a13,13,0,0,1-.51-2.54c-.2-1.13-.38-2.27-.57-3.41a1.88,1.88,0,0,0-.53-1.07,10.26,10.26,0,0,0-3-2.09,2.65,2.65,0,0,0-1.08-.27,1.77,1.77,0,0,0-1.79,1.23A5.83,5.83,0,0,0,160,352c.32,1.94.73,3.85,1.24,5.75.17.65.14.67-.54.7-2,.08-2.6-.31-3.29-2.18a27.84,27.84,0,0,1-1.21-5.18,27.48,27.48,0,0,0-1.95-7.18c-1-2.11-.8-4.32-.6-6.53a10.93,10.93,0,0,1,1.21-4.09,8.55,8.55,0,0,1,5.51-4.31,18.32,18.32,0,0,1,7-.51c.42.05,1-.16,1.23.24a3.29,3.29,0,0,1,.28,1.16,1.57,1.57,0,0,0,.1.23,19.45,19.45,0,0,1,1.38-4.64,6.46,6.46,0,0,1,1.53-2.2,4.15,4.15,0,0,1,3.83-.65,11.44,11.44,0,0,1,7.66,5.52,23.2,23.2,0,0,1,3.16,10.53,18,18,0,0,1-.63,6.17,9.29,9.29,0,0,1-1.17,2.62c-.32-1.14-.57-2.08-.87-3a16.68,16.68,0,0,0-2.81-5.56,4.62,4.62,0,0,0-1.33-1.16,1.7,1.7,0,0,0-2.58.93,4.11,4.11,0,0,0-.24,1.66.72.72,0,0,1-.42.73,2.43,2.43,0,0,0-.84,3.56c.92,1.59,1.93,3.13,2.91,4.69.48.76.95,1.53,1.44,2.29.18.29.18.52-.17.67a6.64,6.64,0,0,1-4.53.64,3.89,3.89,0,0,1-2.66-2.66,7.22,7.22,0,0,1-.39-2.76,28.73,28.73,0,0,0-.58-6.21,7,7,0,0,0-1.24-2.69A8.89,8.89,0,0,1,168.8,335.14Zm10.56-4.48c.21.64.43,1.28.62,1.93.28.93.27.94-.73,1a3.89,3.89,0,0,0-3.63,4c.32-.11.44-.43.66-.65a3.53,3.53,0,0,1,4.94-.59l1.46,1A10.53,10.53,0,0,0,179.36,330.66Z" transform="translate(-21.11 -133.48)"/><path class="cls-5" d="M70.54,256c-.43-.14-.58-.48-.8-.73a34.85,34.85,0,0,0-6.89-5.69c-.79-.53-.78-.53-.56-1.45a9,9,0,0,0,0-5.05,7.54,7.54,0,0,0-3.63-4,2.12,2.12,0,0,1-1.15-1.46A13.93,13.93,0,0,0,53.69,231a25,25,0,0,0-4.36-3.65.5.5,0,0,1-.27-.31l2.3-2.52c2.52-2.75,4.94-5.59,7.28-8.49,1.92-2.38,3.81-4.77,5.71-7.15.4-.5.42-.52.92-.1q2.73,2.34,5.44,4.7l1.34,1.16a1,1,0,0,1,.42,1c-.28,2.16-.17,4.34-.34,6.51a15.29,15.29,0,0,0,.06,3.17,32.38,32.38,0,0,1,.09,3.27,10.42,10.42,0,0,0,.11,1.48,2.36,2.36,0,0,1-.46,1.93,17.52,17.52,0,0,0-3,6.79,24.11,24.11,0,0,0-.45,6.51A38,38,0,0,0,70.37,255C70.47,255.3,70.69,255.61,70.54,256Z" transform="translate(-21.11 -133.48)"/><path class="cls-5" d="M84.25,202.13a2.64,2.64,0,0,0,0-.28c-.39-1.35-.4-1.35-1.8-1.09l-4,.73c-.18-2.14,5.24-16.24,7.08-18.43.08.18.17.34.24.52s.17.31.41.23l1.85-.64a.42.42,0,0,0,.23-.38.82.82,0,0,0,.27,0l7.66-2.41a.43.43,0,0,0,.28-.33,6.55,6.55,0,0,0,2.42.69h.31c-.7,1.52-1.42,3-2.09,4.58a89.21,89.21,0,0,0-5,14.66,60.79,60.79,0,0,0-1.41,8.27,10.46,10.46,0,0,0,0,1.77c.1,1.17.89,1.94,2.42,2.3-6.15,4.64-12.26,9.19-17.41,14.88a48.52,48.52,0,0,1,.07-9.23,8.25,8.25,0,0,1,1.5,1.24c.34.29.54.34.84,0s.73-.84,1.13-1.24c.19-.19,0-.33,0-.49.29,0,.42-.23.6-.39,1.15-1.08,2.19-2.25,3.29-3.37a15.24,15.24,0,0,0,2.28-2.4,9.58,9.58,0,0,0,2-.43c.19,0,.06-.19,0-.29.45,0,.39-.25.25-.57-.6-1.31-1.2-2.63-1.76-4A39.47,39.47,0,0,1,84.25,202.13Z" transform="translate(-21.11 -133.48)"/><path class="cls-5" d="M139.12,290.31c-1.51.94-1.52.95-.72,2.49s1.53,2.93,2.29,4.39c.16.3.29.61.51,1.07a74.76,74.76,0,0,1-24.29-4.91l2.56-2.06c1-.79,1-.79.27-1.8-.31-.43-.51-.94-1-1.22a26.42,26.42,0,0,1-1.59-2.18c-1.25-1.69-2.34-3.49-3.66-5.13,0-.61,0-1.22,0-1.83,0-.18,0-.37-.2-.47,0-.31-.09-.36-.38-.29-2,.47-4,.93-6,1.42a15.37,15.37,0,0,0-3,.79c-.54-.48-1,0-1.55.09-.22,0-.15.38-.15.59v3.66c-1-.28-4.9-3.85-6.16-5.66,2.41-.87,4.37-2.5,6.56-3.75a14.28,14.28,0,0,1,3.61-1.5,8.19,8.19,0,0,1,5.51.9,35.64,35.64,0,0,1,5.55,3.44c2.38,1.71,4.78,3.4,7.12,5.15a21.76,21.76,0,0,0,8.14,3.61,58.57,58.57,0,0,0,9,1.57.89.89,0,0,1,.16.09,1.7,1.7,0,0,0-1.07.48A5.52,5.52,0,0,1,139.12,290.31Z" transform="translate(-21.11 -133.48)"/><path class="cls-5" d="M64.45,294.07A21.62,21.62,0,0,0,68.08,292a6.83,6.83,0,0,0,2.3-3,3,3,0,0,0-2.26-4.16A6.42,6.42,0,0,0,61.63,287a22.25,22.25,0,0,0-1.82,2.54c-.34,0-.39-.25-.49-.42a13.28,13.28,0,0,1-1.5-3.51,3.92,3.92,0,0,1,2.92-4.88A9.76,9.76,0,0,0,65.45,278a19.18,19.18,0,0,0,2.93-4.09c.77-1.39,1.37-2.86,2.06-4.35,3.85,1.55,7,3.76,8.43,7.89a10.91,10.91,0,0,1,.28,5.44A17.49,17.49,0,0,1,77.09,289a11.88,11.88,0,0,1-8,5.71A6.77,6.77,0,0,1,64.45,294.07Z" transform="translate(-21.11 -133.48)"/><path class="cls-5" d="M27.11,229.62a14,14,0,0,1,7.36-3.52,23.07,23.07,0,0,1,3.51-.44,16.46,16.46,0,0,1,8.67,2.23,21.63,21.63,0,0,1,7.47,6.5,8.5,8.5,0,0,1,1.39,2.85,2.56,2.56,0,0,1-1.32,0,33.36,33.36,0,0,0-7-.29,10.18,10.18,0,0,0-4.7,1.39,10.81,10.81,0,0,1-1.09.51,1.38,1.38,0,0,1-1.79-.18,1.51,1.51,0,0,0-1.68-.14,15.37,15.37,0,0,0-5.27,2.94A7.28,7.28,0,0,0,31,243.79c-.32.72-.36.72-1.09.33a11.37,11.37,0,0,1-4.77-4.6,2.71,2.71,0,0,1-.2-.42c-.32-.9-.3-.76.39-1.13.93-.5,1.8-1.12,2.77-1.55a2.49,2.49,0,0,1,2.48,0c1.18.68,2.32.13,3.29-.59a7,7,0,0,0,2.77-5.1,2,2,0,0,0-1.25-2,4.47,4.47,0,0,0-1.85-.59,9,9,0,0,0-5.26.93C27.89,229.26,27.5,229.43,27.11,229.62Z" transform="translate(-21.11 -133.48)"/><path class="cls-5" d="M180.71,149.79a6.06,6.06,0,0,1,0-.74,1.89,1.89,0,0,1,2.37-1.75,6.81,6.81,0,0,1,2.25.88q3.06,1.88,6.26,3.53a47.61,47.61,0,0,0,10.26,3.94,6.41,6.41,0,0,1,1.63.68,1,1,0,0,1,.26,1.46,2,2,0,0,1-.45.47c-2,1.45-3.82,3.19-5.81,4.69a8.78,8.78,0,0,1-3.57,1.75,5.09,5.09,0,0,1-2.57-.23,12,12,0,0,1-4.09-2.72c-1.44-1.29-2.91-2.54-4.26-3.93a3.91,3.91,0,0,1-1-1.56A29.16,29.16,0,0,1,180.71,149.79Z" transform="translate(-21.11 -133.48)"/><path class="cls-5" d="M149.62,360.37c0-1.17.23-2.18.17-3.21a7,7,0,0,0-2-4.88,3.51,3.51,0,0,0-1.71-.9,2.33,2.33,0,0,0-2.56,1.29,6.93,6.93,0,0,0-.54,4.46,16,16,0,0,0,1.18,3.82c-.24.23-.43.06-.61,0a6.13,6.13,0,0,1-2.79-2.79,14.25,14.25,0,0,1-1.38-9.15,20.26,20.26,0,0,1,3-7.8,8,8,0,0,1,7.24-3.86,12.9,12.9,0,0,1,2.93.53c.45.12.52.32.42.74a38.82,38.82,0,0,0-1,5.12,15.49,15.49,0,0,0,.64,7.61,8.49,8.49,0,0,0,.56,1.18,4.83,4.83,0,0,1-1.21,6.51A7.33,7.33,0,0,1,149.62,360.37Z" transform="translate(-21.11 -133.48)"/><path class="cls-5" d="M199.21,331.06a12.84,12.84,0,0,0-1.83-3.15,4.22,4.22,0,0,0-3.11-1.66,1.66,1.66,0,0,0-1.6.94,8.87,8.87,0,0,0-.74,6,2.53,2.53,0,0,0,2,2.18c.43.08.61.39.79.72a14.37,14.37,0,0,1,.92,2.55c.13.41.22.84.39,1.24a.68.68,0,0,1-.34,1,7.56,7.56,0,0,1-5.48,1c-.43-.09-.6-.25-.5-.68.65-3-.18-5.73-1.42-8.4-.29-.62-.62-1.24-1.52-1.09-.31.06-.5-.24-.62-.49a6.43,6.43,0,0,1-.46-1.12,13.06,13.06,0,0,0-4.44-6.43c-.81-.69-1.65-1.33-2.49-2-.64-.5-.64-.55,0-1.06a8.09,8.09,0,0,1,2.86-1.35,14.31,14.31,0,0,1,9.67.61,11.12,11.12,0,0,1,4.28,3.53,18.32,18.32,0,0,1,3.56,7.32A2.21,2.21,0,0,1,199.21,331.06Z" transform="translate(-21.11 -133.48)"/><path class="cls-5" d="M200.19,218c0,.11-.13.3-.09.33.36.29.72.7,1.17.69s.4.08.45.37c.17,1.16.28,2.33.37,3.51a68.56,68.56,0,0,1,.14,7.45c-.07,2-.25,4-.42,6.14a8.91,8.91,0,0,1-1.24-1.33c-.51-.55-.52-.56-1.1-.07s-1.14,1-1.71,1.45c-.1.24-.24.43-.55.38a7.2,7.2,0,0,1-1.06-2.13,32.94,32.94,0,0,0-5.75-8.68l-2.15-2.34c-.1-.11-.23-.22-.17-.39a.2.2,0,0,1,.23-.11,1.8,1.8,0,0,0,1.72-1.07,23.64,23.64,0,0,0,2.64-6.36c.18-.72.31-1.45.46-2.18.71.44,1.42.87,2.12,1.32l4.11,2.68A1.31,1.31,0,0,0,200.19,218Z" transform="translate(-21.11 -133.48)"/><path class="cls-2" d="M130,219.18a20.22,20.22,0,0,0-1.58,6.78,36.91,36.91,0,0,0,.25,6.13,3.94,3.94,0,0,1-.13,1.56c-.12.34-.27.68-.63.74s-.69-.2-.92-.53a3.72,3.72,0,0,1-.57-1.36,22.43,22.43,0,0,1,.46-11.78,31.21,31.21,0,0,1,6.46-11.45,16.09,16.09,0,0,1,2.38-2.36,3.06,3.06,0,0,1,.8-.47c.6-.23,1,.09.88.75a9.34,9.34,0,0,1-.44,1.71,33.3,33.3,0,0,0-2,8.41c-.24,2.14-.28,4.28-.41,6.42a49.36,49.36,0,0,0,.1,5,8.75,8.75,0,0,0,1,3.85,1.91,1.91,0,0,1,.15,1.71c-.23.55-.54.63-1,.19A5.51,5.51,0,0,1,134,233c-.11-.23-.18-.46-.28-.71-.29.09-.35.34-.47.53a3.06,3.06,0,0,1-1,1,1.65,1.65,0,0,1-2.4-.62,7,7,0,0,1-.76-2.86,27.83,27.83,0,0,1,.65-9.14c.16-.66.33-1.32.49-2,.22-.12.15-.33.16-.52a.16.16,0,0,0,.11-.21s0,0-.06-.06l-.1.22A.8.8,0,0,0,130,219.18Z" transform="translate(-21.11 -133.48)"/><path class="cls-2" d="M175.14,242.8a17.25,17.25,0,0,1-3,6.55,15,15,0,0,1-1.63,1.93,2.46,2.46,0,0,1-2.57.49,2.11,2.11,0,0,1-.64-3.25c1.22-1.46,2.43-2.92,3.52-4.47a23.17,23.17,0,0,0,4.29-9.63,4.11,4.11,0,0,1,.57-1.37c.19-.34.44-.65.85-.62s.65.48.73.86a11.34,11.34,0,0,1,.26,1.93c.06,1.37.24,2.73.17,4.1a26.18,26.18,0,0,1-2,9.88,6.28,6.28,0,0,1-3.18,3.39,4.52,4.52,0,0,1-.71.23.62.62,0,0,1-.8-.31c-.12-.34-.14-.84.21-1a5.49,5.49,0,0,0,2.17-2.48,13.35,13.35,0,0,0,1.93-6.07c.17-.39.17-.39,0-.87A1.69,1.69,0,0,0,175.14,242.8Z" transform="translate(-21.11 -133.48)"/><path class="cls-2" d="M103.77,280.58a15.37,15.37,0,0,1,3-.79c2-.49,4-1,6-1.42.29-.07.42,0,.38.29-.95,2.09-1.91,4.18-2.85,6.28l-6.57,14.54a1.59,1.59,0,0,1-.17.27c-.21-.17-.13-.39-.13-.58,0-3.24-.06-6.48.09-9.72.11-2.56,0-5.11.1-7.66C103.72,281.39,103.75,281,103.77,280.58Z" transform="translate(-21.11 -133.48)"/><path class="cls-2" d="M113.49,281c1.32,1.64,2.41,3.44,3.66,5.13a26.42,26.42,0,0,0,1.59,2.18c-.1.37-.44.51-.68.74l-5.21,4.82-5.15,4.75-3.16,2.9c-.18.16-.31.4-.59.43-.12-.28,0-.48.15-.7q4.25-9.21,8.5-18.41C112.89,282.18,113.2,281.57,113.49,281Z" transform="translate(-21.11 -133.48)"/><path class="cls-5" d="M155,289.92c.24-.29.59-.19.88-.2,2.3-.08,4.59-.27,6.88-.53a102.06,102.06,0,0,0,11.4-2c1-.23,2-.49,3-.63-5.82,5.73-13,8.78-20.94,10.48a2.51,2.51,0,0,1,.31-1c.58-1.28,1.16-2.55,1.73-3.84.26-.59.25-.65-.34-.92a6,6,0,0,0-2-.84C155.67,290.31,155.27,290.26,155,289.92Z" transform="translate(-21.11 -133.48)"/><path class="cls-2" d="M84.25,202.13a39.47,39.47,0,0,0,1.63,3.92c.56,1.33,1.16,2.65,1.76,4,.14.32.2.54-.25.57L81,209.05l-14.69-3.57-.33-.09a.54.54,0,0,1,.4-.27l11.12-1.9,6-1.05A4.53,4.53,0,0,1,84.25,202.13Z" transform="translate(-21.11 -133.48)"/><path class="cls-2" d="M96.43,180.05a.43.43,0,0,1-.28.33l-7.66,2.41a.82.82,0,0,1-.27,0l-5.37-11.18q-1.32-2.73-2.63-5.47c-.1-.21-.31-.39-.22-.76.78.69,1.51,1.33,2.24,2l9.94,8.88Z" transform="translate(-21.11 -133.48)"/><path class="cls-2" d="M85.36,211.3a15.24,15.24,0,0,1-2.28,2.4c-1.1,1.12-2.14,2.29-3.29,3.37-.18.16-.31.39-.6.39L63.88,206l.06-.14,3.09.76,17.81,4.48C85,211.16,85.19,211.24,85.36,211.3Z" transform="translate(-21.11 -133.48)"/><path class="cls-2" d="M200.19,218a1.31,1.31,0,0,1-.83-.34L195.25,215c-.7-.45-1.41-.88-2.12-1.32-.09-.87.41-1.2,1.17-1.46,4.95-1.74,9.88-3.53,14.81-5.3l3.94-1.42a1.49,1.49,0,0,1,.4,0Z" transform="translate(-21.11 -133.48)"/><path class="cls-2" d="M195.53,202.72c1.46.06,2.92.08,4.38.21.71,0,1.42.07,2.13.12,2.61.18,5.21.34,7.82.49,1.27.08,2.54.14,3.81.2a1.82,1.82,0,0,1,1,.16,23.92,23.92,0,0,1-3,1.1q-8.53,3-17.09,6l-.53.16a1.86,1.86,0,0,1,.05-1.07Z" transform="translate(-21.11 -133.48)"/><path class="cls-2" d="M155,289.92c.24.34.64.39,1,.57a15.18,15.18,0,0,1-1,3.08c-1.84,5.18-3.73,10.34-5.6,15.51a.81.81,0,0,1-.26.38,19.18,19.18,0,0,1-.2-2.25c-.15-2.2-.16-4.41-.28-6.61-.15-2.69-.26-5.39-.4-8.09a22.42,22.42,0,0,0-.19-3,59.09,59.09,0,0,0,6.45.25A1.33,1.33,0,0,1,155,289.92Z" transform="translate(-21.11 -133.48)"/><path class="cls-2" d="M42.83,253.32c.23.3.47.55.65.83a1.37,1.37,0,0,1-.81,2.21c-.77.24-1.56.42-2.35.59-2.82.63-5.66,1.18-8.45,2a3.75,3.75,0,0,1-1.11.12c-1.37,0-2-.87-1.43-2.3a3.25,3.25,0,0,1,1.05-1.4,25.83,25.83,0,0,1,8.57-5,10.35,10.35,0,0,1,3.49-.54c.63,0,1.28.09,1.61.73s0,1.26-.4,1.79C43.4,252.66,43.13,253,42.83,253.32Z" transform="translate(-21.11 -133.48)"/><path class="cls-2" d="M139.12,290.31a5.52,5.52,0,0,0,1.38-1.06,1.7,1.7,0,0,1,1.07-.48c1.63.18,3.26.37,4.9.54.34,0,.48.15.5.51.06,1.68.15,3.35.24,5s.22,3.65.32,5.48c.08,1.48.16,3,.25,4.46.05.94.12,1.88.2,3a1.82,1.82,0,0,1-.56-.78q-3.78-7.5-7.54-15A4.49,4.49,0,0,1,139.12,290.31Z" transform="translate(-21.11 -133.48)"/><path class="cls-2" d="M50.23,270.05a16.85,16.85,0,0,1,3.78.59,2.41,2.41,0,0,1,.83.42,1.11,1.11,0,0,1,.3,1.63,4.18,4.18,0,0,1-1,1,54.69,54.69,0,0,1-9.51,6.2,4.21,4.21,0,0,1-3.44.26,1.63,1.63,0,0,1-.87-2.62,5.61,5.61,0,0,1,1.78-1.75,79.9,79.9,0,0,0,6.7-5.15A1.93,1.93,0,0,1,50.23,270.05Z" transform="translate(-21.11 -133.48)"/><path class="cls-2" d="M32.37,228.9a6.68,6.68,0,0,1,2.49.55,1.22,1.22,0,0,1,.83,1.49,6.15,6.15,0,0,1-2.48,4.24,2.17,2.17,0,0,1-2.61.23,2.67,2.67,0,0,0-2.18-.08,9,9,0,0,0-2.34,1.13,10.45,10.45,0,0,1-2.59,1.29,2.27,2.27,0,0,1-.63.12c-.55,0-.78-.24-.82-.79a3.54,3.54,0,0,1,.55-1.85,11.24,11.24,0,0,1,3.52-3.8A12.09,12.09,0,0,1,31.49,229,6.26,6.26,0,0,1,32.37,228.9Z" transform="translate(-21.11 -133.48)"/><path class="cls-2" d="M159.91,193.09a17.8,17.8,0,0,1,2-1.11c.59-.28.6-.29.92.25a7.78,7.78,0,0,0,1.59,2.06,4.77,4.77,0,0,0,5.36.94,5,5,0,0,0,3.32-4.56,5.35,5.35,0,0,0-1.69-3.91,6.12,6.12,0,0,0-.78-.57l3.17-2c.28-.18.42-.05.6.18a9.16,9.16,0,0,1,1.65,3.32,8.23,8.23,0,0,1-1.54,8,9.12,9.12,0,0,1-4.51,2.68.67.67,0,0,1-.61-.1c-2.89-2-6.13-3.3-9.18-5Z" transform="translate(-21.11 -133.48)"/><path class="cls-2" d="M184.43,351.29a3.65,3.65,0,0,1-.3,1.54c-.44,1-1.2,1.13-2,.34a4.07,4.07,0,0,1-.56-.75c-1.46-2.63-3.23-5.08-4.76-7.68a7.71,7.71,0,0,1-.49-.89,1.5,1.5,0,0,1,.93-2.18.71.71,0,0,0,.61-.84,7.6,7.6,0,0,1,.06-1.58c.16-.94.91-1.2,1.65-.58a8.75,8.75,0,0,1,2,2.64A25.11,25.11,0,0,1,183.9,348,24.64,24.64,0,0,1,184.43,351.29Z" transform="translate(-21.11 -133.48)"/><path class="cls-2" d="M99.16,180.73h-.31c-1.48-1.31-2.95-2.63-4.43-3.93l-7.22-6.33-4.83-4.24a4.81,4.81,0,0,1-.46-.51L86,167c1.07.34,2.12.74,3.2,1a2.66,2.66,0,0,1,1.52,1.1A18.6,18.6,0,0,0,95,173.23l.23.15c1.34.84,2.06.78,3.31-.2.38-.31.62-.77,1.1-1,0,1-.1,2-.19,3-.13,1.5-.13,3-.34,4.51,0,.29-.12.63.15.88A.31.31,0,0,1,99.16,180.73Z" transform="translate(-21.11 -133.48)"/><path class="cls-2" d="M120,187.49a6.21,6.21,0,0,1,2.22-4.93.75.75,0,0,1,.83-.16,6.65,6.65,0,0,1,2.41,1.37c.57.49.59.5.17,1.11a6.86,6.86,0,0,0-1.12,2.84,5.64,5.64,0,0,0,2.68,5.55,5.26,5.26,0,0,0,6-.91c.14-.12.27-.26.4-.39.52-.54.69-.56,1.26-.1a2.46,2.46,0,0,1,.4.39c.63.7.6.94-.21,1.4a15,15,0,0,1-4.92,1.94,1.1,1.1,0,0,1-1-.22,8,8,0,0,0-5.14-1.87,2.37,2.37,0,0,1-1.71-.77A7.79,7.79,0,0,1,120,187.49Z" transform="translate(-21.11 -133.48)"/><path class="cls-2" d="M167.18,361.7a3,3,0,0,1-.25,1.57,1.1,1.1,0,0,1-1.45.65,3,3,0,0,1-1.85-1.72,14.73,14.73,0,0,1-.68-1.93,59.54,59.54,0,0,1-2.21-9.41,5.72,5.72,0,0,1,0-1.49c.07-.6.42-.83,1-.83a2.11,2.11,0,0,1,1,.29,11.23,11.23,0,0,1,2.19,1.57,1.87,1.87,0,0,1,.57,1.24c.46,2.72.8,5.46,1.47,8.14A5.2,5.2,0,0,1,167.18,361.7Z" transform="translate(-21.11 -133.48)"/><path class="cls-2" d="M197.21,236.94c.31.05.45-.14.55-.38.45-.08.68.25.94.51l5.27,5.17q3.38,3.3,6.77,6.57c.49.48,1,.91,1.49,1.42-.08.21-.29.13-.43.19l-12.89-5.09a2.17,2.17,0,0,0,.2-1.8c-.5-1.92-1.05-3.83-1.73-5.69A1.35,1.35,0,0,1,197.21,236.94Z" transform="translate(-21.11 -133.48)"/><path class="cls-2" d="M67,285.61a3.26,3.26,0,0,1,1.33.27,2.07,2.07,0,0,1,1.25,2.74A5.36,5.36,0,0,1,67.85,291a14.34,14.34,0,0,1-4.15,2.27l-3.59,1.35a3.36,3.36,0,0,1-1.63.26c-.88-.12-1.14-.69-.67-1.46a2,2,0,0,1,.41-.51,14.17,14.17,0,0,0,2.62-3.25,15.29,15.29,0,0,1,1.78-2.39A5.92,5.92,0,0,1,67,285.61Z" transform="translate(-21.11 -133.48)"/><path class="cls-2" d="M115.45,235a3,3,0,0,1-2.92-2.6,6.84,6.84,0,0,1,.23-3.48,11.37,11.37,0,0,1,2-3.84,3,3,0,0,1,1.15-.93.87.87,0,0,1,1.32.56,2.2,2.2,0,0,1,.15.72,21.41,21.41,0,0,0,.69,3.46,1,1,0,0,0,.29.56c1.12,1,1.14,2.26,1,3.59a.93.93,0,0,1-.43.68A6,6,0,0,1,115.45,235Z" transform="translate(-21.11 -133.48)"/><path class="cls-2" d="M199.29,337.5a8.91,8.91,0,0,1-.4,2.75,2.91,2.91,0,0,1-.25.6c-.3.51-.75.54-1.11,0a5.31,5.31,0,0,1-.68-1.42c-.35-1.06-.57-2.17-1-3.2a4.07,4.07,0,0,0-.77-1.26,1.53,1.53,0,0,0-.94-.57,1.39,1.39,0,0,1-1.21-1.14,7.75,7.75,0,0,1,0-4.4,8,8,0,0,1,.35-1,1.12,1.12,0,0,1,1.66-.66,4.58,4.58,0,0,1,1.95,1.54,12.45,12.45,0,0,1,1.92,4.71A19.46,19.46,0,0,1,199.29,337.5Z" transform="translate(-21.11 -133.48)"/><path class="cls-2" d="M140.84,225.08a8.79,8.79,0,0,1-.82,3.42c-.16.51-.39,1-.56,1.48a4.09,4.09,0,0,0-.36,2.71,2.36,2.36,0,0,1,0,1.39c-.13.44-.37.54-.77.34a1.81,1.81,0,0,1-.61-.56,8.6,8.6,0,0,1-1.34-2.65,18.65,18.65,0,0,1-1.12-6,10.37,10.37,0,0,1,.4-2.65,1.45,1.45,0,0,1,1.23-1.14c2.14-.36,3.85.6,4,3.12C140.85,224.68,140.84,224.84,140.84,225.08Z" transform="translate(-21.11 -133.48)"/><path class="cls-2" d="M118.32,223.82a6.47,6.47,0,0,1,1-3.74,2.82,2.82,0,0,1,2.72-1.47,1.92,1.92,0,0,1,1.69,1,9.67,9.67,0,0,1,1.23,3.2,2.57,2.57,0,0,1-.91,2.58c-.36.3-.72.6-1.09.88a7,7,0,0,0-1.83,2,2.36,2.36,0,0,1-.33.45c-.52.61-1,.59-1.36-.14A9.44,9.44,0,0,1,118.32,223.82Z" transform="translate(-21.11 -133.48)"/><path class="cls-2" d="M148.89,357.75c-.12,1.42-.24,2.84-.37,4.26a15.44,15.44,0,0,0,.16,2,2.83,2.83,0,0,1-.09,1c-.18.57-.57.7-1.07.36a2,2,0,0,1-.69-.87,45.27,45.27,0,0,1-2.72-6.42,8.58,8.58,0,0,1-.14-4.24c.49-2.08,2.21-1.94,3.28-.85a5.76,5.76,0,0,1,1.57,3.5,9.77,9.77,0,0,1,0,1.21Z" transform="translate(-21.11 -133.48)"/><path class="cls-5" d="M195.53,202.72l-1.44,7.34a1.86,1.86,0,0,0-.05,1.07c-.11.18-.32.17-.53.28a1.55,1.55,0,0,1-.08-.9,13,13,0,0,0-1.81-7.3,15,15,0,0,1-1.85-4.47c-.24-1.25-.39-2.51-.61-3.77-.09-.57-.25-1.14-.42-1.93a10.85,10.85,0,0,1,1.41,1.32,47,47,0,0,1,4.87,6.12,2.24,2.24,0,0,1,.44,1.92C195.42,202.53,195.41,202.63,195.53,202.72Z" transform="translate(-21.11 -133.48)"/><path class="cls-2" d="M110.31,221a3.84,3.84,0,0,1,2.62-3.91,3.9,3.9,0,0,1,2.11-.14,2,2,0,0,1,1.51,1.51,4.83,4.83,0,0,1-1.3,4.94c-.29.24-.59.46-.87.7a3,3,0,0,0-1.09,1.69c-.16.75-.69.92-1.32.49a1.6,1.6,0,0,1-.6-.71A11.49,11.49,0,0,1,110.31,221Z" transform="translate(-21.11 -133.48)"/><path class="cls-5" d="M190.84,186.72a17.87,17.87,0,0,1,.28-2.85,16.52,16.52,0,0,0-.48-6.56c-.08-.23-.17-.46-.26-.7a1.22,1.22,0,0,0-1.39-.92,3.75,3.75,0,0,1-3.31-1.64,6.46,6.46,0,0,0,1.61.18,2.55,2.55,0,0,0,2.44-1.7,9.51,9.51,0,0,0,.54-2.54c.08-.68.18-1.35.3-2a1.94,1.94,0,0,1,.22-.61c.11-.23.25-.46.54-.45s.38.28.46.51a4.49,4.49,0,0,1-.1,3.54,1.23,1.23,0,0,0,.05,1.28,12.38,12.38,0,0,1,1.54,6.82,18,18,0,0,1-1.53,5.84A7.55,7.55,0,0,1,190.84,186.72Z" transform="translate(-21.11 -133.48)"/><path class="cls-2" d="M172.49,236.22a7.3,7.3,0,0,1-1.18,3.32,9.46,9.46,0,0,1-1.94,2.37c-.42.36-.92.85-1.48.55s-.34-1-.19-1.53a7.46,7.46,0,0,0,.43-2.92c-.11-.89-.29-1.77-.43-2.65a6,6,0,0,1,0-2.31,1.49,1.49,0,0,1,2.23-1.06A4.27,4.27,0,0,1,172.49,236.22Z" transform="translate(-21.11 -133.48)"/><path class="cls-2" d="M120,232.65a3.88,3.88,0,0,1,.57-2.09,12.66,12.66,0,0,1,2.92-3.35c.37-.32.81-.77,1.3-.47s.36.9.28,1.39a16.76,16.76,0,0,0-.21,3.24,1.74,1.74,0,0,0,0,.65c.35.76-.08,1.3-.47,1.86a7,7,0,0,1-1.25,1.5,1.46,1.46,0,0,1-2.38-.36A3.56,3.56,0,0,1,120,232.65Z" transform="translate(-21.11 -133.48)"/><path class="cls-2" d="M108.45,223.36a22.25,22.25,0,0,0,1.79,1.67,4.8,4.8,0,0,1,1.59,2.87,8.84,8.84,0,0,1,.17,3.51,2.74,2.74,0,0,1-2.48,2.05,1.29,1.29,0,0,1-1.25-.82,4.76,4.76,0,0,1-.37-1.81,32.54,32.54,0,0,1,.35-6.69C108.29,223.92,108.35,223.72,108.45,223.36Z" transform="translate(-21.11 -133.48)"/><path class="cls-5" d="M68.68,203.29l9.42-12.71c.2.21,0,.35,0,.48a91.2,91.2,0,0,0-3.18,10c-.06.25-.14.48-.18.73a.54.54,0,0,1-.5.47Z" transform="translate(-21.11 -133.48)"/><path class="cls-2" d="M140,154.12l4.07-9.77c.29.1.18.32.18.47q0,4.71,0,9.42c0,.13,0,.25,0,.38,0,.32-.13.48-.44.4-.54-.13-1.11-.1-1.65-.28S140.76,154.35,140,154.12Z" transform="translate(-21.11 -133.48)"/><path class="cls-2" d="M149.27,241.88a3.31,3.31,0,0,1-.15,1.14,2,2,0,0,1-3.25.93c-1.12-.87-1.57-3.84-.56-4.81.09-.08.17-.18.26-.26,1.16-1,1.51-1,2.49.22A3.92,3.92,0,0,1,149.27,241.88Z" transform="translate(-21.11 -133.48)"/><path class="cls-2" d="M157.61,246.77a6.94,6.94,0,0,1-.46,1.89,1.5,1.5,0,0,1-2.34.65,4.12,4.12,0,0,1-1.86-2.57,1.53,1.53,0,0,1,.4-1.52,12.55,12.55,0,0,1,2.2-1.72c.16-.11.32-.21.5,0A5.37,5.37,0,0,1,157.61,246.77Z" transform="translate(-21.11 -133.48)"/><path class="cls-2" d="M145.51,146.29c1.48,3.32,3,6.63,4.51,10.09l-1.48-.66a7.47,7.47,0,0,0-2.51-.62c-.25,0-.67.12-.74-.35,0-.31.05-.61.05-.92,0-2.22,0-4.45,0-6.67C145.36,146.87,145.22,146.54,145.51,146.29Z" transform="translate(-21.11 -133.48)"/><path class="cls-2" d="M160.75,250.8a3,3,0,0,1-2.4-1,1.82,1.82,0,0,1-.12-2.47,8.94,8.94,0,0,1,1.78-1.75c.3-.24.47-.18.71.05a9.05,9.05,0,0,1,1.73,2.52C163.16,249.67,162.44,250.8,160.75,250.8Z" transform="translate(-21.11 -133.48)"/><path class="cls-5" d="M99.22,180.57c-.27-.25-.19-.59-.15-.88.21-1.49.21-3,.34-4.51.09-1,.16-2,.19-3,0-.18.16-.26.25-.38.24-.3.46-.34.78-.07.79.65,1.6,1.28,2.41,1.91.21.16.37.31.16.61a55.84,55.84,0,0,0-3.9,6.25S99.25,180.56,99.22,180.57Z" transform="translate(-21.11 -133.48)"/><path class="cls-2" d="M149,244.68a3.89,3.89,0,0,1,2.19-3.35.54.54,0,0,1,.81.11,7.17,7.17,0,0,1,1.05,1.53,2,2,0,0,1-.38,2.4,6.17,6.17,0,0,1-1.2,1,1.72,1.72,0,0,1-1.85.23C149,246.27,149,245.61,149,244.68Z" transform="translate(-21.11 -133.48)"/><path class="cls-2" d="M145.38,229.08a1,1,0,0,1-1-.48,6.55,6.55,0,0,1-.8-3.73,1,1,0,0,1,1.53-.9,7.88,7.88,0,0,1,2.3,1.37,1.11,1.11,0,0,1,.35,1.33,4.14,4.14,0,0,1-1.72,2.22A1.16,1.16,0,0,1,145.38,229.08Z" transform="translate(-21.11 -133.48)"/><path class="cls-2" d="M200.73,247.23l9.54,3.69s0,.05,0,.13c-.66,0-1.33.09-2,.12l-4.38.19a.59.59,0,0,1-.66-.37,11.78,11.78,0,0,0-2.66-3.56Z" transform="translate(-21.11 -133.48)"/><path class="cls-2" d="M149.79,225.84a1.56,1.56,0,0,1,1,.34,1.46,1.46,0,0,0,1.49.18l.26-.08c.31-.05.64-.16.87.14s.11.57,0,.87a7.81,7.81,0,0,1-2.25,2.69,1,1,0,0,1-1.67-.3,6.91,6.91,0,0,1-.94-2.7C148.43,226.21,148.92,225.81,149.79,225.84Z" transform="translate(-21.11 -133.48)"/><path class="cls-2" d="M167.24,192.11a2,2,0,0,1-1.83-2c0-.22.22-.29.35-.39a18.24,18.24,0,0,0,1.58-1.15c.57-.51,1.07-.31,1.61,0a1.34,1.34,0,0,1,.73,1.38A2.54,2.54,0,0,1,167.24,192.11Z" transform="translate(-21.11 -133.48)"/><path class="cls-2" d="M129.52,191a1.85,1.85,0,0,1-1.75-1.38,2.15,2.15,0,0,1,1-2.7c.32-.13.54-.16.8.16.61.74,1.28,1.44,1.93,2.15a.47.47,0,0,1,.07.66A2.78,2.78,0,0,1,129.52,191Z" transform="translate(-21.11 -133.48)"/><path class="cls-2" d="M153.7,228a1.3,1.3,0,0,1,.69-1.37,2.54,2.54,0,0,1,2.17-.08,1,1,0,0,1,.56.91,3.27,3.27,0,0,1-1.58,3,.57.57,0,0,1-.68-.06A2.69,2.69,0,0,1,153.7,228Z" transform="translate(-21.11 -133.48)"/><path class="cls-2" d="M164.63,232.18a1.76,1.76,0,0,1-1.68-1,4.68,4.68,0,0,1-.6-1.74c0-.37-.06-.77.31-1s.71.05,1,.27a5.74,5.74,0,0,0,.88.68,1.81,1.81,0,0,0,1.42.27.51.51,0,0,1,.67.54A2.1,2.1,0,0,1,164.63,232.18Z" transform="translate(-21.11 -133.48)"/><path class="cls-2" d="M161.44,228.37a1.68,1.68,0,0,1-1.21,1.62,1.74,1.74,0,0,1-1.95-.93,5.44,5.44,0,0,1-.56-1.85c-.05-.69.23-.93.94-.85a5.74,5.74,0,0,1,1.94.63A1.39,1.39,0,0,1,161.44,228.37Z" transform="translate(-21.11 -133.48)"/><path class="cls-2" d="M143.6,239.93a9.49,9.49,0,0,1-2-.87,3.22,3.22,0,0,1-.62-.42,1.67,1.67,0,0,1,.05-2.77c.2-.16.43-.26.63-.41.36-.25.59-.14.84.19A5.65,5.65,0,0,1,143.6,239.93Z" transform="translate(-21.11 -133.48)"/><path class="cls-5" d="M145.51,146.29c-.29.25-.15.58-.16.87,0,2.22,0,4.45,0,6.67,0,.31,0,.61-.05.92a2.05,2.05,0,0,1-.08-.92c0-2.21,0-4.41,0-6.62,0-.45,0-.9-.06-1.48C145.41,145.91,145.52,146.06,145.51,146.29Z" transform="translate(-21.11 -133.48)"/><path class="cls-5" d="M211.8,250.42c.14-.06.35,0,.43-.19a.61.61,0,0,1,.42.49A1.26,1.26,0,0,1,211.8,250.42Z" transform="translate(-21.11 -133.48)"/><path class="cls-5" d="M175.14,242.8a1.69,1.69,0,0,1,.19-.73c.14.48.14.48,0,.87Z" transform="translate(-21.11 -133.48)"/><path class="cls-5" d="M200.73,247.23l-.16.2s-.12,0-.16-.08-.22-.21-.2-.24.21-.1.32-.05A1,1,0,0,1,200.73,247.23Z" transform="translate(-21.11 -133.48)"/><path class="cls-5" d="M130.36,218.62c0,.19.06.4-.16.52l-.23,0a.8.8,0,0,1,.34-.61Z" transform="translate(-21.11 -133.48)"/><path class="cls-5" d="M97.24,220.15c.1-.18.19-.37.49-.41a.7.7,0,0,1-.31.59Z" transform="translate(-21.11 -133.48)"/><path class="cls-4" d="M172.44,226.84a1.37,1.37,0,0,1-2.73,0,1.46,1.46,0,0,1,1.37-1.38A1.43,1.43,0,0,1,172.44,226.84Z" transform="translate(-21.11 -133.48)"/><path class="cls-4" d="M165,222.33a1.23,1.23,0,0,1,1.27,1.21,1.36,1.36,0,0,1-1.3,1.22,1.15,1.15,0,0,1-1.12-1.3A1,1,0,0,1,165,222.33Z" transform="translate(-21.11 -133.48)"/><path class="cls-4" d="M148.71,217.3a1,1,0,1,1-2.05.11,1,1,0,0,1,1-1.06A.92.92,0,0,1,148.71,217.3Z" transform="translate(-21.11 -133.48)"/><path class="cls-4" d="M166.5,215.83a1,1,0,0,1,1-1,1,1,0,0,1,1,1,1.12,1.12,0,0,1-1,1A1.06,1.06,0,0,1,166.5,215.83Z" transform="translate(-21.11 -133.48)"/><path class="cls-4" d="M178.26,228.33a.93.93,0,0,1-1-.83,1,1,0,0,1,1-1,1,1,0,0,1,1,.92A.9.9,0,0,1,178.26,228.33Z" transform="translate(-21.11 -133.48)"/><path class="cls-4" d="M151.88,217.1a.87.87,0,0,1-.92-.85,1,1,0,0,1,1-1,1,1,0,0,1,.87.93A.91.91,0,0,1,151.88,217.1Z" transform="translate(-21.11 -133.48)"/><path class="cls-4" d="M147.71,213.73a.8.8,0,0,1-.87-.95.83.83,0,0,1,.91-.83.93.93,0,0,1,.9.88A.85.85,0,0,1,147.71,213.73Z" transform="translate(-21.11 -133.48)"/><path class="cls-4" d="M131,201.6a.91.91,0,0,1-1.81,0,.94.94,0,0,1,.88-.92A1,1,0,0,1,131,201.6Z" transform="translate(-21.11 -133.48)"/><path class="cls-4" d="M131.29,205.63a.81.81,0,0,1,.92.81.83.83,0,0,1-.9.92.89.89,0,0,1-.95-.81A.87.87,0,0,1,131.29,205.63Z" transform="translate(-21.11 -133.48)"/><path class="cls-4" d="M128,207.29a.87.87,0,0,1-.87-.79.84.84,0,0,1,.81-.92.81.81,0,0,1,.86.87A.83.83,0,0,1,128,207.29Z" transform="translate(-21.11 -133.48)"/><path class="cls-4" d="M143.64,214.89a.79.79,0,0,1-.8.84A.82.82,0,0,1,142,215a.88.88,0,0,1,.86-.91A.84.84,0,0,1,143.64,214.89Z" transform="translate(-21.11 -133.48)"/><path class="cls-4" d="M144.21,208.68a.77.77,0,0,1-.77.87,1,1,0,0,1-.9-.8.94.94,0,0,1,.88-.91A.77.77,0,0,1,144.21,208.68Z" transform="translate(-21.11 -133.48)"/><path class="cls-4" d="M151.41,220.19a.79.79,0,0,1,.8.83.78.78,0,0,1-.87.76.76.76,0,0,1-.75-.78A.78.78,0,0,1,151.41,220.19Z" transform="translate(-21.11 -133.48)"/><path class="cls-4" d="M172.19,218.8a.9.9,0,0,1-.84.83.81.81,0,0,1-.76-.89.76.76,0,0,1,.77-.76A.83.83,0,0,1,172.19,218.8Z" transform="translate(-21.11 -133.48)"/><path class="cls-4" d="M164.24,216.44a.81.81,0,0,1-.81.82.82.82,0,0,1,0-1.64A.83.83,0,0,1,164.24,216.44Z" transform="translate(-21.11 -133.48)"/><path class="cls-4" d="M176,222c-.51,0-.75-.34-.69-.89a.73.73,0,0,1,.83-.69.83.83,0,0,1,.71.93C176.75,221.78,176.45,222,176,222Z" transform="translate(-21.11 -133.48)"/><path class="cls-4" d="M173.41,224.77c-.5,0-.77-.24-.77-.71a.72.72,0,0,1,.74-.78.77.77,0,0,1,.77.76C174.17,224.51,173.91,224.76,173.41,224.77Z" transform="translate(-21.11 -133.48)"/><path class="cls-4" d="M167.83,219.91a.68.68,0,0,1,.72.76.74.74,0,0,1-.79.73.77.77,0,0,1-.73-.8A.68.68,0,0,1,167.83,219.91Z" transform="translate(-21.11 -133.48)"/><path class="cls-4" d="M139.28,212.35a.79.79,0,0,1-.77.75.71.71,0,0,1-.7-.71.74.74,0,0,1,1.47,0Z" transform="translate(-21.11 -133.48)"/><path class="cls-4" d="M126,200.12a.59.59,0,0,1-.59.68.6.6,0,0,1-.72-.64.63.63,0,0,1,.58-.71A.68.68,0,0,1,126,200.12Z" transform="translate(-21.11 -133.48)"/><path class="cls-4" d="M159.22,162.05a27.71,27.71,0,0,0-5.84,2.26,8.47,8.47,0,0,1-7.31,0,50.07,50.07,0,0,1-5.37-2.84,19.52,19.52,0,0,0-5.49-2.31c-.69-.15-1.4-.22-2.28-.36a11.79,11.79,0,0,1,7.44.28,31.55,31.55,0,0,1,4.5,2.26,15.28,15.28,0,0,0,4.95,1.9,6.36,6.36,0,0,0,3.18-.5,18.53,18.53,0,0,1,3.49-1A6.06,6.06,0,0,1,159.22,162.05Z" transform="translate(-21.11 -133.48)"/><path class="cls-4" d="M47.59,252.13c-.45-4.22-3.24-5.47-6.86-5.76a10.61,10.61,0,0,1,7.4-2.61,17.64,17.64,0,0,0-2.52,1.63c1.26,1,2.45,1.93,2.68,3.57A4.12,4.12,0,0,1,47.59,252.13Z" transform="translate(-21.11 -133.48)"/><path class="cls-4" d="M179.36,330.66a10.53,10.53,0,0,1,3.32,6.64l-1.46-1a3.53,3.53,0,0,0-4.94.59c-.22.22-.34.54-.66.65a3.89,3.89,0,0,1,3.63-4c1,0,1,0,.73-1C179.79,331.94,179.57,331.3,179.36,330.66Z" transform="translate(-21.11 -133.48)"/><path class="cls-5" d="M130.31,218.57l.1-.22s.05,0,.06.06a.16.16,0,0,1-.11.21Z" transform="translate(-21.11 -133.48)"/></g></svg>