<svg id="Layer_1" data-name="Layer 1" xmlns="http://www.w3.org/2000/svg" viewBox="0 0 779.16 210"><defs><style>.cls-1{fill:#fff;}.cls-2{fill:#b6ccd6;}.cls-3,.cls-6,.cls-7{fill:none;}.cls-3,.cls-6{stroke:#fff;}.cls-3,.cls-4,.cls-6,.cls-7,.cls-8{stroke-miterlimit:10;}.cls-3{stroke-width:2.65px;}.cls-4{fill:#f2652a;stroke-width:0.06px;}.cls-4,.cls-8{stroke:#f2652a;}.cls-5,.cls-8{fill:#0030a1;}.cls-6{stroke-width:2.33px;}.cls-7{stroke:#0030a1;stroke-width:1.17px;}.cls-8{stroke-width:2.81px;}</style></defs><path class="cls-1" d="M215.42,355a105,105,0,1,1,105-105A105.12,105.12,0,0,1,215.42,355Zm0-203.24A98.24,98.24,0,1,0,313.66,250,98.35,98.35,0,0,0,215.42,151.76Z" transform="translate(-110.42 -145)"/><circle class="cls-2" cx="105" cy="105" r="88.06"/><path class="cls-1" d="M351.47,172.14a94.77,94.77,0,0,1,19.9-2c11.05,0,19.71,3,25.05,8.33,4.79,4.77,7.64,11.6,7.64,20.41s-2.25,15-6.45,20.1c-6.19,7.81-16.7,11.87-28.47,11.87a40,40,0,0,1-10.59-1v44.43h-7.08Zm7.08,51.53a39.66,39.66,0,0,0,10.85,1.19c16.71,0,27.43-8.64,27.43-25.41,0-14.9-9.68-23.3-25.83-23.3a61.94,61.94,0,0,0-12.45,1.09Z" transform="translate(-110.42 -145)"/><path class="cls-1" d="M427.65,170.85V274.34h-7.08V170.85Z" transform="translate(-110.42 -145)"/><path class="cls-1" d="M449.44,274.34V170.85h6.84l34.51,58.84c7.4,13,13.25,23.87,18,34.69l.31-.16c-1.08-15.62-1.16-27-1.16-43.58V170.85h6.86V274.34H508l-34.29-59c-6.78-11.76-13-22.66-18-34.72l-.39.16c.91,13.72,1,24.92,1,43.85v49.73Z" transform="translate(-110.42 -145)"/><path class="cls-1" d="M580.75,222.9H543.59v45.36h41.8v6.08H536.5V170.85h46.57v6.08H543.59v39.89h37.16Z" transform="translate(-110.42 -145)"/><path class="cls-1" d="M629.4,170.85h7.09v97.49H678v6H629.4Z" transform="translate(-110.42 -145)"/><path class="cls-1" d="M702.42,238.31l-11.43,36h-7.18l33.53-103.49h6.86l33.5,103.49h-7.32l-11.59-36Zm34.35-6-10.8-33c-2.32-7.42-3.7-13.26-5.17-19.86h-.45c-1.39,6.75-3,12.82-5.1,19.69l-10.8,33.13Z" transform="translate(-110.42 -145)"/><path class="cls-1" d="M771.59,170.85h7.09v52h.47c2.92-4.14,5.79-7.81,8.34-11.17L820,170.85h8.57L793,214.7l38.44,59.64h-8.35L788.1,219.9l-9.42,11.39v43h-7.09Z" transform="translate(-110.42 -145)"/><path class="cls-1" d="M884.94,222.9H847.78v45.36h41.8v6.08H840.69V170.85h46.57v6.08H847.78v39.89h37.16Z" transform="translate(-110.42 -145)"/><path class="cls-1" d="M481.08,311.2c-.14-3.63-.27-7.94-.26-12.33h-.12c-1,3.83-2.21,8.09-3.34,11.62l-3.67,11.68h-5.26l-3.23-11.58c-1-3.52-2-7.78-2.7-11.72h-.09c-.15,4.07-.32,8.69-.5,12.42l-.56,11.37h-6.26l1.92-30h9l2.92,10c.95,3.43,1.87,7.2,2.54,10.71h.15c.81-3.47,1.83-7.42,2.84-10.76l3.19-10h8.85l1.61,30h-6.58Z" transform="translate(-110.42 -145)"/><path class="cls-1" d="M500.14,292.71v30h-6.78v-30Z" transform="translate(-110.42 -145)"/><path class="cls-1" d="M506,293.12a60.13,60.13,0,0,1,9.13-.64c5.68,0,9.39,1,12.26,3.21,3.11,2.32,5.06,6,5.06,11.27,0,5.74-2.07,9.71-5,12.13-3.15,2.63-8,3.88-13.81,3.88a57.05,57.05,0,0,1-7.69-.44Zm6.76,24.44a15.19,15.19,0,0,0,2.36.12c6.13.05,10.17-3.34,10.17-10.5,0-6.22-3.63-9.49-9.45-9.49a14.23,14.23,0,0,0-3.08.26Z" transform="translate(-110.42 -145)"/><path class="cls-1" d="M537,293.12a60.22,60.22,0,0,1,9.13-.64c5.69,0,9.4,1,12.27,3.21,3.11,2.32,5.06,6,5.06,11.27,0,5.74-2.08,9.71-4.95,12.13-3.15,2.63-8,3.88-13.82,3.88a57.29,57.29,0,0,1-7.69-.44Zm6.77,24.44a15.19,15.19,0,0,0,2.36.12c6.13.05,10.16-3.34,10.16-10.5,0-6.22-3.63-9.49-9.45-9.49a14.12,14.12,0,0,0-3.07.26Z" transform="translate(-110.42 -145)"/><path class="cls-1" d="M567.88,292.71h6.77V317h11.91v5.68H567.88Z" transform="translate(-110.42 -145)"/><path class="cls-1" d="M608.38,310h-11v7.12h12.31v5.55H590.58v-30H609v5.55H597.36v6.23h11Z" transform="translate(-110.42 -145)"/><path class="cls-1" d="M623.51,315.67a16.75,16.75,0,0,0,7.51,1.88c3.1,0,4.75-1.29,4.75-3.26s-1.43-2.93-5-4.19c-5-1.77-8.26-4.49-8.26-8.87,0-5.1,4.29-9,11.33-9a17.69,17.69,0,0,1,7.64,1.51L640,299.18a14.36,14.36,0,0,0-6.25-1.42c-3,0-4.36,1.36-4.36,2.9,0,1.9,1.66,2.74,5.54,4.21,5.31,2,7.76,4.73,7.76,9,0,5-3.83,9.29-12.07,9.29a19.32,19.32,0,0,1-8.46-1.86Z" transform="translate(-110.42 -145)"/><path class="cls-1" d="M669.25,321.83a19.54,19.54,0,0,1-7.66,1.29c-10.37,0-15.71-6.48-15.71-15,0-10.21,7.32-15.87,16.36-15.87a17.24,17.24,0,0,1,7.37,1.33l-1.38,5.36a14.2,14.2,0,0,0-5.69-1.13c-5.34,0-9.53,3.26-9.53,9.91,0,6,3.54,9.78,9.57,9.78a16.3,16.3,0,0,0,5.66-1Z" transform="translate(-110.42 -145)"/><path class="cls-1" d="M680.49,292.71v11.52h11.17V292.71h6.77v30h-6.77V310.13H680.49v12.53h-6.77v-30Z" transform="translate(-110.42 -145)"/><path class="cls-1" d="M731.72,307.38c0,9.83-5.93,15.77-14.68,15.77s-14.11-6.72-14.11-15.26c0-9,5.76-15.67,14.58-15.67C726.7,292.22,731.72,299.1,731.72,307.38Zm-21.63.38c0,5.87,2.76,10,7.28,10s7.2-4.32,7.2-10.15c0-5.4-2.56-10-7.21-10S710.09,301.94,710.09,307.76Z" transform="translate(-110.42 -145)"/><path class="cls-1" d="M763.58,307.38c0,9.83-5.93,15.77-14.68,15.77s-14.11-6.72-14.11-15.26c0-9,5.76-15.67,14.58-15.67C758.56,292.22,763.58,299.1,763.58,307.38Zm-21.63.38c0,5.87,2.76,10,7.28,10s7.19-4.32,7.19-10.15c0-5.4-2.55-10-7.21-10S742,301.94,742,307.76Z" transform="translate(-110.42 -145)"/><path class="cls-1" d="M768.05,292.71h6.77V317h11.92v5.68H768.05Z" transform="translate(-110.42 -145)"/><line class="cls-3" x1="250.48" y1="162.57" x2="324.54" y2="162.57"/><line class="cls-3" x1="694.69" y1="162.57" x2="768.74" y2="162.57"/><path class="cls-4" d="M146.4,226a20.32,20.32,0,0,1-1.31,8.28c-.1.25-.15.53-.27.77a2.63,2.63,0,0,0,.17,2.48.54.54,0,0,0,.09.12,1.89,1.89,0,0,0,.09-.21c.42-1.38.81-2.78,1.26-4.15,1.28-3.83,2.61-7.65,3.87-11.49.55-1.71,1-3.47,1.43-5.2a1.36,1.36,0,0,0,0-.53c-.44-2.11-.94-4.21-1.32-6.33a15.6,15.6,0,0,1,0-6.56,14.94,14.94,0,0,1,.74-2c.14-.34.36-.65.52-1a15.89,15.89,0,0,1,5.42-6.06,12.19,12.19,0,0,0,4.25-4.81,14.77,14.77,0,0,0,.53-1.45,1.43,1.43,0,0,1,.15-.27c.06.09.17.17.19.28.15.81.3,1.63.42,2.45a46.11,46.11,0,0,1,.56,6.64,13.3,13.3,0,0,1-1.72,6.74,90.84,90.84,0,0,1-6.31,9.45A29.23,29.23,0,0,1,153,215.5a3.52,3.52,0,0,0-.89,1.64c-.86,3.1-1.77,6.18-2.66,9.27,0,.07-.05.15-.07.23a.37.37,0,0,0,0,.11.34.34,0,0,0,.08-.09c.48-1,.9-2,1.44-2.91a13.2,13.2,0,0,1,1.39-1.94,7,7,0,0,1,2.47-1.88,18.1,18.1,0,0,1,4.55-1.7,18.73,18.73,0,0,1,4-.13,12,12,0,0,0,5-.81,6.3,6.3,0,0,0,2.1-1.31c.06-.06.17-.07.25-.11a.72.72,0,0,1,0,.28c-.11.35-.22.69-.36,1a45.69,45.69,0,0,1-3.53,7.28,11.06,11.06,0,0,1-4.94,4.33,75.23,75.23,0,0,1-10.17,3.67,33.28,33.28,0,0,1-3.43.61,1.91,1.91,0,0,0-.64.19,1.47,1.47,0,0,0-.55.59,51.9,51.9,0,0,0-2.19,10c-.19,1.87-.19,3.75-.28,5.63a3.1,3.1,0,0,0,.08.42,2.66,2.66,0,0,0,.16-.39c.5-2.13,1-4.27,1.52-6.39a16.71,16.71,0,0,1,2.36-5.36,8,8,0,0,1,2.5-2.4l1.26-.79a13.9,13.9,0,0,1,7.06-2.11,12.51,12.51,0,0,0,5.19-1.33,6.84,6.84,0,0,0,2.31-1.75c0-.06.16-.08.24-.12s.08.19.06.28c-.08.39-.17.78-.29,1.17a49.62,49.62,0,0,1-2.83,7.7,11.38,11.38,0,0,1-4,4.82.39.39,0,0,0-.11.32c.33,2,.73,4,1,6a14.8,14.8,0,0,1-1.54,9.59c-.56,1-1,2-1.61,3-1.16,2-2.33,3.94-3.57,5.86-.57.89-1.33,1.67-2,2.51-.45.58-.89,1.17-1.31,1.78a1.32,1.32,0,0,0-.11,1.33c.47,1.06,1,2.11,1.48,3.16a53.17,53.17,0,0,0,6,9.66,46.26,46.26,0,0,0,4.22,4.73,1.24,1.24,0,0,0,.23.17c-.05-.08-.09-.18-.14-.26-1.2-1.86-2.43-3.71-3.59-5.59a24.84,24.84,0,0,1-2.52-5.34,12.37,12.37,0,0,1-.61-6c.27-1.63.51-3.28.9-4.89a18.88,18.88,0,0,1,2.54-5.44,17.45,17.45,0,0,0,2.59-6.69,24.26,24.26,0,0,0,.11-2.83c0-.09,0-.19,0-.28s.11-.21.24-.1a.71.71,0,0,1,.19.23,50,50,0,0,1,5.25,11.23,16.17,16.17,0,0,1,.33,7.09,122.12,122.12,0,0,1-2.85,13.12c-.36,1.31-.94,2.56-1.4,3.85-.2.55-.39,1.1-.55,1.66a1,1,0,0,0,.33,1.08,53.72,53.72,0,0,0,8.16,6.08c2,1.18,4,2.25,6.08,3.37a1.69,1.69,0,0,0,.24.08,1,1,0,0,0-.06-.25,6.88,6.88,0,0,0-.65-1.08,77.4,77.4,0,0,1-4.95-6.18,22.54,22.54,0,0,1-2.22-4.1,10.53,10.53,0,0,1-.8-3.59,33.57,33.57,0,0,1,.28-5.84,20.92,20.92,0,0,1,1.78-5.46,17.39,17.39,0,0,0,1.78-7.89c0-.58-.16-1.16-.23-1.74a1.45,1.45,0,0,1,0-.36,2.9,2.9,0,0,1,.34.19.93.93,0,0,1,.16.18,58.75,58.75,0,0,1,5.17,7.88,15.72,15.72,0,0,1,1.95,8.91c0,.3.07.39.36.5,1.46.52,2.9,1.07,4.32,1.68a26.67,26.67,0,0,1,5.43,2.95,13.08,13.08,0,0,1,3.79,4.28,115.65,115.65,0,0,1,5,10.72,45.42,45.42,0,0,1,2.06,6.4,10.21,10.21,0,0,0,.32,1,1.27,1.27,0,0,0,1,.85c2.41.71,4.82,1.44,7.22,2.17.42.13.83.29,1.23.45a.62.62,0,0,1,.34.83.64.64,0,0,1-.8.34c-1.49-.5-3-1-4.46-1.49q-5.09-1.5-10.21-2.87a5.28,5.28,0,0,0-1.89.08c-.15,0-.3.2-.4.35-.47.64-1,1.27-1.39,1.95a20.38,20.38,0,0,1-6.25,6.22,56,56,0,0,1-7.5,4.17,17.13,17.13,0,0,1-7.93,1.35,40.17,40.17,0,0,1-8.49-1.55,3,3,0,0,1-.56-.22.23.23,0,0,1-.11-.19c0-.06.09-.14.15-.16,3-.8,5-3,6.71-5.35.33-.45.61-.93.9-1.4a17.73,17.73,0,0,1,5.47-5.89c.58-.37,1.11-.8,1.69-1.17a9.81,9.81,0,0,1,5.19-1.48,22.54,22.54,0,0,1,7.14,1.26c1.51.48,3,1,4.51,1.53a2.87,2.87,0,0,0,1.39.19l.19,0a.59.59,0,0,0-.17-.1c-.78-.26-1.58-.49-2.35-.78-3.39-1.29-6.79-2.52-10.13-3.91-2.41-1-4.73-2.24-7.09-3.37a1.13,1.13,0,0,0-1.55.21l-2.14,2.24a17,17,0,0,1-5.08,3.78,46.27,46.27,0,0,1-10.12,3.68,16.64,16.64,0,0,1-7-.11,39.16,39.16,0,0,1-8.66-3.07,2.05,2.05,0,0,1-.48-.41,2.87,2.87,0,0,1,.57-.17,8,8,0,0,0,2.81-.91,16.93,16.93,0,0,0,4.9-4c.82-.93,1.65-1.84,2.53-2.7a18.33,18.33,0,0,1,6-3.45,9.4,9.4,0,0,1,4.59-.73,16.34,16.34,0,0,1,5.27,1.45c2,.9,3.88,1.91,5.82,2.87a1.25,1.25,0,0,0,.27.1,1.7,1.7,0,0,0-.22-.15,58.47,58.47,0,0,1-9.08-6.47,17.28,17.28,0,0,1-1.34-1.23,6.22,6.22,0,0,0-2-1.36.83.83,0,0,0-.58,0c-.73.29-1.46.59-2.16.95a16.32,16.32,0,0,1-5.09,1.73,29.38,29.38,0,0,1-3.75.23,45.41,45.41,0,0,1-8.07-.6,18.61,18.61,0,0,1-7.44-3.18,39.82,39.82,0,0,1-5.4-4.64c-.74-.74-1.46-1.5-2.16-2.26a1.83,1.83,0,0,1-.25-.57,3.66,3.66,0,0,1,.56.1,8.67,8.67,0,0,0,4.08.2,15.62,15.62,0,0,0,5.12-1.83,17.38,17.38,0,0,1,4.82-1.93,26.38,26.38,0,0,1,4.44-.31c3.19-.13,5.72,1.27,8,3.24a48,48,0,0,1,5.63,5.95c.57.69,1.14,1.4,1.74,2.07a5.43,5.43,0,0,0,.78.64.56.56,0,0,0,.16.07.86.86,0,0,0-.1-.16c-1.42-1.72-2.89-3.39-4.24-5.15a44.81,44.81,0,0,1-4.51-7.33c-.84-1.69-1.62-3.41-2.39-5.14a1.44,1.44,0,0,0-1.64-.93c-.92.2-1.85.36-2.78.51a14.09,14.09,0,0,1-5.71-.24,53.91,53.91,0,0,1-7.37-2.33,18.81,18.81,0,0,1-7.24-5.22,49.58,49.58,0,0,1-5.26-7.45,2.59,2.59,0,0,1-.14-.58,2.81,2.81,0,0,1,.5.22,8.46,8.46,0,0,0,4,1.15,12.55,12.55,0,0,0,4.27-.41,15.47,15.47,0,0,1,8.66.16,11.7,11.7,0,0,1,6.08,4.14,43.33,43.33,0,0,1,4.32,6.87c.51.95,1,1.89,1.53,2.83a4.37,4.37,0,0,0,.37.48A4.51,4.51,0,0,0,149,272a99.41,99.41,0,0,1-4.06-12.22,59.8,59.8,0,0,1-1.15-6.11,1.76,1.76,0,0,0-1.34-1.62c-.47-.1-.93-.28-1.4-.39a14.48,14.48,0,0,1-5.52-2.68,58.34,58.34,0,0,1-5.43-4.76,20.09,20.09,0,0,1-4.92-8.36c-.66-2.07-1.14-4.2-1.68-6.3a1.84,1.84,0,0,1,0-.52,2.73,2.73,0,0,1,.34.34,9,9,0,0,0,4,3,26.79,26.79,0,0,0,3.41,1,12.91,12.91,0,0,1,4.94,2.36c.71.57,1.41,1.13,2.09,1.72a11,11,0,0,1,2.74,4.31,35.1,35.1,0,0,1,1.7,6.69c.19,1.11.37,2.22.55,3.32,0,0,0,.05,0,.06.12.25.24.51.37.76,0-.25,0-.49,0-.73a36,36,0,0,1,.2-7.69c.29-1.93.71-3.84,1.06-5.75a1.14,1.14,0,0,0,0-.55,8.87,8.87,0,0,0-2.13-3.17,36.66,36.66,0,0,1-4.19-5,11.39,11.39,0,0,1-2.06-5.19,19.65,19.65,0,0,1,1.26-9.77,14.47,14.47,0,0,0,1.24-6,20.46,20.46,0,0,0-.27-2.19c0-.14,0-.29,0-.43a1.51,1.51,0,0,1,.39.24c.69.85,1.39,1.69,2.06,2.55a24.72,24.72,0,0,1,4.09,7.4,23,23,0,0,1,.94,5.33C146.26,223.06,146.32,224.51,146.4,226Zm31.76,74.68c.08.3.16.54.2.79a.94.94,0,0,0,.68.79c.41.16.8.38,1.21.56,2.05.87,4.07,1.79,6.15,2.58,2.67,1,5.39,2,8.09,2.94a.58.58,0,0,0,.14,0l-.14-.09c-.93-.47-1.9-.89-2.81-1.42a10.53,10.53,0,0,1-4-3.93c-.4-.71-.79-1.42-1.15-2.14a16,16,0,0,1-1.62-4c-.27-1.36-.54-2.72-.69-4.09a23,23,0,0,0-1.36-5.92,10.56,10.56,0,0,0-2-3.33,1.59,1.59,0,0,0-.21-.15c0,.08,0,.16,0,.24-.23,2.63-.44,5.26-.71,7.88a34.94,34.94,0,0,1-1.19,6.81C178.51,299,178.36,299.82,178.16,300.63Zm-19.57-56.44-.22.12c-1.58.82-3.15,1.65-4.73,2.46a35,35,0,0,1-8,3,1.48,1.48,0,0,0-.94,1c0,.57,0,1.13.1,1.7a48.86,48.86,0,0,0,1.24,7,96.23,96.23,0,0,0,4.35,12.82c.06.13.13.25.19.37a3.07,3.07,0,0,0-.07-.42,79.28,79.28,0,0,1-2-7.71,18.77,18.77,0,0,1-.27-5,12.86,12.86,0,0,1,1.32-4.07A16.59,16.59,0,0,1,154.7,249a13.57,13.57,0,0,0,3.19-3.48c.24-.37.44-.76.66-1.15C158.58,244.32,158.57,244.27,158.59,244.19Z" transform="translate(-110.42 -145)"/><path class="cls-4" d="M285.24,224.16a23.1,23.1,0,0,1,.94-5.34,24.91,24.91,0,0,1,4.1-7.39c.66-.87,1.36-1.71,2.06-2.55a1.45,1.45,0,0,1,.38-.24c0,.14,0,.28,0,.42a18.22,18.22,0,0,0-.28,2.19,14.52,14.52,0,0,0,1.24,6,19.4,19.4,0,0,1,1.26,9.76,11.24,11.24,0,0,1-2.06,5.19,35.38,35.38,0,0,1-4.19,5,9.18,9.18,0,0,0-2.13,3.17,1.15,1.15,0,0,0-.05.55c.35,1.92.78,3.83,1.06,5.75a35.31,35.31,0,0,1,.21,7.69,5.93,5.93,0,0,0,0,.73l.36-.75a.13.13,0,0,0,0-.06c.19-1.11.37-2.22.56-3.32a34.17,34.17,0,0,1,1.69-6.69,10.73,10.73,0,0,1,2.75-4.31c.67-.6,1.38-1.16,2.08-1.72a12.63,12.63,0,0,1,4.94-2.36,27,27,0,0,0,3.42-1,9,9,0,0,0,4-3c.1-.12.23-.22.34-.33a1.84,1.84,0,0,1,0,.52c-.55,2.1-1,4.22-1.69,6.29a20.06,20.06,0,0,1-4.92,8.37,61.31,61.31,0,0,1-5.42,4.76,14.67,14.67,0,0,1-5.53,2.68c-.47.11-.93.28-1.4.39a1.73,1.73,0,0,0-1.33,1.62,59.61,59.61,0,0,1-1.15,6.1,97.26,97.26,0,0,1-4.07,12.22c-.07.17-.11.35-.17.52a3.18,3.18,0,0,0,.37-.47c.52-.94,1-1.89,1.53-2.83a42.68,42.68,0,0,1,4.33-6.87,11.67,11.67,0,0,1,6.07-4.14,15.41,15.41,0,0,1,8.67-.17,12.28,12.28,0,0,0,4.27.42,8.62,8.62,0,0,0,4-1.16c.15-.09.33-.14.49-.22a1.76,1.76,0,0,1-.14.58,49.17,49.17,0,0,1-5.26,7.46,18.84,18.84,0,0,1-7.24,5.22,55.66,55.66,0,0,1-7.36,2.33,14.51,14.51,0,0,1-5.72.24c-.93-.16-1.86-.31-2.77-.52a1.45,1.45,0,0,0-1.65.93c-.76,1.73-1.54,3.45-2.39,5.14a44.84,44.84,0,0,1-4.5,7.34c-1.36,1.76-2.83,3.43-4.25,5.14a1.4,1.4,0,0,0-.1.16.76.76,0,0,0,.16-.06,5.58,5.58,0,0,0,.79-.65c.6-.67,1.16-1.37,1.74-2.06a47.22,47.22,0,0,1,5.62-6c2.32-2,4.85-3.38,8-3.25a26.26,26.26,0,0,1,4.43.31,17.78,17.78,0,0,1,4.83,1.94,15.25,15.25,0,0,0,5.11,1.82,8.42,8.42,0,0,0,4.08-.2,5.21,5.21,0,0,1,.57-.1,1.86,1.86,0,0,1-.25.57c-.71.77-1.43,1.53-2.17,2.26a37.89,37.89,0,0,1-5.4,4.64,18.41,18.41,0,0,1-7.44,3.18,45.38,45.38,0,0,1-8.06.61,31.37,31.37,0,0,1-3.76-.23,16.43,16.43,0,0,1-5.08-1.73c-.7-.36-1.44-.66-2.17-1a.8.8,0,0,0-.57,0,6.11,6.11,0,0,0-2.06,1.36,17.32,17.32,0,0,1-1.34,1.22,57.35,57.35,0,0,1-9.08,6.47,1.59,1.59,0,0,0-.21.15l.27-.09c1.93-1,3.85-2,5.81-2.87a16.09,16.09,0,0,1,5.27-1.45,9.27,9.27,0,0,1,4.59.72,18.51,18.51,0,0,1,6,3.45c.89.86,1.72,1.78,2.53,2.7a17,17,0,0,0,4.91,4,7.49,7.49,0,0,0,2.81.91,3.08,3.08,0,0,1,.57.17,2.68,2.68,0,0,1-.48.42A39.94,39.94,0,0,1,282,314a16.8,16.8,0,0,1-7,.11,47.33,47.33,0,0,1-10.12-3.68,17.18,17.18,0,0,1-5.08-3.79c-.71-.75-1.43-1.49-2.13-2.24a1.15,1.15,0,0,0-1.56-.2c-2.36,1.13-4.68,2.36-7.09,3.36-3.33,1.4-6.74,2.63-10.12,3.91-.78.29-1.57.52-2.36.79a1.4,1.4,0,0,0-.17.09l.19,0a2.92,2.92,0,0,0,1.4-.2c1.5-.52,3-1.05,4.51-1.53a22.47,22.47,0,0,1,7.13-1.25,9.81,9.81,0,0,1,5.2,1.48c.58.36,1.11.8,1.68,1.17a17.69,17.69,0,0,1,5.47,5.88c.29.47.58.95.91,1.4,1.75,2.38,3.68,4.56,6.71,5.36a.23.23,0,0,1,.15.15.29.29,0,0,1-.11.19,2.8,2.8,0,0,1-.57.22,39.46,39.46,0,0,1-8.48,1.55,17,17,0,0,1-7.94-1.35,55.39,55.39,0,0,1-7.49-4.17,20.06,20.06,0,0,1-6.25-6.22c-.43-.67-.92-1.31-1.4-1.95-.1-.14-.25-.33-.39-.35a5.57,5.57,0,0,0-1.9-.08c-3.41.91-6.82,1.88-10.21,2.87-1.5.44-3,1-4.45,1.5a.66.66,0,0,1-.81-.34.61.61,0,0,1,.35-.83,10.48,10.48,0,0,1,1.22-.45q3.62-1.11,7.23-2.17a1.32,1.32,0,0,0,.95-.85c.1-.33.23-.65.32-1a43.35,43.35,0,0,1,2.05-6.4c1.55-3.63,3.08-7.26,5-10.72a13.31,13.31,0,0,1,3.79-4.28A26.71,26.71,0,0,1,246,287.1c1.42-.61,2.87-1.16,4.32-1.69.3-.11.39-.19.36-.5a15.79,15.79,0,0,1,1.95-8.9,58.86,58.86,0,0,1,5.17-7.89,1.37,1.37,0,0,1,.16-.18,3.9,3.9,0,0,1,.35-.19,2.3,2.3,0,0,1,0,.37,13.86,13.86,0,0,0,1.54,9.62,21.16,21.16,0,0,1,1.78,5.46,32.68,32.68,0,0,1,.28,5.85,10.35,10.35,0,0,1-.8,3.59,21.6,21.6,0,0,1-2.22,4.09,71.75,71.75,0,0,1-5,6.19,6.73,6.73,0,0,0-.64,1.07.76.76,0,0,0-.06.26,1.7,1.7,0,0,0,.24-.09c2-1.11,4.08-2.18,6.07-3.36a52.64,52.64,0,0,0,8.16-6.09,1,1,0,0,0,.33-1.07c-.16-.56-.34-1.12-.54-1.67-.47-1.28-1-2.53-1.4-3.84A119.74,119.74,0,0,1,263.28,275a16.16,16.16,0,0,1,.32-7.09,50.71,50.71,0,0,1,5.25-11.24.87.87,0,0,1,.19-.23c.14-.11.23-.07.24.11s0,.18,0,.27a26.77,26.77,0,0,0,.1,2.84,17.57,17.57,0,0,0,2.59,6.68,19.24,19.24,0,0,1,2.55,5.45c.39,1.61.62,3.25.9,4.88a12.41,12.41,0,0,1-.61,6,25.52,25.52,0,0,1-2.53,5.33c-1.16,1.89-2.39,3.73-3.59,5.6a2.1,2.1,0,0,0-.13.26l.22-.17A44,44,0,0,0,273,289a53.3,53.3,0,0,0,6-9.67c.51-1,1-2.09,1.47-3.16a1.3,1.3,0,0,0-.11-1.33c-.42-.6-.85-1.2-1.31-1.77-.66-.85-1.41-1.62-2-2.52-1.24-1.92-2.4-3.89-3.56-5.86-.58-1-1.06-2-1.62-3a14.83,14.83,0,0,1-1.54-9.58c.28-2,.67-4,1-6a.37.37,0,0,0-.1-.32,11.35,11.35,0,0,1-4.05-4.82,50.43,50.43,0,0,1-2.84-7.7c-.11-.39-.2-.78-.29-1.18,0-.08,0-.18.06-.28s.19.06.25.13a7,7,0,0,0,2.3,1.74,12.51,12.51,0,0,0,5.19,1.33,13.88,13.88,0,0,1,7.06,2.12c.42.27.84.53,1.27.78a8.18,8.18,0,0,1,2.5,2.4,17.11,17.11,0,0,1,2.35,5.36c.56,2.12,1,4.27,1.53,6.4a2.5,2.5,0,0,0,.15.38,1.56,1.56,0,0,0,.08-.41c-.08-1.88-.09-3.77-.28-5.64a51.07,51.07,0,0,0-2.19-10,1.35,1.35,0,0,0-.55-.59,1.65,1.65,0,0,0-.63-.19c-1.15-.2-2.32-.3-3.43-.61a73.47,73.47,0,0,1-10.17-3.68A11,11,0,0,1,264.6,227a46.56,46.56,0,0,1-3.53-7.28c-.13-.33-.25-.68-.35-1,0-.08,0-.18,0-.28a.83.83,0,0,1,.25.12,6.37,6.37,0,0,0,2.1,1.3,11.88,11.88,0,0,0,5,.81,18.66,18.66,0,0,1,4,.14,17.65,17.65,0,0,1,4.56,1.7,7.1,7.1,0,0,1,2.47,1.87,14.71,14.71,0,0,1,1.39,1.95c.53.94,1,1.93,1.43,2.91l.08.09a.48.48,0,0,0,0-.12c0-.08-.06-.15-.08-.23-.89-3.09-1.8-6.17-2.65-9.27a3.7,3.7,0,0,0-.89-1.64,26,26,0,0,1-2.21-2.37,91.06,91.06,0,0,1-6.32-9.46,13.26,13.26,0,0,1-1.72-6.73,46.26,46.26,0,0,1,.57-6.65c.11-.82.26-1.63.41-2.45,0-.1.13-.19.2-.28a1.47,1.47,0,0,1,.14.28c.18.48.31,1,.53,1.44a12.22,12.22,0,0,0,4.25,4.82,15.67,15.67,0,0,1,5.42,6.06c.17.33.38.65.53,1a13.09,13.09,0,0,1,.73,2,15.48,15.48,0,0,1,0,6.57c-.37,2.12-.87,4.21-1.31,6.32a1.07,1.07,0,0,0,0,.53c.46,1.74.87,3.49,1.43,5.2,1.25,3.85,2.59,7.66,3.86,11.5.46,1.37.84,2.76,1.26,4.14,0,.08.07.14.1.21a.76.76,0,0,0,.08-.11,2.65,2.65,0,0,0,.18-2.49,6.39,6.39,0,0,1-.28-.77,20.64,20.64,0,0,1-1.31-8.27C285.07,227,285.13,225.6,285.24,224.16Zm-32.62,76.51a35,35,0,0,1-1.19-6.8c-.27-2.63-.47-5.26-.71-7.89a1.81,1.81,0,0,0,0-.23.86.86,0,0,0-.22.15,10.6,10.6,0,0,0-2,3.32,22.63,22.63,0,0,0-1.35,5.92c-.16,1.38-.42,2.74-.69,4.09a16.42,16.42,0,0,1-1.62,4c-.36.73-.76,1.43-1.15,2.14a10.51,10.51,0,0,1-4,3.94c-.9.52-1.87.95-2.81,1.42a1.1,1.1,0,0,0-.14.09l.15,0c2.69-1,5.41-1.91,8.09-2.94,2.07-.8,4.1-1.72,6.14-2.59.41-.17.8-.39,1.22-.55a1,1,0,0,0,.68-.8,6.23,6.23,0,0,1,.19-.78C253,302.36,252.87,301.5,252.62,300.67Zm20.21-53.78c.22.39.43.79.67,1.16a13.49,13.49,0,0,0,3.18,3.47,16.81,16.81,0,0,1,5.17,6.52,12.94,12.94,0,0,1,1.31,4.07,18.71,18.71,0,0,1-.26,5,76.06,76.06,0,0,1-2,7.72c0,.13,0,.28-.07.42a3.37,3.37,0,0,0,.19-.38,98.09,98.09,0,0,0,4.36-12.81,49,49,0,0,0,1.23-7c.06-.56.08-1.13.1-1.7a1.47,1.47,0,0,0-.94-1,34.28,34.28,0,0,1-8-3c-1.59-.8-3.16-1.64-4.74-2.46l-.21-.12A.52.52,0,0,0,272.83,246.89Z" transform="translate(-110.42 -145)"/><path class="cls-5" d="M139.22,336.15v-.27a42.67,42.67,0,0,1,1-7.4c.49-2.44,1.06-5,1.28-7.3a41.23,41.23,0,0,0-6.25-3.91,71.87,71.87,0,0,1-6.56-3.79l-.23-.16a203.1,203.1,0,0,1,30.69-11.51q3.47,12.13,6.92,24.27A176.08,176.08,0,0,0,139.22,336.15Z" transform="translate(-110.42 -145)"/><path class="cls-6" d="M139.22,336.15v-.27a42.67,42.67,0,0,1,1-7.4c.49-2.44,1.06-5,1.28-7.3a41.23,41.23,0,0,0-6.25-3.91,71.87,71.87,0,0,1-6.56-3.79l-.23-.16a203.1,203.1,0,0,1,30.69-11.51q3.47,12.13,6.92,24.27A176.08,176.08,0,0,0,139.22,336.15Z" transform="translate(-110.42 -145)"/><path class="cls-7" d="M138,338c0-.67,0-1.35,0-2a41.85,41.85,0,0,1,1-7.56c.44-2.22.94-4.52,1.17-6.62a43.16,43.16,0,0,0-5.7-3.47,71.27,71.27,0,0,1-6.72-3.84l-1.74-1.19a203.59,203.59,0,0,1,34.1-12.86l7.35,26.45A176.53,176.53,0,0,0,138,338Z" transform="translate(-110.42 -145)"/><path class="cls-5" d="M147.57,317.78l-4.45-11.85c5.19-1.95,10.45-3.68,15.74-5.19q3.49,12.24,7,24.47A165.25,165.25,0,0,0,147.57,317.78Z" transform="translate(-110.42 -145)"/><path class="cls-6" d="M147.57,317.78l-4.45-11.85c5.19-1.95,10.45-3.68,15.74-5.19q3.49,12.24,7,24.47A165.25,165.25,0,0,0,147.57,317.78Z" transform="translate(-110.42 -145)"/><path class="cls-7" d="M146.55,318.68Q144,312,141.46,305.37q9.09-3.48,18.4-6.07l7.8,28.07A164.55,164.55,0,0,0,146.55,318.68Z" transform="translate(-110.42 -145)"/><path class="cls-5" d="M263.34,326.08q3.45-12.13,6.92-24.27A203.5,203.5,0,0,1,301,313.32l-.23.16a70.74,70.74,0,0,1-6.57,3.79,41.74,41.74,0,0,0-6.25,3.91c.23,2.33.79,4.86,1.29,7.3a43.61,43.61,0,0,1,1,7.4v.27A176.47,176.47,0,0,0,263.34,326.08Z" transform="translate(-110.42 -145)"/><path class="cls-6" d="M263.34,326.08q3.45-12.13,6.92-24.27A203.5,203.5,0,0,1,301,313.32l-.23.16a70.74,70.74,0,0,1-6.57,3.79,41.74,41.74,0,0,0-6.25,3.91c.23,2.33.79,4.86,1.29,7.3a43.61,43.61,0,0,1,1,7.4v.27A176.47,176.47,0,0,0,263.34,326.08Z" transform="translate(-110.42 -145)"/><path class="cls-7" d="M261.91,326.83l7.35-26.45a203.37,203.37,0,0,1,34.11,12.86c-.58.4-1.17.79-1.74,1.19a71.27,71.27,0,0,1-6.72,3.84,44,44,0,0,0-5.71,3.47c.24,2.1.74,4.4,1.18,6.62a43.71,43.71,0,0,1,1,7.56c0,.68,0,1.36,0,2A176.2,176.2,0,0,0,261.91,326.83Z" transform="translate(-110.42 -145)"/><path class="cls-5" d="M270.56,300.74q7.95,2.26,15.74,5.19l-4.44,11.85a165.41,165.41,0,0,0-18.28,7.43Q267.08,313,270.56,300.74Z" transform="translate(-110.42 -145)"/><path class="cls-6" d="M270.56,300.74q7.95,2.26,15.74,5.19l-4.44,11.85a165.41,165.41,0,0,0-18.28,7.43Q267.08,313,270.56,300.74Z" transform="translate(-110.42 -145)"/><path class="cls-7" d="M269.56,299.3q9.31,2.59,18.41,6.07l-5.1,13.31a164.55,164.55,0,0,0-21.11,8.69Z" transform="translate(-110.42 -145)"/><path class="cls-5" d="M147.6,317.86q-4.42-11.81-8.86-23.62a216.26,216.26,0,0,1,152,0q-4.44,11.82-8.87,23.62A191.08,191.08,0,0,0,147.6,317.86Z" transform="translate(-110.42 -145)"/><path class="cls-6" d="M147.6,317.86q-4.42-11.81-8.86-23.62a216.26,216.26,0,0,1,152,0q-4.44,11.82-8.87,23.62A191.08,191.08,0,0,0,147.6,317.86Z" transform="translate(-110.42 -145)"/><path class="cls-7" d="M146.81,319.35q-4.91-12.81-9.82-25.63a217.25,217.25,0,0,1,155.44,0q-4.9,12.81-9.82,25.63A189.89,189.89,0,0,0,146.81,319.35Z" transform="translate(-110.42 -145)"/><path class="cls-8" d="M164.54,209.53h31.3a34,34,0,0,1,9.87,1.21,18.22,18.22,0,0,1,6.75,3.67,17.12,17.12,0,0,1,5.88,13,16.29,16.29,0,0,1-5.84,12.74q-5.83,5.15-16.11,5.14H186.28v11.09a7.21,7.21,0,0,0,.29,2.63,2.46,2.46,0,0,0,1.17,1.19,6.42,6.42,0,0,0,2.64.38h3v8.19H164.54v-8.19h2a10.11,10.11,0,0,0,3.5-.38,2.42,2.42,0,0,0,1.23-1.21,9.6,9.6,0,0,0,.38-3.42V223a11.85,11.85,0,0,0-.34-3.59,2.38,2.38,0,0,0-1.08-1.28,6.86,6.86,0,0,0-2.83-.4h-2.86Zm21.74,9.66V236h5.05a18.09,18.09,0,0,0,6.79-1,8,8,0,0,0,3.48-2.94,8.33,8.33,0,0,0,1.31-4.7,7.66,7.66,0,0,0-3.14-6.46c-1.55-1.19-3.86-1.78-6.91-1.78Z" transform="translate(-110.42 -145)"/><path class="cls-8" d="M222,209.53h28.85v8.18h-2.53a9.78,9.78,0,0,0-2.65.21,2.86,2.86,0,0,0-1.47,1.3,6.15,6.15,0,0,0-.46,2.77v33.79a9.1,9.1,0,0,0,.19,2.5,1.42,1.42,0,0,0,.78.74,6.15,6.15,0,0,0,2.3.28,23.57,23.57,0,0,0,9.15-1.48,16.89,16.89,0,0,0,6.24-4.77,28.34,28.34,0,0,0,4.78-8.93L275,246.8l-7.8,22H222v-8.19h2.82a5.78,5.78,0,0,0,2.61-.46,2.84,2.84,0,0,0,1.28-1.26,6.51,6.51,0,0,0,.4-2.74V222.55a8.31,8.31,0,0,0-.4-3.05,2.67,2.67,0,0,0-1.13-1.36,5.17,5.17,0,0,0-2.46-.43H222Z" transform="translate(-110.42 -145)"/><path class="cls-1" d="M143.63,297.84c1.93-.63,3.87-1.22,5.81-1.79l.49,1.68a4.33,4.33,0,0,0-.68.24.59.59,0,0,0-.19.22.44.44,0,0,0,0,.3,3.45,3.45,0,0,0,.3.53c1.2,1.92,2.39,3.86,3.57,5.8.06-1.65.13-3.29.22-4.93L152,298.24a1.94,1.94,0,0,1-.14-.2,1.1,1.1,0,0,0-.54-.5,1.34,1.34,0,0,0-.77,0l-.49-1.69q2.78-.81,5.55-1.54l.45,1.7-.45.12a1.18,1.18,0,0,0-.59.27.47.47,0,0,0-.1.43,3.57,3.57,0,0,0,.32.64q1.55,2.63,3,5.27,0-3,.12-6.09a4.4,4.4,0,0,0,0-.78.37.37,0,0,0-.26-.28,1.26,1.26,0,0,0-.67,0l-.48.13-.44-1.7q2.53-.66,5.07-1.25l.4,1.71a2.17,2.17,0,0,0-.75.28,1,1,0,0,0-.31.41,3.43,3.43,0,0,0-.16,1q-.33,5-.54,10l-2.72.72q-1.4-2.25-2.82-4.49c-.08,1.78-.14,3.55-.2,5.33l-2.81.82q-2.8-4.25-5.72-8.43a3.05,3.05,0,0,0-.57-.68.91.91,0,0,0-.48-.15,2.22,2.22,0,0,0-.79.16Z" transform="translate(-110.42 -145)"/><path class="cls-1" d="M169.69,290.87a7.27,7.27,0,0,1,5.51.85,6,6,0,0,1,2.74,4.33,6.66,6.66,0,0,1-.32,3.54,6.2,6.2,0,0,1-2,2.7,8.23,8.23,0,0,1-3.5,1.48,7.31,7.31,0,0,1-4.93-.55,6.28,6.28,0,0,1-3.29-4.37,6,6,0,0,1,.92-5.08A7.4,7.4,0,0,1,169.69,290.87Zm.43,2a3,3,0,0,0-2.2,1.55,6.05,6.05,0,0,0,1.34,6.81,3.17,3.17,0,0,0,4.63-.91,5.34,5.34,0,0,0,.42-3.57,6.15,6.15,0,0,0-.91-2.42,3.37,3.37,0,0,0-1.5-1.28A3,3,0,0,0,170.12,292.84Z" transform="translate(-110.42 -145)"/><path class="cls-1" d="M178.4,289.55q3.3-.53,6.61-.94l.22,1.74-.57.08a2.44,2.44,0,0,0-.6.12.62.62,0,0,0-.3.32,1.41,1.41,0,0,0,0,.61q.5,3.58,1,7.19a2.24,2.24,0,0,0,.11.52.33.33,0,0,0,.2.14,1.45,1.45,0,0,0,.51,0,5.57,5.57,0,0,0,2-.57,3.75,3.75,0,0,0,1.24-1.18,6,6,0,0,0,.85-2l1.79.39c-.42,1.61-.82,3.23-1.22,4.85q-4.89.54-9.77,1.3l-.28-1.73.62-.1a1.26,1.26,0,0,0,.55-.18.64.64,0,0,0,.24-.31,1.14,1.14,0,0,0,0-.59c-.35-2.37-.7-4.75-1.06-7.12a1.56,1.56,0,0,0-.19-.63.6.6,0,0,0-.3-.25,1.32,1.32,0,0,0-.57,0l-.71.11Z" transform="translate(-110.42 -145)"/><path class="cls-1" d="M190.36,288q3.22-.35,6.47-.58c0,.59.08,1.17.13,1.75l-.21,0a3.94,3.94,0,0,0-.77.1.52.52,0,0,0-.27.22.45.45,0,0,0-.09.31,2.91,2.91,0,0,0,.28.76q1.44,3.06,2.82,6.13,1-3.31,2.09-6.63a2.32,2.32,0,0,0,.14-.68.4.4,0,0,0-.2-.36A1.56,1.56,0,0,0,200,289l-.41,0-.11-1.75q2.63-.17,5.28-.27l.06,1.76a1.71,1.71,0,0,0-.86.17,2.19,2.19,0,0,0-.63,1.05q-1.8,5-3.41,10l-2.89.2q-2.35-4.75-4.87-9.46a3.16,3.16,0,0,0-.46-.71.91.91,0,0,0-.4-.22,2.43,2.43,0,0,0-.73,0Z" transform="translate(-110.42 -145)"/><path class="cls-1" d="M205.51,286.94q5.7-.21,11.4-.13c.5,1.35,1,2.69,1.47,4l-1.75.56a5.12,5.12,0,0,0-1-1.59,2.91,2.91,0,0,0-1.32-.8,6,6,0,0,0-1.68-.2l-2.06,0c0,1.06,0,2.11,0,3.17h.67a3.22,3.22,0,0,0,1-.11.67.67,0,0,0,.37-.33,2.18,2.18,0,0,0,.12-.89v-.48h1.72c0,1.79,0,3.58,0,5.38H212.8V295a1.84,1.84,0,0,0-.15-.82.68.68,0,0,0-.37-.34,3.54,3.54,0,0,0-1.06-.08h-.59c0,1,0,2,0,2.92a1.9,1.9,0,0,0,.05.57.32.32,0,0,0,.19.15,1.83,1.83,0,0,0,.58.05h1.09a5.67,5.67,0,0,0,2.07-.34,4,4,0,0,0,1.51-1.1,5.34,5.34,0,0,0,1.05-1.8l1.71.61q-.91,2.34-1.8,4.68c-3.72-.05-7.43,0-11.15.12l-.07-1.76h.33a2.43,2.43,0,0,0,.87-.12.54.54,0,0,0,.31-.32,3.53,3.53,0,0,0,0-.78l-.21-6.91a2,2,0,0,0-.1-.74.57.57,0,0,0-.26-.25,1.9,1.9,0,0,0-.7-.07l-.6,0Z" transform="translate(-110.42 -145)"/><path class="cls-1" d="M219.89,286.87c2.81.08,5.61.2,8.42.38a12.29,12.29,0,0,1,1.76.26,4.37,4.37,0,0,1,1.69.73,3.36,3.36,0,0,1,1.11,1.27,3.07,3.07,0,0,1,.29,1.63,2.92,2.92,0,0,1-1.29,2.24,5.63,5.63,0,0,1-2.63,1c.83,1.07,1.66,2.15,2.47,3.23l.1.15a2.88,2.88,0,0,0,.43.5,1.81,1.81,0,0,0,.41.25,2.39,2.39,0,0,0,.59.11l.56,0-.16,1.75c-1.38-.13-2.75-.24-4.12-.34q-1.87-2.88-3.84-5.72l-1.1-.06c0,.84-.08,1.68-.13,2.53a2.52,2.52,0,0,0,0,.83.52.52,0,0,0,.22.28,1.8,1.8,0,0,0,.65.12l.6,0-.1,1.76q-3.15-.18-6.31-.27l0-1.75h.58a1.61,1.61,0,0,0,.66-.07.61.61,0,0,0,.29-.28,2.69,2.69,0,0,0,.07-.68l.24-7.14a1.61,1.61,0,0,0-.05-.6.37.37,0,0,0-.23-.24,1.42,1.42,0,0,0-.53-.12h-.28l-.51,0Zm4.94,2.27c-.06,1.1-.11,2.19-.16,3.29l2,.1a5.61,5.61,0,0,0,1.76-.1,1.84,1.84,0,0,0,.91-.52,1.55,1.55,0,0,0,.36-.91,1.4,1.4,0,0,0-.22-.88,1.57,1.57,0,0,0-.74-.58,5.72,5.72,0,0,0-1.65-.28Z" transform="translate(-110.42 -145)"/><path class="cls-1" d="M235.46,287.82q3.31.31,6.63.73l-.21,1.74-.6-.07a1.93,1.93,0,0,0-.7,0,.57.57,0,0,0-.29.24,2,2,0,0,0-.16.7c-.28,2.33-.55,4.65-.82,7a2.34,2.34,0,0,0,0,.74.42.42,0,0,0,.19.26,1.19,1.19,0,0,0,.57.18l.69.09c-.08.58-.15,1.16-.22,1.74-2.09-.26-4.17-.49-6.27-.69l.17-1.75.51.05a2,2,0,0,0,.73,0,.48.48,0,0,0,.27-.21,1.67,1.67,0,0,0,.15-.66l.72-7a2.39,2.39,0,0,0,0-.78.6.6,0,0,0-.25-.32,1.92,1.92,0,0,0-.65-.13l-.61-.06Z" transform="translate(-110.42 -145)"/><path class="cls-1" d="M243.53,288.73c1.84.24,3.67.51,5.5.79q1.41,4,2.69,8l.78-4.47a2.87,2.87,0,0,0,.06-.73.59.59,0,0,0-.21-.34,1.63,1.63,0,0,0-.62-.2l-.65-.11c.09-.57.19-1.15.28-1.73q2.79.47,5.56,1l-.33,1.72-.61-.11a1.58,1.58,0,0,0-.67,0,.58.58,0,0,0-.32.22,2.24,2.24,0,0,0-.21.72c-.6,3.22-1.19,6.44-1.79,9.66l-2.62-.47q-1.58-5-3.36-10l-1,6.48a2.14,2.14,0,0,0,0,.72.51.51,0,0,0,.21.28,1.42,1.42,0,0,0,.61.18l.61.1-.27,1.73q-2.64-.4-5.29-.76l.23-1.74.55.07a1.51,1.51,0,0,0,.64,0,.57.57,0,0,0,.31-.23,1.35,1.35,0,0,0,.18-.55c.33-2.4.67-4.81,1-7.21a1.52,1.52,0,0,0,0-.62.63.63,0,0,0-.22-.32,1.39,1.39,0,0,0-.54-.16l-.72-.09Z" transform="translate(-110.42 -145)"/><path class="cls-1" d="M258.2,291.15q5.61,1.11,11.19,2.51c.18,1.42.35,2.85.51,4.27l-1.84.14a5.32,5.32,0,0,0-.63-1.78,2.87,2.87,0,0,0-1.1-1.09,6.62,6.62,0,0,0-1.6-.58l-2-.46-.69,3.1.66.14a3.41,3.41,0,0,0,1,.13.71.71,0,0,0,.44-.24,2.11,2.11,0,0,0,.31-.83l.11-.47,1.68.39c-.42,1.75-.83,3.49-1.25,5.23l-1.64-.38.12-.54a1.72,1.72,0,0,0,0-.82.74.74,0,0,0-.29-.43,3.91,3.91,0,0,0-1-.32l-.59-.13-.63,2.85a2.07,2.07,0,0,0-.08.56.36.36,0,0,0,.15.2,2.38,2.38,0,0,0,.56.18l1.07.24a5.57,5.57,0,0,0,2.1.14,4,4,0,0,0,1.74-.71,5.63,5.63,0,0,0,1.44-1.51l1.54,1q-1.44,2.06-2.84,4.14-5.46-1.38-11-2.47l.34-1.72.32.06a2.7,2.7,0,0,0,.88.09.55.55,0,0,0,.38-.25,3.08,3.08,0,0,0,.2-.75c.47-2.26.93-4.52,1.4-6.77a2.17,2.17,0,0,0,.06-.74.5.5,0,0,0-.2-.31,1.8,1.8,0,0,0-.66-.22l-.59-.12Z" transform="translate(-110.42 -145)"/><path class="cls-1" d="M282.33,297.31c-.05,1.48-.11,2.95-.17,4.42l-1.88-.09a6.11,6.11,0,0,0-1.3-2.73,4.47,4.47,0,0,0-2.16-1.38,2.37,2.37,0,0,0-1.36,0,.87.87,0,0,0-.66.55,1.1,1.1,0,0,0,.2.91,4,4,0,0,0,1.32,1.1c.77.46,1.53.94,2.29,1.42a6.49,6.49,0,0,1,2.47,2.38,3.19,3.19,0,0,1,.16,2.44,3.52,3.52,0,0,1-2.14,2.24,5.74,5.74,0,0,1-4,.1,6.57,6.57,0,0,1-1.76-.78,7.5,7.5,0,0,1-1.51-1.33l-.63.77-1.35-.37c.13-1.66.26-3.33.37-5l1.83.07a6.25,6.25,0,0,0,1.21,2.94,4.69,4.69,0,0,0,2.5,1.77,3.34,3.34,0,0,0,1.17.18,1.56,1.56,0,0,0,.82-.26,1,1,0,0,0,.41-.54A1.14,1.14,0,0,0,278,305a6.51,6.51,0,0,0-1.66-1.3l-2-1.22a12.06,12.06,0,0,1-1.18-.86,5.26,5.26,0,0,1-1.08-1.12,3.1,3.1,0,0,1-.47-1.21,3,3,0,0,1,0-1.39,3.07,3.07,0,0,1,1.06-1.64,4,4,0,0,1,2.12-.85,6.34,6.34,0,0,1,2.74.23,6,6,0,0,1,2.85,1.74l.56-.5Z" transform="translate(-110.42 -145)"/></svg>